<svg width="160" height="204" viewBox="0 0 160 204" fill="none" xmlns="http://www.w3.org/2000/svg">
<path opacity="0.3" d="M143.643 171.591L143.641 171.589C109.114 144.184 78.2696 114.992 47.5531 79.3992L47.1972 78.9868L47.6386 78.6674C48.3942 78.1208 49.1299 77.5859 49.8438 77.0668C51.5492 75.8269 53.1299 74.6775 54.5594 73.6753L54.5609 73.6743C57.0703 71.9283 62.5258 68.3173 67.3476 65.1469C69.7598 63.5608 72.0156 62.0836 73.6682 61.0029C74.4946 60.4626 75.1702 60.0213 75.6392 59.7152L76.1808 59.3618L76.3224 59.2695L76.3585 59.2459L76.3677 59.2399L76.37 59.2384L76.3705 59.238C76.3707 59.238 76.3707 59.2379 76.6438 59.6568L76.3707 59.2379L76.5977 59.09L76.8456 59.1994L86.7179 63.556L158.563 18.8792C157.996 13.8155 156.891 9.60736 155.083 6.49918C153.282 3.40324 150.788 1.4024 147.404 0.714178L75.3702 45.5082C75.3267 45.5955 75.2622 45.7188 75.1736 45.8727C74.994 46.1849 74.7154 46.6236 74.3125 47.1455C73.5062 48.1899 72.2035 49.5658 70.2035 50.9288L70.2022 50.9297C69.3711 51.4922 66.9123 53.0708 63.5747 55.2137C62.0483 56.1937 60.3381 57.2917 58.5157 58.4645C52.7016 62.2062 45.7337 66.7168 39.9061 70.6124L39.6522 70.7821L39.3853 70.6337C36.482 69.0196 32.7773 69.2944 30.1778 71.6225L30.1774 71.6228C27.5945 73.9316 26.8957 77.5171 28.1304 80.5559L28.1752 80.6661L28.1655 80.7847C28.0326 82.4156 26.9524 84.0385 25.0388 85.5147C23.1182 86.9963 20.3024 88.3762 16.5599 89.5185C13.2462 90.5321 9.08867 90.9173 5.89979 91.2127C5.52601 91.2474 5.16555 91.2808 4.82131 91.3138C3.99517 91.3931 3.26458 91.4698 2.66092 91.5556C2.08673 91.6373 1.65785 91.7232 1.37862 91.816C1.45499 91.8662 1.55154 91.9232 1.67179 91.987L1.67202 91.9871C11.2597 97.0792 22.2492 93.9301 32.3704 88.5076L32.7802 88.2881L33.0289 88.6808C56.7504 126.127 84.9763 159.647 118.729 197.283L118.736 197.29L118.742 197.298C118.904 197.492 119.202 197.8 119.472 198.07C119.605 198.203 119.727 198.322 119.816 198.409C119.86 198.452 119.896 198.487 119.921 198.511L119.949 198.538L119.955 198.544C126.678 204.721 137.12 204.895 144.052 198.677L144.053 198.677C151.434 192.069 152.059 180.716 145.436 173.344L145.433 173.34C145.159 173.03 144.713 172.593 144.325 172.225C144.133 172.043 143.958 171.881 143.832 171.764C143.769 171.706 143.718 171.66 143.683 171.628L143.643 171.591ZM38.7114 75.7066C40.8192 76.9235 41.5319 79.6312 40.3119 81.7441C39.0999 83.8435 36.3981 84.5781 34.2916 83.3619C32.176 82.1405 31.4601 79.4337 32.6726 77.3335C33.893 75.2198 36.5946 74.4844 38.7114 75.7066Z" stroke="#CEA561"/>
</svg>
