<svg width="24" height="24" viewBox="0 0 24 24" fill="none" xmlns="http://www.w3.org/2000/svg">
<g clip-path="url(#clip0_498_4871)">
<path d="M19.9991 11.333H12.6658V3.99967C12.6658 3.82286 12.5956 3.65329 12.4705 3.52827C12.3455 3.40325 12.1759 3.33301 11.9991 3.33301C11.8223 3.33301 11.6528 3.40325 11.5277 3.52827C11.4027 3.65329 11.3325 3.82286 11.3325 3.99967V11.333H3.99913C3.82232 11.333 3.65275 11.4032 3.52773 11.5283C3.40271 11.6533 3.33247 11.8229 3.33247 11.9997C3.32918 12.0863 3.3445 12.1727 3.3774 12.2529C3.4103 12.3331 3.46001 12.4053 3.52319 12.4647C3.58636 12.5241 3.66153 12.5693 3.74364 12.5971C3.82574 12.625 3.91286 12.635 3.99913 12.6263H11.3325V19.9997C11.3325 20.1765 11.4027 20.3461 11.5277 20.4711C11.6528 20.5961 11.8223 20.6663 11.9991 20.6663C12.1759 20.6663 12.3455 20.5961 12.4705 20.4711C12.5956 20.3461 12.6658 20.1765 12.6658 19.9997V12.6663H19.9991C20.1759 12.6663 20.3455 12.5961 20.4705 12.4711C20.5956 12.3461 20.6658 12.1765 20.6658 11.9997C20.6658 11.8229 20.5956 11.6533 20.4705 11.5283C20.3455 11.4032 20.1759 11.333 19.9991 11.333Z" fill="#151515" fill-opacity="0.7"/>
</g>
<defs>
<clipPath id="clip0_498_4871">
<rect width="24" height="24" fill="white"/>
</clipPath>
</defs>
</svg>
