<svg width="38" height="38" viewBox="0 0 38 38" fill="none" xmlns="http://www.w3.org/2000/svg">
<path d="M25.2142 28.3277C26.0393 28.3277 26.8307 28.6555 27.4141 29.239C27.9976 29.8224 28.3253 30.6137 28.3253 31.4389C28.3253 32.264 27.9976 33.0553 27.4141 33.6388C26.8307 34.2222 26.0393 34.55 25.2142 34.55C24.3891 34.55 23.5978 34.2222 23.0143 33.6388C22.4309 33.0553 22.1031 32.264 22.1031 31.4389C22.1031 30.6137 22.4309 29.8224 23.0143 29.239C23.5978 28.6555 24.3891 28.3277 25.2142 28.3277ZM25.2142 29.8833C24.8017 29.8833 24.406 30.0472 24.1143 30.3389C23.8226 30.6306 23.6587 31.0263 23.6587 31.4389C23.6587 31.8514 23.8226 32.2471 24.1143 32.5388C24.406 32.8305 24.8017 32.9944 25.2142 32.9944C25.6268 32.9944 26.0224 32.8305 26.3142 32.5388C26.6059 32.2471 26.7698 31.8514 26.7698 31.4389C26.7698 31.0263 26.6059 30.6306 26.3142 30.3389C26.0224 30.0472 25.6268 29.8833 25.2142 29.8833ZM11.2142 28.3277C12.0393 28.3277 12.8306 28.6555 13.4141 29.239C13.9975 29.8224 14.3253 30.6137 14.3253 31.4389C14.3253 32.264 13.9975 33.0553 13.4141 33.6388C12.8306 34.2222 12.0393 34.55 11.2142 34.55C10.3891 34.55 9.59776 34.2222 9.01431 33.6388C8.43087 33.0553 8.10309 32.264 8.10309 31.4389C8.10309 30.6137 8.43087 29.8224 9.01431 29.239C9.59776 28.6555 10.3891 28.3277 11.2142 28.3277ZM11.2142 29.8833C10.8016 29.8833 10.406 30.0472 10.1143 30.3389C9.82254 30.6306 9.65865 31.0263 9.65865 31.4389C9.65865 31.8514 9.82254 32.2471 10.1143 32.5388C10.406 32.8305 10.8016 32.9944 11.2142 32.9944C11.6268 32.9944 12.0224 32.8305 12.3141 32.5388C12.6059 32.2471 12.7698 31.8514 12.7698 31.4389C12.7698 31.0263 12.6059 30.6306 12.3141 30.3389C12.0224 30.0472 11.6268 29.8833 11.2142 29.8833ZM28.3253 9.66106H6.96753L10.9342 18.9944H23.6587C24.172 18.9944 24.6231 18.7455 24.9031 18.3722L29.5698 12.1499C29.772 11.8855 29.8809 11.5588 29.8809 11.2166C29.8809 10.8041 29.717 10.4084 29.4253 10.1167C29.1336 9.82495 28.7379 9.66106 28.3253 9.66106ZM23.6587 20.55H11.012L9.8142 22.9766L9.65865 23.6611C9.65865 24.0736 9.82254 24.4693 10.1143 24.761C10.406 25.0527 10.8016 25.2166 11.2142 25.2166H28.3253V26.7722H11.2142C10.3891 26.7722 9.59776 26.4444 9.01431 25.861C8.43087 25.2775 8.10309 24.4862 8.10309 23.6611C8.10263 23.1333 8.23645 22.614 8.49198 22.1522L9.61198 19.8655L3.96531 6.54994H1.88086V4.99438H4.99197L6.3142 8.1055H28.3253C29.1505 8.1055 29.9418 8.43328 30.5252 9.01672C31.1087 9.60017 31.4365 10.3915 31.4365 11.2166C31.4365 11.9944 31.172 12.6477 30.7365 13.1766L26.2098 19.2277C25.6498 20.0211 24.7164 20.55 23.6587 20.55Z" fill="#A5844E"/>
</svg>
