<svg width="343" height="282" viewBox="0 0 343 282" fill="none" xmlns="http://www.w3.org/2000/svg">
<path opacity="0.32" d="M232.164 105.531L232.164 105.53C233.675 97.0052 238.668 90.8426 245.606 87.2323C252.531 83.6285 261.374 82.5755 270.614 84.1982L270.615 84.1983C279.848 85.8341 287.801 89.8485 293.078 95.6036C298.364 101.369 300.949 108.868 299.441 117.395C296.443 134.446 278.908 145.534 260.376 142.262C251.18 140.639 243.057 137.493 237.763 131.701C232.447 125.883 230.06 117.482 232.164 105.531ZM211.21 269.113L211.21 269.113C204.57 274.68 196.782 276.195 189.145 274.503C181.523 272.813 174.072 267.934 168.04 260.749L168.039 260.749C162.012 253.56 158.501 245.373 158.159 237.572C157.817 229.757 160.66 222.35 167.294 216.787C176.592 208.988 185.06 206.854 192.754 208.549C200.416 210.237 207.199 215.701 213.202 222.855C225.304 237.277 224.472 257.988 211.21 269.113ZM4.66529 141.168C36.0537 142.503 67.1996 142.025 98.3026 141.548C115.237 141.288 132.159 141.028 149.1 141.062L149.41 141.062L149.547 141.34L164.774 172.069C164.786 172.085 164.797 172.103 164.808 172.122C164.826 172.154 164.839 172.186 164.849 172.217L172.458 187.565L172.458 187.566L174.993 192.669L174.545 192.892L174.993 192.669C177.75 198.221 175.36 204.862 169.715 207.391L169.714 207.391L169.714 207.391L169.714 207.391L169.713 207.391L169.703 207.396C169.692 207.401 169.673 207.411 169.646 207.424C169.593 207.451 169.509 207.495 169.391 207.561C169.156 207.693 168.789 207.912 168.275 208.253C167.246 208.936 165.633 210.107 163.32 212.05C147.583 225.27 148.946 247.594 163.309 264.712L163.309 264.712C177.669 281.835 199.434 287.056 215.182 273.842C230.751 260.775 232.184 236.619 218.463 219.577C198.18 194.731 180.977 168.603 165.033 141.95L164.572 141.179L165.47 141.193C197.135 141.682 228.872 143.506 260.836 148.611C269.607 149.838 277.939 147.774 285.42 144.605L285.421 144.605C287.263 143.827 289.346 142.993 291.598 142.091C299.387 138.973 309.206 135.042 318.132 129.783C329.648 122.999 339.521 114.091 341.641 102.041L341.641 102.04C341.689 101.772 341.707 101.574 341.705 101.434C341.674 101.451 341.638 101.472 341.597 101.498C341.287 101.693 340.861 102.056 340.323 102.574C339.792 103.086 339.176 103.725 338.487 104.451C338.2 104.754 337.9 105.072 337.59 105.402C334.942 108.214 331.498 111.871 328.083 114.267L328.083 114.268C320.403 119.641 315.197 120.307 311.674 118.601C308.187 116.912 306.598 113.007 305.863 109.853L305.855 109.817L305.852 109.78C305.752 108.555 305.559 107.322 305.298 106.137L305.291 106.108L305.288 106.078C305.258 105.77 305.24 105.501 305.229 105.282L305.103 105.282C301.651 91.4689 288.642 81.1152 271.687 78.1229L271.773 77.6305L271.686 78.1229C249.678 74.235 229.656 84.2194 226.089 104.459L226.089 104.459C225.559 107.445 225.351 109.451 225.275 110.704C225.237 111.33 225.231 111.768 225.235 112.045C225.237 112.183 225.241 112.282 225.245 112.343C225.246 112.357 225.246 112.369 225.247 112.379C225.248 112.392 225.249 112.402 225.249 112.409L225.25 112.422L225.25 112.422L225.25 112.422L225.25 112.422L225.25 112.423L225.25 112.423L225.251 112.435C225.272 112.703 225.264 112.994 225.256 113.245C225.253 113.35 225.25 113.448 225.25 113.535C225.258 113.624 225.262 113.725 225.25 113.841C225.12 119.39 220.867 124 215.156 124.363L157.166 128.048L156.857 128.067L156.702 127.799C148.11 112.971 139.82 98.0268 131.532 83.0847C116.413 55.8307 101.299 28.5831 84.3614 2.05359C84.3419 2.04656 84.3207 2.03893 84.298 2.03077C84.1567 1.98009 83.9542 1.90842 83.71 1.825C83.2209 1.65785 82.5686 1.4447 81.9098 1.25819C81.2456 1.07013 80.5969 0.915591 80.1074 0.857227C80.026 0.847515 79.9528 0.84096 79.8876 0.837129L132.292 106.538L131.844 106.76L132.292 106.538L143.043 128.234L143.376 128.907L142.627 128.955L119.171 130.452L119.171 130.452L1.37376 137.911C1.40924 137.965 1.45103 138.024 1.49964 138.089C1.79376 138.483 2.25176 138.966 2.7473 139.446C3.23864 139.922 3.7503 140.38 4.14038 140.719C4.33511 140.888 4.49881 141.028 4.61363 141.124C4.63214 141.14 4.64941 141.154 4.66529 141.168ZM1.21646 137.606C1.2159 137.6 1.21508 137.597 1.21479 137.596C1.21451 137.596 1.21475 137.599 1.21646 137.606ZM79.5317 0.856439C79.5313 0.856882 79.535 0.855941 79.5415 0.852953C79.535 0.854807 79.532 0.856088 79.5317 0.856439ZM150.237 132.73C151.142 131.161 153.124 130.636 154.686 131.538C156.247 132.439 156.79 134.42 155.884 135.99C154.981 137.554 152.991 138.081 151.429 137.179C149.866 136.277 149.334 134.292 150.237 132.73Z" stroke="#CEA561"/>
</svg>
