<svg width="48" height="48" viewBox="0 0 48 48" fill="none" xmlns="http://www.w3.org/2000/svg">
<g clip-path="url(#clip0_498_3362)">
<path d="M24 48C37.2548 48 48 37.2548 48 24C48 10.7452 37.2548 0 24 0C10.7452 0 0 10.7452 0 24C0 37.2548 10.7452 48 24 48Z" fill="#CEA561"/>
<path d="M33.342 30.9377L34.4051 23.9986H27.7495V19.4963C27.7495 17.5995 28.6776 15.7466 31.6612 15.7466H34.6886V9.84023C34.6886 9.84023 31.9413 9.37109 29.3155 9.37109C23.8344 9.37109 20.2501 12.6921 20.2501 18.7099V23.9986H14.1548V30.9377H20.2501V47.7083C21.4719 47.9007 22.724 47.9986 23.9998 47.9986C25.2756 47.9986 26.5277 47.8973 27.7495 47.7083V30.9377H33.342Z" fill="#151515"/>
</g>
<defs>
<clipPath id="clip0_498_3362">
<rect width="48" height="48" fill="white"/>
</clipPath>
</defs>
</svg>
