<svg width="40" height="40" viewBox="0 0 40 40" fill="none" xmlns="http://www.w3.org/2000/svg">
<path d="M13.333 29.9987H8.33301V13.332H13.333V29.9987ZM31.6663 29.9987H26.6663V21.0954C26.6663 18.7754 25.8397 17.6204 24.2013 17.6204C22.903 17.6204 22.0797 18.267 21.6663 19.562V29.9987H16.6663C16.6663 29.9987 16.733 14.9987 16.6663 13.332H20.613L20.918 16.6654H21.0213C22.0463 14.9987 23.6847 13.8687 25.9313 13.8687C27.6397 13.8687 29.0213 14.3437 30.0763 15.537C31.138 16.732 31.6663 18.3354 31.6663 20.587V29.9987Z" fill="white" fill-opacity="0.8"/>
<path d="M10.8333 13.332C12.2601 13.332 13.4167 12.2127 13.4167 10.832C13.4167 9.45132 12.2601 8.33203 10.8333 8.33203C9.4066 8.33203 8.25 9.45132 8.25 10.832C8.25 12.2127 9.4066 13.332 10.8333 13.332Z" fill="white" fill-opacity="0.8"/>
<rect x="0.5" y="0.5" width="39" height="39" rx="6.16667" stroke="white"/>
</svg>
