<svg width="24" height="24" viewBox="0 0 24 24" fill="none" xmlns="http://www.w3.org/2000/svg">
<path d="M19.4349 4.06641H4.56494C3.9019 4.06641 3.26602 4.3298 2.79717 4.79864C2.32833 5.26748 2.06494 5.90337 2.06494 6.56641V17.4364C2.06494 18.0994 2.32833 18.7353 2.79717 19.2042C3.26602 19.673 3.9019 19.9364 4.56494 19.9364H19.4349C20.098 19.9364 20.7339 19.673 21.2027 19.2042C21.6715 18.7353 21.9349 18.0994 21.9349 17.4364V6.56641C21.9349 5.90337 21.6715 5.26748 21.2027 4.79864C20.7339 4.3298 20.098 4.06641 19.4349 4.06641ZM4.56494 5.06641H19.4349C19.8135 5.06531 20.1782 5.20842 20.4549 5.46662C20.7317 5.72482 20.8998 6.07873 20.9249 6.45641C18.4549 7.77641 15.9749 9.08641 13.4949 10.4064C13.1594 10.6167 12.8045 10.7941 12.4349 10.9364C12.1448 10.9937 11.8459 10.9885 11.5579 10.9212C11.27 10.854 10.9997 10.7262 10.7649 10.5464C9.34494 9.79641 7.92494 9.03641 6.51494 8.28641C5.37494 7.68641 4.21494 7.07641 3.07494 6.46641C3.09813 6.08712 3.26526 5.731 3.54219 5.4708C3.81912 5.2106 4.18495 5.06595 4.56494 5.06641ZM20.9349 17.4364C20.9349 17.8342 20.7769 18.2158 20.4956 18.4971C20.2143 18.7784 19.8328 18.9364 19.4349 18.9364H4.56494C4.16712 18.9364 3.78559 18.7784 3.50428 18.4971C3.22298 18.2158 3.06494 17.8342 3.06494 17.4364V7.60141C5.42494 8.84141 7.77494 10.1014 10.1349 11.3514C10.5566 11.6099 11.0105 11.8117 11.4849 11.9514C12.1793 12.0643 12.891 11.9184 13.4849 11.5414C14.9349 10.7814 16.3749 10.0114 17.8249 9.25141C18.8649 8.69141 19.8949 8.15141 20.9349 7.60141V17.4364Z" fill="white" fill-opacity="0.5"/>
</svg>
