<svg width="1920" height="516" viewBox="0 0 1920 516" fill="none" xmlns="http://www.w3.org/2000/svg">
<rect width="1920" height="516" transform="matrix(-1 0 0 1 1920 0)" fill="#1B1B1B"/>
<path opacity="0.32" d="M1509.16 305.531L1509.16 305.53C1510.67 297.005 1515.67 290.842 1522.61 287.232C1529.53 283.628 1538.37 282.575 1547.61 284.198L1547.62 284.198C1556.85 285.834 1564.8 289.848 1570.08 295.604C1575.36 301.369 1577.95 308.868 1576.44 317.395C1573.44 334.446 1555.91 345.534 1537.38 342.262C1528.18 340.638 1520.06 337.493 1514.76 331.7C1509.45 325.883 1507.06 317.482 1509.16 305.531ZM1488.21 469.113L1488.21 469.113C1481.57 474.68 1473.78 476.195 1466.15 474.502C1458.52 472.813 1451.07 467.934 1445.04 460.749L1445.04 460.749C1439.01 453.56 1435.5 445.373 1435.16 437.572C1434.82 429.757 1437.66 422.35 1444.29 416.786C1453.59 408.988 1462.06 406.854 1469.75 408.549C1477.42 410.237 1484.2 415.7 1490.2 422.855C1502.3 437.277 1501.47 457.988 1488.21 469.113ZM1281.67 341.168C1313.05 342.503 1344.2 342.025 1375.3 341.548C1392.24 341.288 1409.16 341.028 1426.1 341.061L1426.41 341.062L1426.55 341.339L1441.77 372.068C1441.79 372.085 1441.8 372.102 1441.81 372.122C1441.83 372.154 1441.84 372.186 1441.85 372.217L1449.46 387.565L1449.46 387.566L1451.99 392.669L1451.54 392.891L1451.99 392.669C1454.75 398.221 1452.36 404.862 1446.71 407.391L1446.71 407.391L1446.71 407.391L1446.71 407.391L1446.71 407.391L1446.7 407.396C1446.69 407.401 1446.67 407.41 1446.65 407.424C1446.59 407.451 1446.51 407.495 1446.39 407.561C1446.16 407.693 1445.79 407.911 1445.27 408.253C1444.25 408.936 1442.63 410.107 1440.32 412.05C1424.58 425.27 1425.95 447.594 1440.31 464.712L1440.31 464.712C1454.67 481.835 1476.43 487.056 1492.18 473.841C1507.75 460.775 1509.18 436.619 1495.46 419.576C1475.18 394.73 1457.98 368.603 1442.03 341.949L1441.57 341.179L1442.47 341.193C1474.13 341.681 1505.87 343.506 1537.84 348.61C1546.61 349.838 1554.94 347.774 1562.42 344.605L1562.42 344.605C1564.26 343.827 1566.35 342.993 1568.6 342.091C1576.39 338.973 1586.21 335.042 1595.13 329.783C1606.65 322.999 1616.52 314.091 1618.64 302.041L1618.64 302.04C1618.69 301.771 1618.71 301.574 1618.71 301.434C1618.67 301.451 1618.64 301.472 1618.6 301.497C1618.29 301.692 1617.86 302.056 1617.32 302.574C1616.79 303.086 1616.18 303.725 1615.49 304.451C1615.2 304.754 1614.9 305.072 1614.59 305.402C1611.94 308.214 1608.5 311.871 1605.08 314.267L1605.08 314.267C1597.4 319.641 1592.2 320.307 1588.67 318.601C1585.19 316.912 1583.6 313.007 1582.86 309.853L1582.85 309.817L1582.85 309.78C1582.75 308.555 1582.56 307.322 1582.3 306.137L1582.29 306.108L1582.29 306.078C1582.26 305.77 1582.24 305.501 1582.23 305.282L1582.1 305.282C1578.65 291.469 1565.64 281.115 1548.69 278.123L1548.77 277.63L1548.69 278.123C1526.68 274.235 1506.66 284.219 1503.09 304.458L1503.09 304.459C1502.56 307.445 1502.35 309.451 1502.27 310.704C1502.24 311.33 1502.23 311.768 1502.24 312.045C1502.24 312.183 1502.24 312.282 1502.24 312.343C1502.25 312.357 1502.25 312.369 1502.25 312.379C1502.25 312.392 1502.25 312.401 1502.25 312.409L1502.25 312.421L1502.25 312.421L1502.25 312.422L1502.25 312.422L1502.25 312.423L1502.25 312.423L1502.25 312.435C1502.27 312.703 1502.26 312.993 1502.26 313.245C1502.25 313.35 1502.25 313.448 1502.25 313.534C1502.26 313.624 1502.26 313.725 1502.25 313.841C1502.12 319.39 1497.87 324 1492.16 324.363L1434.17 328.048L1433.86 328.067L1433.7 327.799C1425.11 312.971 1416.82 298.027 1408.53 283.085C1393.41 255.831 1378.3 228.583 1361.36 202.053C1361.34 202.046 1361.32 202.039 1361.3 202.031C1361.16 201.98 1360.95 201.908 1360.71 201.825C1360.22 201.658 1359.57 201.445 1358.91 201.258C1358.25 201.07 1357.6 200.915 1357.11 200.857C1357.03 200.847 1356.95 200.841 1356.89 200.837L1409.29 306.538L1408.84 306.76L1409.29 306.538L1420.04 328.234L1420.38 328.907L1419.63 328.955L1396.17 330.452L1396.17 330.452L1278.37 337.91C1278.41 337.964 1278.45 338.024 1278.5 338.089C1278.79 338.482 1279.25 338.966 1279.75 339.446C1280.24 339.922 1280.75 340.379 1281.14 340.719C1281.34 340.888 1281.5 341.027 1281.61 341.124C1281.63 341.14 1281.65 341.154 1281.67 341.168ZM1278.22 337.606C1278.22 337.6 1278.22 337.596 1278.21 337.596C1278.21 337.596 1278.21 337.599 1278.22 337.606ZM1356.53 200.856C1356.53 200.857 1356.53 200.856 1356.54 200.853C1356.54 200.855 1356.53 200.856 1356.53 200.856ZM1427.24 332.729C1428.14 331.161 1430.12 330.635 1431.69 331.537C1433.25 332.439 1433.79 334.42 1432.88 335.99C1431.98 337.554 1429.99 338.081 1428.43 337.179C1426.87 336.277 1426.33 334.292 1427.24 332.729Z" stroke="#CEA561"/>
<path opacity="0.3" d="M450.643 476.591L450.641 476.589C416.114 449.184 385.27 419.992 354.553 384.399L354.197 383.987L354.639 383.667C355.394 383.121 356.13 382.586 356.844 382.067C358.549 380.827 360.13 379.677 361.559 378.675L361.561 378.674C364.07 376.928 369.526 373.317 374.348 370.147C376.76 368.561 379.016 367.083 380.668 366.003C381.495 365.462 382.17 365.021 382.639 364.715L383.181 364.362L383.322 364.269L383.359 364.246L383.368 364.24L383.37 364.238L383.371 364.238C383.371 364.238 383.371 364.238 383.644 364.657L383.371 364.238L383.598 364.09L383.846 364.199L393.718 368.556L465.563 323.879C464.996 318.815 463.891 314.607 462.083 311.499C460.282 308.403 457.788 306.402 454.404 305.714L382.37 350.508C382.327 350.595 382.262 350.719 382.174 350.873C381.994 351.185 381.715 351.623 381.312 352.145C380.506 353.19 379.203 354.566 377.203 355.929L377.202 355.93C376.371 356.492 373.912 358.071 370.575 360.214C369.048 361.194 367.338 362.292 365.516 363.464C359.702 367.206 352.734 371.717 346.906 375.612L346.652 375.782L346.385 375.634C343.482 374.019 339.777 374.294 337.178 376.622L337.177 376.623C334.595 378.932 333.896 382.517 335.13 385.556L335.175 385.666L335.166 385.785C335.033 387.416 333.952 389.038 332.039 390.515C330.118 391.996 327.302 393.376 323.56 394.518C320.246 395.532 316.089 395.917 312.9 396.213C312.526 396.247 312.166 396.281 311.821 396.314C310.995 396.393 310.265 396.47 309.661 396.556C309.087 396.637 308.658 396.723 308.379 396.816C308.455 396.866 308.552 396.923 308.672 396.987L308.672 396.987C318.26 402.079 329.249 398.93 339.37 393.508L339.78 393.288L340.029 393.681C363.75 431.127 391.976 464.647 425.729 502.283L425.736 502.29L425.742 502.297C425.904 502.492 426.202 502.799 426.472 503.07C426.605 503.203 426.727 503.322 426.816 503.409C426.86 503.452 426.896 503.486 426.921 503.51L426.949 503.538L426.955 503.544C433.678 509.72 444.12 509.895 451.052 503.677L451.053 503.677C458.434 497.069 459.059 485.716 452.436 478.343L452.433 478.34C452.159 478.03 451.713 477.593 451.325 477.225C451.133 477.042 450.958 476.881 450.832 476.764C450.769 476.706 450.718 476.66 450.683 476.627L450.643 476.591ZM345.711 380.706C347.819 381.923 348.532 384.631 347.312 386.744C346.1 388.843 343.398 389.578 341.292 388.362C339.176 387.14 338.46 384.434 339.673 382.333C340.893 380.22 343.595 379.484 345.711 380.706Z" stroke="#CEA561"/>
<path opacity="0.4" d="M954.118 394.754L954.248 394.271L954.73 394.401L1007.84 408.63L1008.32 408.76L1008.19 409.243L1007.91 410.293L1007.79 410.733L1007.34 410.657C989.123 407.565 971.384 402.842 954.145 396.403L953.719 396.244L953.837 395.805L954.118 394.754ZM1000.32 434.765L1000.41 434.429L1000.75 434.397L1004.6 434.037L1008.91 417.969L1013.18 402.043L1007.39 400.493L1006.01 405.665L1005.88 406.148L1005.39 406.019L1003.14 405.415L1002.66 405.286L1002.79 404.803L1004.18 399.631L1002.9 399.289L1001.51 404.461L1001.38 404.944L1000.9 404.814L998.648 404.211L998.165 404.081L998.294 403.598L999.68 398.426L998.396 398.082L997.01 403.254L996.88 403.737L996.397 403.608L994.147 403.005L993.664 402.875L993.794 402.392L995.179 397.22L993.893 396.876L992.508 402.048L992.378 402.531L991.895 402.401L989.648 401.799L989.165 401.67L989.295 401.187L990.681 396.015L989.395 395.67L988.009 400.842L987.879 401.325L987.396 401.196L985.146 400.593L984.663 400.464L984.793 399.981L986.179 394.809L984.9 394.466L983.514 399.638L983.384 400.121L982.901 399.992L980.651 399.389L980.168 399.259L980.298 398.776L981.684 393.604L980.397 393.26L979.012 398.432L978.882 398.915L978.399 398.785L976.149 398.182L975.666 398.053L975.795 397.57L977.181 392.398L975.899 392.054L974.513 397.226L974.383 397.709L973.9 397.58L971.65 396.977L971.167 396.847L971.297 396.364L972.683 391.192L971.402 390.849L970.016 396.021L969.886 396.504L969.403 396.375L967.148 395.77L966.665 395.641L966.794 395.158L968.18 389.986L966.903 389.644L965.517 394.816L965.388 395.299L964.905 395.169L962.653 394.566L962.17 394.437L962.299 393.954L963.685 388.782L962.401 388.437L961.015 393.609L960.886 394.092L960.403 393.963L958.154 393.361L957.671 393.231L957.801 392.748L959.187 387.576L953.4 386.026L949.133 401.952L944.827 418.02L947.982 420.257L948.266 420.458L948.176 420.794L948.17 420.817L948.164 420.84L948.158 420.863L948.152 420.886L948.145 420.908L948.139 420.931L948.133 420.954L948.127 420.977L948.121 421L948.115 421.022L948.109 421.045L948.103 421.068L948.096 421.091L948.09 421.114L948.084 421.137L948.078 421.16L948.072 421.183L948.066 421.205L948.06 421.228L948.054 421.251L948.047 421.274L948.041 421.297L948.035 421.32L948.029 421.343L948.023 421.366L948.017 421.389L948.011 421.412L948.004 421.434L947.998 421.457L947.992 421.48L947.986 421.503L947.98 421.526L947.974 421.549L947.968 421.572L947.961 421.595L947.955 421.618L947.949 421.641L947.943 421.664L947.937 421.687L947.931 421.71L947.924 421.733L947.918 421.756L947.912 421.779L947.906 421.802L947.9 421.825L947.894 421.848L947.887 421.871L947.881 421.894L947.875 421.917L947.869 421.94L947.863 421.963L947.857 421.986L947.85 422.009L947.844 422.032L947.838 422.055L947.832 422.079L947.826 422.102L947.82 422.125L947.813 422.148L947.807 422.171L947.801 422.194L947.795 422.217L947.789 422.24L947.782 422.263L947.776 422.286L947.77 422.309L947.764 422.332L947.758 422.356L947.751 422.379L947.745 422.402L947.739 422.425L947.733 422.448L947.727 422.471L947.72 422.494L947.714 422.518L947.708 422.541L947.702 422.564L947.696 422.587L947.689 422.61L947.683 422.633L947.677 422.657L947.671 422.68L947.665 422.703L947.658 422.726L947.652 422.749L947.646 422.772L947.64 422.796L947.634 422.819L947.627 422.842L947.621 422.865L947.615 422.888L947.609 422.912L947.602 422.935L947.596 422.958L947.59 422.981L947.584 423.005L947.578 423.028L947.571 423.051L947.565 423.074L947.559 423.098L947.553 423.121L947.546 423.144L947.54 423.167L947.534 423.191L947.528 423.214L947.521 423.237L947.515 423.26L947.509 423.284L947.503 423.307L947.496 423.33L947.49 423.354L947.484 423.377L947.478 423.4L947.472 423.424L947.465 423.447L947.459 423.47L947.453 423.493L947.447 423.517L947.44 423.54L947.434 423.563L947.428 423.587L947.422 423.61L947.415 423.633L947.409 423.657L947.403 423.68L947.396 423.703L947.39 423.727L947.384 423.75L947.378 423.774L947.371 423.797L947.365 423.82L947.359 423.844L947.353 423.867L947.346 423.89L947.34 423.914L947.334 423.937L947.328 423.961L947.321 423.984L947.315 424.007L947.309 424.031L947.303 424.054L947.296 424.078L947.29 424.101L947.284 424.124L947.277 424.148L947.271 424.171L947.265 424.195L947.259 424.218L947.252 424.242L947.246 424.265L947.24 424.288L947.233 424.312L947.227 424.335L947.221 424.359L947.215 424.382L947.208 424.406L947.202 424.429L947.196 424.453L947.189 424.476L947.183 424.499L947.177 424.523L947.171 424.546L947.164 424.57L947.158 424.593L947.152 424.617L947.145 424.64L947.139 424.664L947.133 424.687L947.127 424.711L947.12 424.734L947.114 424.758L947.108 424.781L947.101 424.805L947.095 424.828L947.089 424.852L947.082 424.875L947.076 424.899L947.07 424.922L947.064 424.946L947.057 424.97L947.051 424.993L947.045 425.017L947.038 425.04L947.032 425.064L947.026 425.087L947.019 425.111L947.013 425.134L947.007 425.158L947 425.181L946.994 425.205L946.988 425.229L946.982 425.252L946.975 425.276L946.969 425.299L946.963 425.323L946.956 425.346L946.95 425.37L946.944 425.394L946.937 425.417L946.931 425.441L946.925 425.464L946.918 425.488L946.912 425.512L946.906 425.535L946.899 425.559L946.893 425.582L946.887 425.606L946.88 425.63L946.874 425.653L946.868 425.677L946.861 425.7L946.855 425.724L946.849 425.748L946.842 425.771L946.836 425.795L946.83 425.818L946.823 425.842L946.817 425.866L946.811 425.889L946.804 425.913L946.798 425.937L946.792 425.96L946.785 425.984L946.779 426.008L946.773 426.031L946.766 426.055L946.76 426.079L946.754 426.102L946.747 426.126L946.741 426.15L946.735 426.173L946.728 426.197L946.722 426.221L946.716 426.244L946.709 426.268L946.703 426.292L946.697 426.315L946.69 426.339L946.684 426.363L946.678 426.386L946.671 426.41L946.665 426.434L946.659 426.457L946.652 426.481L946.646 426.505L946.64 426.529L946.633 426.552L946.627 426.576L946.62 426.6L946.614 426.623L946.608 426.647L946.601 426.671L946.595 426.694L946.589 426.718L946.582 426.742L946.576 426.766L946.57 426.789L946.563 426.813L946.557 426.837L946.551 426.861L946.544 426.884L946.538 426.908L946.531 426.932L946.525 426.955L946.519 426.979L946.512 427.003L946.506 427.027L946.5 427.05L946.493 427.074L946.487 427.098L946.481 427.122L946.474 427.145L946.468 427.169L946.461 427.193L946.455 427.217L946.449 427.24L946.442 427.264L946.436 427.288L946.43 427.312L946.423 427.336L946.417 427.359L946.411 427.383L946.404 427.407L946.398 427.431L946.391 427.454L946.385 427.478L946.379 427.502L946.372 427.526L946.366 427.549L946.36 427.573L946.353 427.597L946.347 427.621L946.34 427.645L946.334 427.668L946.328 427.692L946.321 427.716L946.315 427.74L946.309 427.764L946.302 427.787L946.296 427.811L946.289 427.835L946.283 427.859L946.277 427.883L946.27 427.906L946.264 427.93L946.258 427.954L946.251 427.978L946.245 428.002L946.238 428.025L946.232 428.049L946.226 428.073L946.219 428.097L946.213 428.121L946.207 428.145L946.2 428.168L946.194 428.192L946.187 428.216L946.181 428.24L946.175 428.264L946.168 428.287L946.162 428.311L946.155 428.335L946.149 428.359L946.143 428.383L946.136 428.407L946.13 428.43L946.124 428.454L946.117 428.478L946.111 428.502L946.104 428.526L946.098 428.55L946.092 428.573L946.085 428.597L946.079 428.621L946.072 428.645L946.066 428.669L946.06 428.693L946.053 428.717L946.047 428.74L946.04 428.764L946.034 428.788L946.028 428.812L946.021 428.836L946.015 428.86L946.009 428.883L946.002 428.907L945.996 428.931L945.989 428.955L945.983 428.979L945.977 429.003L945.97 429.027L945.964 429.05L945.957 429.074L945.951 429.098L945.945 429.122L945.938 429.146L945.932 429.17L945.925 429.194L945.919 429.217L945.913 429.241L945.906 429.265L945.9 429.289L945.893 429.313L945.887 429.337L945.881 429.361L945.874 429.385L945.868 429.408L945.861 429.432L945.855 429.456L945.849 429.48L945.842 429.504L945.836 429.528L945.829 429.552L945.823 429.576L945.817 429.599L945.81 429.623L945.804 429.647L945.797 429.671L945.791 429.695L945.785 429.719L945.778 429.743L945.772 429.767L945.765 429.79L945.759 429.814L945.753 429.838L945.746 429.862L945.74 429.886L945.733 429.91L945.727 429.934L945.721 429.958L945.714 429.981L945.708 430.005L945.702 430.029L945.695 430.053L945.689 430.077L945.682 430.101L945.676 430.125L945.67 430.149L945.663 430.173L945.657 430.196L945.65 430.22L945.644 430.244L945.638 430.268L945.631 430.292L945.625 430.316L945.618 430.34L945.612 430.364L945.606 430.388L945.599 430.411L945.593 430.435L945.586 430.459L945.58 430.483L945.574 430.507L945.567 430.531L945.561 430.555L945.554 430.579L945.548 430.602L945.542 430.626L945.535 430.65L945.529 430.674L945.522 430.698L945.516 430.722L945.509 430.746L945.503 430.77L945.497 430.794L945.49 430.817L945.484 430.841L945.477 430.865L945.471 430.889L945.465 430.913L945.458 430.937L945.452 430.961L945.445 430.985L945.439 431.009L945.433 431.032L945.426 431.056L945.42 431.08L945.413 431.104L945.407 431.128L945.401 431.152L945.394 431.176L945.388 431.2L945.381 431.224L945.375 431.247L945.369 431.271L945.362 431.295L945.356 431.319L945.35 431.343L945.343 431.367L945.337 431.391L945.33 431.415L945.324 431.438L945.318 431.462L945.311 431.486L945.305 431.51L945.298 431.534L945.292 431.558L945.286 431.582L945.279 431.606L945.273 431.629L945.266 431.653L945.26 431.677L945.254 431.701L945.247 431.725L945.241 431.749L945.234 431.773L945.228 431.797L945.222 431.82L945.215 431.844L945.209 431.868L945.202 431.892L945.196 431.916L945.19 431.94L945.183 431.964L945.177 431.988L945.17 432.011L945.164 432.035L945.158 432.059L945.151 432.083L945.145 432.107L945.138 432.131L945.132 432.155L945.126 432.178L945.119 432.202L945.113 432.226L945.106 432.25L945.1 432.274L945.094 432.298L945.087 432.322L945.081 432.345L945.074 432.369L945.068 432.393L945.062 432.417L945.055 432.441L945.049 432.465L945.043 432.489L945.036 432.512L945.03 432.536L945.023 432.56L945.017 432.584L945.011 432.608L945.004 432.632L944.998 432.655L944.991 432.679L944.985 432.703L944.979 432.727L944.972 432.751L944.966 432.775L944.959 432.799L944.953 432.822L944.947 432.846L944.94 432.87L944.811 433.353L944.328 433.224L941.914 432.577L935.086 430.747L927.506 459.037L933.85 460.737L938.805 442.247L938.934 441.764L939.417 441.893L941.832 442.54L942.315 442.67L942.185 443.153L942.178 443.181L942.17 443.209L942.162 443.238L942.155 443.266L942.147 443.294L942.14 443.323L942.132 443.351L942.124 443.379L942.117 443.408L942.109 443.436L942.102 443.464L942.094 443.493L942.086 443.521L942.079 443.549L942.071 443.577L942.064 443.605L942.056 443.634L942.049 443.662L942.041 443.69L942.034 443.718L942.026 443.746L942.018 443.775L942.011 443.803L942.003 443.831L941.996 443.859L941.988 443.887L941.981 443.915L941.973 443.943L941.966 443.971L941.958 443.999L941.951 444.027L941.943 444.055L941.936 444.083L941.928 444.111L941.921 444.139L941.913 444.167L941.906 444.195L941.898 444.223L941.891 444.251L941.883 444.279L941.876 444.307L941.868 444.335L941.861 444.363L941.853 444.391L941.846 444.418L941.838 444.446L941.831 444.474L941.824 444.502L941.816 444.53L941.809 444.558L941.801 444.585L941.794 444.613L941.786 444.641L941.779 444.669L941.771 444.696L941.764 444.724L941.757 444.752L941.749 444.779L941.742 444.807L941.734 444.835L941.727 444.862L941.72 444.89L941.712 444.918L941.705 444.945L941.697 444.973L941.69 445L941.683 445.028L941.675 445.055L941.668 445.083L941.66 445.111L941.653 445.138L941.646 445.166L941.638 445.193L941.631 445.22L941.624 445.248L941.616 445.275L941.609 445.303L941.602 445.33L941.594 445.358L941.587 445.385L941.58 445.412L941.572 445.44L941.565 445.467L941.558 445.494L941.55 445.522L941.543 445.549L941.536 445.576L941.528 445.604L941.521 445.631L941.514 445.658L941.506 445.685L941.499 445.713L941.492 445.74L941.485 445.767L941.477 445.794L941.47 445.821L941.463 445.848L941.455 445.876L941.448 445.903L941.441 445.93L941.434 445.957L941.426 445.984L941.419 446.011L941.412 446.038L941.405 446.065L941.397 446.092L941.39 446.119L941.383 446.146L941.376 446.173L941.369 446.2L941.361 446.227L941.354 446.254L941.347 446.281L941.34 446.308L941.332 446.335L941.325 446.361L941.318 446.388L941.311 446.415L941.304 446.442L941.297 446.469L941.289 446.496L941.282 446.522L941.275 446.549L941.268 446.576L941.261 446.603L941.254 446.629L941.246 446.656L941.239 446.683L941.232 446.709L941.225 446.736L941.218 446.763L941.211 446.789L941.204 446.816L941.196 446.843L941.189 446.869L941.182 446.896L941.175 446.922L941.168 446.949L941.161 446.975L941.154 447.002L941.147 447.028L941.14 447.055L941.132 447.081L941.125 447.108L941.118 447.134L941.111 447.161L941.104 447.187L941.097 447.213L941.09 447.24L941.083 447.266L941.076 447.292L941.069 447.319L941.062 447.345L941.055 447.371L941.048 447.398L941.041 447.424L941.034 447.45L941.027 447.476L941.02 447.502L941.013 447.529L941.006 447.555L940.999 447.581L940.992 447.607L940.985 447.633L940.978 447.659L940.971 447.685L940.964 447.712L940.957 447.738L940.95 447.764L940.943 447.79L940.936 447.816L940.929 447.842L940.922 447.868L940.915 447.894L940.908 447.92L940.901 447.946L940.894 447.971L940.887 447.997L940.88 448.023L940.873 448.049L940.866 448.075L940.859 448.101L940.852 448.127L940.845 448.152L940.839 448.178L940.832 448.204L940.825 448.23L940.818 448.255L940.811 448.281L940.804 448.307L940.797 448.332L940.79 448.358L940.783 448.384L940.777 448.409L940.77 448.435L940.763 448.461L940.756 448.486L940.749 448.512L940.742 448.537L940.735 448.563L940.729 448.588L940.722 448.614L940.715 448.639L940.708 448.665L940.701 448.69L940.695 448.716L940.688 448.741L940.681 448.766L940.674 448.792L940.667 448.817L940.661 448.842L940.654 448.868L940.647 448.893L940.64 448.918L940.633 448.944L940.627 448.969L940.62 448.994L940.613 449.019L940.606 449.044L940.6 449.07L940.593 449.095L940.586 449.12L940.579 449.145L940.573 449.17L940.566 449.195L940.559 449.22L940.553 449.245L940.546 449.27L940.539 449.295L940.532 449.32L940.526 449.345L940.519 449.37L940.512 449.395L940.506 449.42L940.499 449.445L940.492 449.47L940.486 449.495L940.479 449.52L940.472 449.545L940.466 449.569L940.459 449.594L940.452 449.619L940.446 449.644L940.439 449.668L940.433 449.693L940.426 449.718L940.419 449.743L940.413 449.767L940.406 449.792L940.4 449.816L940.393 449.841L940.386 449.866L940.38 449.89L940.373 449.915L940.367 449.939L940.36 449.964L940.353 449.988L940.347 450.013L940.34 450.037L940.334 450.062L940.327 450.086L940.321 450.111L940.314 450.135L940.308 450.159L940.301 450.184L940.295 450.208L940.288 450.232L940.282 450.257L940.275 450.281L940.269 450.305L940.262 450.329L940.256 450.354L940.249 450.378L940.243 450.402L940.236 450.426L940.23 450.45L940.223 450.474L940.217 450.498L940.21 450.523L940.204 450.547L940.197 450.571L940.191 450.595L940.185 450.619L940.178 450.643L940.172 450.667L940.165 450.691L940.159 450.714L940.153 450.738L940.146 450.762L940.14 450.786L940.133 450.81L940.127 450.834L940.121 450.858L940.114 450.881L940.108 450.905L940.101 450.929L940.095 450.953L940.089 450.976L940.082 451L940.076 451.024L940.07 451.047L940.063 451.071L940.057 451.095L940.051 451.118L940.044 451.142L940.038 451.165L940.032 451.189L940.026 451.212L940.019 451.236L940.013 451.259L940.007 451.283L940 451.306L939.994 451.33L939.988 451.353L939.982 451.376L939.975 451.4L939.969 451.423L939.963 451.446L939.957 451.47L939.95 451.493L939.944 451.516L939.938 451.539L939.932 451.562L939.925 451.586L939.919 451.609L939.913 451.632L939.907 451.655L939.901 451.678L939.895 451.701L939.888 451.724L939.882 451.747L939.876 451.77L939.87 451.793L939.864 451.816L939.858 451.839L939.851 451.862L939.845 451.885L939.839 451.908L939.833 451.931L939.827 451.954L939.821 451.977L939.815 451.999L939.809 452.022L939.802 452.045L939.796 452.068L939.79 452.09L939.784 452.113L939.778 452.136L939.772 452.158L939.766 452.181L939.76 452.204L939.754 452.226L939.748 452.249L939.742 452.271L939.736 452.294L939.73 452.316L939.724 452.339L939.718 452.361L939.712 452.384L939.706 452.406L939.7 452.429L939.694 452.451L939.688 452.473L939.682 452.496L939.676 452.518L939.67 452.54L939.664 452.562L939.658 452.585L939.652 452.607L939.646 452.629L939.64 452.651L939.634 452.673L939.628 452.696L939.622 452.718L939.616 452.74L939.61 452.762L939.604 452.784L939.599 452.806L939.593 452.828L939.587 452.85L939.581 452.872L939.575 452.894L939.569 452.916L939.563 452.938L939.557 452.96L939.552 452.981L939.546 453.003L939.54 453.025L939.534 453.047L939.528 453.069L939.522 453.09L939.517 453.112L939.511 453.134L939.505 453.155L939.499 453.177L939.493 453.199L939.488 453.22L939.482 453.242L939.476 453.263L939.47 453.285L939.464 453.306L939.459 453.328L939.453 453.349L939.447 453.371L939.441 453.392L939.436 453.414L939.43 453.435L939.424 453.456L939.419 453.478L939.413 453.499L939.407 453.52L939.401 453.541L939.396 453.563L939.39 453.584L939.384 453.605L939.379 453.626L939.373 453.647L939.367 453.668L939.362 453.69L939.356 453.711L939.35 453.732L939.345 453.753L939.339 453.774L939.334 453.795L939.328 453.816L939.322 453.837L939.317 453.858L939.311 453.878L939.306 453.899L939.3 453.92L939.294 453.941L939.289 453.962L939.283 453.982L939.278 454.003L939.272 454.024L939.267 454.045L939.261 454.065L939.256 454.086L939.25 454.107L939.244 454.127L939.239 454.148L939.233 454.168L939.228 454.189L939.222 454.209L939.217 454.23L939.212 454.25L939.206 454.271L939.201 454.291L939.195 454.311L939.19 454.332L939.184 454.352L939.179 454.372L939.173 454.393L939.168 454.413L939.162 454.433L939.157 454.453L939.152 454.474L939.146 454.494L939.141 454.514L939.135 454.534L939.13 454.554L939.125 454.574L939.119 454.594L939.114 454.614L939.109 454.634L939.103 454.654L939.098 454.674L939.093 454.694L939.087 454.714L939.082 454.734L939.077 454.754L939.071 454.774L939.066 454.793L939.061 454.813L939.055 454.833L939.05 454.853L939.045 454.872L939.04 454.892L939.034 454.912L939.029 454.931L939.024 454.951L939.019 454.97L939.013 454.99L939.008 455.01L939.003 455.029L938.998 455.048L938.992 455.068L938.987 455.087L938.982 455.107L938.977 455.126L938.972 455.145L938.966 455.165L938.961 455.184L938.956 455.203L938.951 455.223L938.946 455.242L938.941 455.261L938.936 455.28L938.93 455.299L938.925 455.318L938.92 455.338L938.915 455.357L938.91 455.376L938.905 455.395L938.9 455.414L938.895 455.433L938.89 455.452L938.885 455.47L938.879 455.489L938.874 455.508L938.869 455.527L938.864 455.546C936.091 465.898 932.785 487.216 930.171 505.979C928.864 515.353 927.732 524.079 926.926 530.462C926.523 533.653 926.202 536.258 925.981 538.065C925.871 538.969 925.786 539.673 925.729 540.151L925.663 540.695L925.656 540.759C925.666 540.782 925.678 540.809 925.693 540.841C925.754 540.969 925.86 541.167 926.034 541.422C926.383 541.933 927.007 542.678 928.092 543.553C930.263 545.305 934.28 547.582 941.62 549.549C948.957 551.515 953.575 551.552 956.333 551.121C957.711 550.905 958.625 550.572 959.184 550.305C959.463 550.17 959.654 550.052 959.771 549.972C959.8 549.952 959.824 549.934 959.844 549.919L959.869 549.861L960.085 549.357C960.274 548.914 960.553 548.261 960.909 547.424C961.621 545.748 962.645 543.332 963.891 540.366C966.384 534.436 969.765 526.313 973.32 517.541C980.435 499.984 988.23 479.868 991.004 469.517L991.016 469.471L991.028 469.425L991.041 469.378L991.053 469.332L991.066 469.285L991.078 469.239L991.091 469.192L991.103 469.145L991.116 469.098L991.129 469.051L991.141 469.003L991.154 468.956L991.167 468.908L991.18 468.86L991.193 468.812L991.205 468.764L991.218 468.715L991.231 468.667L991.244 468.618L991.257 468.569L991.271 468.521L991.284 468.471L991.297 468.422L991.31 468.373L991.323 468.323L991.337 468.274L991.35 468.224L991.363 468.174L991.377 468.124L991.39 468.074L991.404 468.023L991.417 467.973L991.431 467.922L991.445 467.871L991.458 467.82L991.472 467.769L991.486 467.718L991.499 467.667L991.513 467.615L991.527 467.564L991.541 467.512L991.555 467.46L991.569 467.408L991.583 467.356L991.597 467.303L991.611 467.251L991.625 467.198L991.639 467.146L991.653 467.093L991.667 467.04L991.682 466.986L991.696 466.933L991.71 466.88L991.725 466.826L991.739 466.773L991.753 466.719L991.768 466.665L991.782 466.611L991.797 466.556L991.811 466.502L991.826 466.448L991.841 466.393L991.855 466.338L991.87 466.283L991.885 466.228L991.9 466.173L991.914 466.118L991.929 466.063L991.944 466.007L991.959 465.952L991.974 465.896L991.989 465.84L992.004 465.784L992.019 465.728L992.034 465.672L992.049 465.615L992.064 465.559L992.079 465.502L992.095 465.445L992.11 465.388L992.125 465.331L992.14 465.274L992.156 465.217L992.171 465.16L992.187 465.102L992.202 465.045L992.217 464.987L992.233 464.929L992.248 464.871L992.264 464.813L992.28 464.755L992.295 464.696L992.311 464.638L992.327 464.579L992.342 464.521L992.358 464.462L992.374 464.403L992.39 464.344L992.406 464.285L992.421 464.225L992.437 464.166L992.453 464.107L992.469 464.047L992.485 463.987L992.501 463.927L992.517 463.868L992.533 463.807L992.55 463.747L992.566 463.687L992.582 463.627L992.598 463.566L992.614 463.506L992.631 463.445L992.647 463.384L992.663 463.323L992.68 463.262L992.696 463.201L992.712 463.14L992.729 463.078L992.745 463.017L992.762 462.955L992.778 462.893L992.795 462.832L992.812 462.77L992.828 462.708L992.845 462.646L992.861 462.583L992.878 462.521L992.895 462.459L992.912 462.396L992.928 462.334L992.945 462.271L992.962 462.208L992.979 462.145L992.996 462.082L993.013 462.019L993.03 461.956L993.047 461.892L993.064 461.829L993.081 461.765L993.098 461.702L993.115 461.638L993.132 461.574L993.149 461.51L993.166 461.446L993.183 461.382L993.201 461.318L993.218 461.254L993.235 461.189L993.252 461.125L993.27 461.06L993.287 460.995L993.304 460.931L993.322 460.866L993.339 460.801L993.357 460.736L993.374 460.671L993.391 460.605L993.409 460.54L993.427 460.475L993.444 460.409L993.462 460.343L993.479 460.278L993.497 460.212L993.515 460.146L993.532 460.08L993.55 460.014L993.568 459.948L993.585 459.882L993.603 459.815L993.621 459.749L993.639 459.683L993.657 459.616L993.674 459.549L993.692 459.483L993.71 459.416L993.728 459.349L993.746 459.282L993.764 459.215L993.782 459.148L993.8 459.08L993.818 459.013L993.836 458.946L993.854 458.878L993.872 458.811L993.89 458.743L993.909 458.675L993.927 458.607L993.945 458.54L993.963 458.472L993.981 458.404L994 458.335L994.018 458.267L994.036 458.199L994.055 458.131L994.073 458.062L994.091 457.994L994.11 457.925L994.128 457.856L994.146 457.788L994.165 457.719L994.183 457.65L994.202 457.581L994.22 457.512L994.239 457.443L994.257 457.374L994.276 457.305L994.294 457.235L994.313 457.166L994.332 457.096L994.35 457.027L994.369 456.957L994.388 456.888L994.406 456.818L994.425 456.748L994.444 456.678L994.462 456.608L994.481 456.538L994.5 456.468L994.519 456.398L994.538 456.328L994.556 456.258L994.575 456.187L994.594 456.117L994.613 456.046L994.632 455.976L994.651 455.905L994.67 455.835L994.689 455.764L994.708 455.693L994.727 455.622L994.746 455.551L994.765 455.481L994.784 455.41L994.803 455.338L994.822 455.267L994.841 455.196L994.86 455.125L994.879 455.053L994.898 454.982L994.917 454.911L994.937 454.839L994.956 454.768L994.975 454.696L994.994 454.624L995.013 454.553L995.033 454.481L995.052 454.409L995.071 454.337L995.09 454.265L995.11 454.193L995.129 454.121L995.148 454.049L995.168 453.977L995.187 453.905L995.206 453.832L995.226 453.76L995.245 453.688L995.264 453.615L995.284 453.543L995.303 453.47L995.323 453.398L995.342 453.325L995.362 453.252L995.381 453.18L995.401 453.107L995.42 453.034L995.44 452.961L995.459 452.888L995.479 452.815L995.498 452.742L995.518 452.669L995.537 452.596L995.557 452.523L995.577 452.45L995.596 452.377L995.616 452.304L995.636 452.23L995.655 452.157L995.675 452.084L995.695 452.01L995.714 451.937L995.734 451.863L995.754 451.79L995.773 451.716L995.793 451.642L995.813 451.569L995.833 451.495L995.852 451.421L995.872 451.347L995.892 451.274L995.912 451.2L995.932 451.126L995.951 451.052L995.971 450.978L995.991 450.904L996.011 450.83L996.031 450.756L996.051 450.682L996.07 450.607L996.09 450.533L996.11 450.459L996.13 450.385L996.15 450.31L996.17 450.236L996.19 450.162L996.21 450.087L996.23 450.013L996.25 449.939L996.27 449.864L996.29 449.79L996.309 449.715L996.329 449.641L996.349 449.566L996.369 449.491L996.389 449.417L996.409 449.342L996.429 449.267L996.45 449.193L996.47 449.118L996.49 449.043L996.51 448.968L996.53 448.893L996.55 448.819L996.57 448.744L996.59 448.669L996.61 448.594L996.63 448.519L996.65 448.444L996.67 448.369L996.69 448.294L996.71 448.219L996.731 448.144L996.751 448.069L996.771 447.994L996.791 447.919L996.811 447.843L996.831 447.768L996.851 447.693L996.871 447.618L996.892 447.543L996.912 447.468L996.932 447.392L996.952 447.317L996.972 447.242L996.992 447.166L997.013 447.091L997.033 447.016L997.053 446.94L997.073 446.865L997.093 446.79L997.114 446.714L997.134 446.639L997.154 446.564L997.174 446.488L997.194 446.413L997.215 446.337L997.235 446.262L997.255 446.186L997.275 446.111L997.295 446.035L997.316 445.96L997.336 445.885L997.356 445.809L997.376 445.733L997.397 445.658L997.417 445.582L997.437 445.507L997.457 445.431L997.478 445.356L997.498 445.28L997.518 445.205L997.538 445.129L997.559 445.054L997.579 444.978L997.599 444.902L997.619 444.827L997.64 444.751L997.66 444.676L997.68 444.6L997.7 444.525L997.721 444.449L997.741 444.373L997.761 444.298L997.781 444.222L997.802 444.147L997.822 444.071L997.842 443.995L997.862 443.92L997.883 443.844L997.903 443.769L997.923 443.693L997.943 443.618L997.964 443.542L997.984 443.466L998.004 443.391L998.024 443.315L998.045 443.24L998.065 443.164L998.085 443.089L998.105 443.013L998.125 442.938L998.146 442.862L998.166 442.787L998.186 442.711L998.206 442.636L998.227 442.56L998.247 442.485L998.267 442.409L998.287 442.334L998.308 442.258L998.328 442.183L998.348 442.108L998.368 442.032L998.388 441.957L998.409 441.881L998.429 441.806L998.449 441.731L998.469 441.655L998.489 441.58L998.509 441.505L998.53 441.429L998.55 441.354L998.57 441.279L998.59 441.204L998.61 441.128L998.63 441.053L998.651 440.978L998.671 440.903L998.691 440.828L998.711 440.752L998.731 440.677L998.751 440.602L998.771 440.527L998.792 440.452L998.812 440.377L998.832 440.302L998.852 440.227L998.872 440.152L998.892 440.077L998.912 440.002L998.932 439.927L998.952 439.852L998.972 439.777L998.992 439.703L999.012 439.628L999.032 439.553L999.052 439.478L999.072 439.403L999.093 439.329L999.113 439.254L999.133 439.179L999.153 439.105L999.173 439.03L999.192 438.956L999.212 438.881L999.232 438.807L999.252 438.732L999.272 438.658L999.292 438.583L999.312 438.509L999.332 438.434L999.352 438.36L999.372 438.286L999.392 438.212L999.412 438.137L999.432 438.063L999.452 437.989L999.471 437.915L999.491 437.841L999.511 437.767L999.531 437.693L999.551 437.619L999.571 437.545L999.59 437.471L999.61 437.397L999.63 437.323L999.65 437.249L999.669 437.175L999.689 437.102L999.709 437.028L999.729 436.954L999.748 436.881L999.768 436.807L999.788 436.734L999.808 436.66L999.827 436.587L999.847 436.513L999.867 436.44L999.886 436.367L999.906 436.293L999.925 436.22L999.945 436.147L999.965 436.074L999.984 436.001L1000 435.928L1000.02 435.855L1000.04 435.782L1000.06 435.709L1000.08 435.636L1000.1 435.563L1000.12 435.49L1000.14 435.417L1000.16 435.345L1000.18 435.272L1000.2 435.199L1000.22 435.127L1000.24 435.054L1000.26 434.982L1000.28 434.91L1000.3 434.837L1000.32 434.765ZM959.915 549.863L959.915 549.864C959.916 549.862 959.917 549.862 959.917 549.862L959.915 549.863Z" stroke="#CEA561"/>
<path opacity="0.2" d="M553.666 169.299L553.662 169.303C553.658 169.307 553.651 169.314 553.641 169.323C553.638 169.326 553.635 169.328 553.632 169.331C553.602 169.359 553.553 169.403 553.482 169.464C553.339 169.586 553.107 169.775 552.76 170.031C552.066 170.542 550.913 171.322 549.098 172.375C536.868 179.426 522.764 173.346 515.074 160.027C509.15 149.767 508.886 138.344 514.638 130.434L514.939 130.02C514.945 130.014 514.951 130.009 514.957 130.003L514.98 129.979L515.001 129.952C515.505 129.291 516.065 128.663 516.674 128.047L516.698 128.023L516.719 127.996C518.068 126.2 519.475 123.575 518.804 120.907C518.124 118.201 515.385 115.719 509.103 114.039L509.103 114.039C506.298 113.29 502.807 113.094 500.139 112.945C499.827 112.927 499.526 112.91 499.239 112.893C498.547 112.852 497.937 112.81 497.433 112.757C497.065 112.718 496.771 112.675 496.551 112.627C496.575 112.613 496.601 112.597 496.628 112.582C503.909 108.378 512.966 109.623 521.671 112.696C528.403 115.073 534.825 118.505 539.937 121.237C541.428 122.034 542.809 122.771 544.052 123.406C549.048 125.953 553.813 129.412 557.032 134.565C565.653 148.931 575.205 162.411 585.251 175.407L586.109 174.911C579.948 159.917 573.106 145.081 564.967 130.524C557.715 117.358 561.595 101.179 573.719 94.1799C585.944 87.1215 600.046 93.204 607.738 106.527C615.429 119.847 613.652 135.104 601.419 142.158L601.419 142.158C599.612 143.201 598.378 143.804 597.604 144.143C597.216 144.313 596.944 144.417 596.773 144.478C596.687 144.508 596.627 144.527 596.59 144.538C596.571 144.544 596.559 144.548 596.552 144.55L596.548 144.551C596.547 144.551 596.547 144.551 596.547 144.551C596.547 144.551 596.547 144.551 596.547 144.551C596.547 144.551 596.547 144.551 596.546 144.551C596.546 144.551 596.546 144.551 596.546 144.551C592.29 145.628 589.817 149.95 591.052 154.146L553.666 169.299ZM553.666 169.299C553.827 169.131 554.021 168.984 554.173 168.869C554.207 168.843 554.239 168.819 554.268 168.796C554.3 168.764 554.359 168.705 554.432 168.656C557.494 166.214 561.92 166.416 564.696 169.325C564.696 169.325 564.696 169.325 564.696 169.325L596.871 203.035L596.944 203.111L596.98 203.21C600.657 213.374 604.168 223.569 607.677 233.761C614.691 254.127 621.701 274.484 630.034 294.575C630.123 294.626 630.25 294.697 630.402 294.781C630.714 294.953 631.13 295.175 631.552 295.379C631.926 295.56 632.288 295.718 632.583 295.818L609.736 217.877L610.577 217.392L666.677 276.177C666.738 275.872 666.781 275.48 666.812 275.068C666.847 274.6 666.863 274.128 666.871 273.772C666.875 273.598 666.876 273.453 666.877 273.35C653.661 256.198 639.6 239.967 625.556 223.755C618.393 215.486 611.234 207.222 604.194 198.844L604.126 198.764L604.097 198.663L595.507 169.356L595.468 169.221L595.471 169.209L592.159 157.929L592.159 157.928L591.052 154.147L553.666 169.299ZM554.129 137.478C547.598 126.149 533.84 121.769 523.371 127.813C518.134 130.837 515.276 135.583 514.558 140.988C513.843 146.38 515.258 152.406 518.512 158.042C521.764 163.676 526.276 167.915 531.303 169.992C536.344 172.075 541.884 171.974 547.121 168.95C554.429 164.731 557.863 159.695 558.595 154.236C559.322 148.809 557.361 143.076 554.129 137.478ZM554.129 137.478C554.129 137.478 554.129 137.478 554.129 137.478L553.696 137.728L554.129 137.478ZM601.735 203.177L601.732 203.179C600.586 203.829 599.114 203.445 598.44 202.298L598.438 202.295C597.772 201.14 598.179 199.658 599.322 198.998C600.476 198.332 601.956 198.725 602.622 199.879C603.289 201.033 602.889 202.511 601.735 203.177ZM568.676 129.08L568.675 129.079C562.144 117.75 565.226 103.648 575.688 97.6077C580.928 94.5824 586.47 94.476 591.513 96.5552C596.542 98.6291 601.055 102.867 604.311 108.506C607.563 114.139 608.979 120.166 608.263 125.559C607.545 130.967 604.686 135.715 599.446 138.741C592.138 142.96 586.057 143.418 580.961 141.323C575.895 139.241 571.908 134.678 568.676 129.08ZM496.241 112.861C496.241 112.861 496.242 112.86 496.243 112.858C496.242 112.86 496.241 112.861 496.241 112.861Z" stroke="#CEA561"/>
</svg>
