<svg width="49" height="48" viewBox="0 0 49 48" fill="none" xmlns="http://www.w3.org/2000/svg">
<path d="M28.3413 30.6654L28.3417 30.666L37.0248 43.3578C37.0248 43.3578 37.0248 43.3579 37.0249 43.3579C37.0623 43.4128 37.0765 43.4803 37.0642 43.5456C37.052 43.611 37.0142 43.6688 36.9594 43.7063C36.9045 43.7438 36.8369 43.758 36.7716 43.7457L36.6793 44.2371L36.7716 43.7457C36.7062 43.7335 36.6484 43.6957 36.6109 43.6408L36.6108 43.6407L27.9296 30.9526L27.9278 30.9501C27.8901 30.8957 27.8755 30.8286 27.8872 30.7634C27.899 30.6983 27.936 30.6405 27.9903 30.6026L27.9974 30.5977L28.0006 30.5953C28.026 30.5792 28.0541 30.5677 28.0836 30.5615C28.1157 30.5548 28.1489 30.5545 28.1811 30.5606L28.2739 30.0693L28.1812 30.5606C28.2134 30.5667 28.2442 30.5791 28.2716 30.5971L28.5454 30.1787L28.2717 30.5971C28.2991 30.615 28.3228 30.6383 28.3413 30.6654ZM12.037 43.7087L12.036 43.7079C11.9817 43.6701 11.9446 43.6122 11.9329 43.5471C11.9212 43.4819 11.9358 43.4148 11.9735 43.3604L11.9751 43.358L24.0033 25.7817L24.1965 25.4993L24.0033 25.2169L17.9039 16.3051L17.6547 15.941L17.2625 16.1428C16.0311 16.7764 14.6061 16.9221 13.272 16.551C11.9379 16.1798 10.7929 15.319 10.0656 14.1405C9.33843 12.962 9.08253 11.5526 9.34904 10.1937C9.61556 8.83478 10.3849 7.62642 11.5034 6.80993C12.6218 5.99344 14.0072 5.62892 15.3827 5.78916C16.7581 5.9494 18.0226 6.62261 18.9234 7.67434C19.8242 8.72608 20.2952 10.0789 20.2422 11.4627C20.1892 12.8464 19.6162 14.1592 18.6377 15.1389C18.5611 15.2155 18.4811 15.2904 18.3995 15.3618L18.0655 15.654L18.3161 16.0204L24.0873 24.4579L24.5 25.0612L24.9127 24.4579L30.684 16.0204L30.9345 15.654L30.6005 15.3618C30.5903 15.3529 30.5805 15.3443 30.5711 15.336C30.4847 15.2606 30.4263 15.2096 30.3825 15.1603L30.3729 15.1495L30.3628 15.1393C29.3897 14.1638 28.8203 12.8572 28.7683 11.4803C28.7163 10.1035 29.1854 8.75761 30.0821 7.71145C30.9788 6.66529 32.2371 5.99579 33.6057 5.83659C34.9743 5.67738 36.3527 6.0402 37.4655 6.8526C38.5784 7.665 39.344 8.86722 39.6094 10.2193C39.8748 11.5713 39.6205 12.9738 38.8974 14.1466C38.1742 15.3194 37.0353 16.1764 35.7081 16.5464C34.3808 16.9164 32.9628 16.7722 31.7372 16.1427L31.3451 15.9413L31.0961 16.3051L24.7211 25.6219L24.7211 25.622L12.3911 43.6388L12.3883 43.643C12.3698 43.6707 12.3459 43.6944 12.3181 43.7127C12.2903 43.731 12.2592 43.7436 12.2265 43.7497C12.1937 43.7558 12.1601 43.7553 12.1276 43.7483C12.0951 43.7412 12.0643 43.7278 12.037 43.7087ZM30.7083 14.7898L30.7089 14.7903C30.9251 15.0066 31.1604 15.2029 31.4119 15.3768L31.4125 15.3773C32.4716 16.1073 33.7714 16.401 35.0415 16.1974C36.3116 15.9938 37.4544 15.3085 38.2323 14.284L37.8341 13.9816L38.2323 14.284C39.0102 13.2595 39.3633 11.9746 39.2182 10.6965C39.0731 9.41832 38.441 8.24527 37.4532 7.4212C36.4655 6.59712 35.1982 6.18542 33.9147 6.2717C32.6313 6.35797 31.4305 6.93558 30.5619 7.88443C29.6934 8.83329 29.2239 10.0804 29.2512 11.3664C29.2785 12.6525 29.8004 13.8786 30.7083 14.7898ZM17.4296 15.4712L17.445 15.4712L17.5725 15.3842C17.8292 15.2089 18.0693 15.0106 18.2898 14.7916L18.2917 14.7898C18.9892 14.0898 19.4637 13.1989 19.6552 12.2294C19.8467 11.26 19.7467 10.2556 19.3678 9.34294C18.9888 8.43033 18.3479 7.65046 17.5261 7.10182C16.7042 6.55318 15.7382 6.26037 14.75 6.26037C13.7619 6.26037 12.7958 6.55318 11.974 7.10182C11.1521 7.65046 10.5112 8.43032 10.1323 9.34294C9.75334 10.2556 9.65331 11.26 9.84483 12.2294C10.0363 13.1989 10.5108 14.0898 11.2084 14.7898L11.2087 14.7901C11.6734 15.2557 12.226 15.6244 12.8343 15.8749C13.442 16.1251 14.0933 16.2524 14.7505 16.2493C15.7007 16.252 16.6305 15.9813 17.4296 15.4712Z" stroke="#CEA561"/>
</svg>
