<svg width="22" height="22" viewBox="0 0 22 22" fill="none" xmlns="http://www.w3.org/2000/svg">
<path d="M14.5536 16.3315C15.0251 16.3315 15.4772 16.5188 15.8106 16.8522C16.144 17.1855 16.3313 17.6377 16.3313 18.1092C16.3313 18.5807 16.144 19.0329 15.8106 19.3663C15.4772 19.6997 15.0251 19.887 14.5536 19.887C14.0821 19.887 13.6299 19.6997 13.2965 19.3663C12.9631 19.0329 12.7758 18.5807 12.7758 18.1092C12.7758 17.6377 12.9631 17.1855 13.2965 16.8522C13.6299 16.5188 14.0821 16.3315 14.5536 16.3315ZM14.5536 17.2203C14.3178 17.2203 14.0917 17.314 13.925 17.4807C13.7583 17.6474 13.6647 17.8735 13.6647 18.1092C13.6647 18.345 13.7583 18.5711 13.925 18.7378C14.0917 18.9045 14.3178 18.9981 14.5536 18.9981C14.7893 18.9981 15.0154 18.9045 15.1821 18.7378C15.3488 18.5711 15.4424 18.345 15.4424 18.1092C15.4424 17.8735 15.3488 17.6474 15.1821 17.4807C15.0154 17.314 14.7893 17.2203 14.5536 17.2203ZM6.55355 16.3315C7.02505 16.3315 7.47723 16.5188 7.81063 16.8522C8.14403 17.1855 8.33133 17.6377 8.33133 18.1092C8.33133 18.5807 8.14403 19.0329 7.81063 19.3663C7.47723 19.6997 7.02505 19.887 6.55355 19.887C6.08206 19.887 5.62987 19.6997 5.29647 19.3663C4.96307 19.0329 4.77577 18.5807 4.77577 18.1092C4.77577 17.6377 4.96307 17.1855 5.29647 16.8522C5.62987 16.5188 6.08206 16.3315 6.55355 16.3315ZM6.55355 17.2203C6.3178 17.2203 6.09171 17.314 5.92501 17.4807C5.75831 17.6474 5.66466 17.8735 5.66466 18.1092C5.66466 18.345 5.75831 18.5711 5.92501 18.7378C6.09171 18.9045 6.3178 18.9981 6.55355 18.9981C6.7893 18.9981 7.01539 18.9045 7.18209 18.7378C7.34879 18.5711 7.44244 18.345 7.44244 18.1092C7.44244 17.8735 7.34879 17.6474 7.18209 17.4807C7.01539 17.314 6.7893 17.2203 6.55355 17.2203ZM16.3313 5.66478H4.12688L6.39355 10.9981H13.6647C13.958 10.9981 14.2158 10.8559 14.3758 10.6426L17.0424 7.087C17.158 6.93589 17.2202 6.74922 17.2202 6.55367C17.2202 6.31792 17.1266 6.09183 16.9599 5.92513C16.7932 5.75843 16.5671 5.66478 16.3313 5.66478ZM13.6647 11.887H6.438L5.75355 13.2737L5.66466 13.6648C5.66466 13.9005 5.75831 14.1266 5.92501 14.2933C6.09171 14.46 6.3178 14.5537 6.55355 14.5537H16.3313V15.4426H6.55355C6.08206 15.4426 5.62987 15.2553 5.29647 14.9219C4.96307 14.5885 4.77577 14.1363 4.77577 13.6648C4.77551 13.3632 4.85198 13.0665 4.998 12.8026L5.638 11.4959L2.41133 3.887H1.22021V2.99811H2.99799L3.75355 4.77589H16.3313C16.8028 4.77589 17.255 4.96319 17.5884 5.29659C17.9218 5.62998 18.1091 6.08217 18.1091 6.55367C18.1091 6.99811 17.958 7.37145 17.7091 7.67367L15.1224 11.1314C14.8024 11.5848 14.2691 11.887 13.6647 11.887Z" fill="#151515"/>
</svg>
