<svg width="48" height="48" viewBox="0 0 48 48" fill="none" xmlns="http://www.w3.org/2000/svg">
<path d="M33.1998 11.64C31.8327 10.0792 31.0793 8.07486 31.0798 6H24.8998V30.8C24.8522 32.142 24.2856 33.4132 23.3194 34.3459C22.3531 35.2785 21.0627 35.7998 19.7198 35.8C16.8798 35.8 14.5198 33.48 14.5198 30.6C14.5198 27.16 17.8398 24.58 21.2598 25.64V19.32C14.3598 18.4 8.31982 23.76 8.31982 30.6C8.31982 37.26 13.8398 42 19.6998 42C25.9798 42 31.0798 36.9 31.0798 30.6V18.02C33.5858 19.8197 36.5946 20.7853 39.6798 20.78V14.6C39.6798 14.6 35.9198 14.78 33.1998 11.64Z" fill="#CEA561"/>
</svg>
