<svg width="90" height="90" viewBox="0 0 90 90" fill="none" xmlns="http://www.w3.org/2000/svg">
<g clip-path="url(#clip0_1096_2256)">
<path d="M29.6813 22.9449C30.1348 24.9441 29.8176 27.3618 25.0066 29.6764C24.9359 29.7101 24.8612 29.7444 24.7836 29.7799C23.8019 30.2303 22.3594 30.8921 22.7827 33.3243C22.7827 33.3243 23.2491 35.1923 24.181 35.9064C24.1998 35.9209 24.22 35.933 24.24 35.9451C24.2691 35.9626 24.298 35.98 24.3228 36.0045C25.1951 36.8352 24.3287 36.8883 23.5406 36.9367C23.2468 36.9548 22.9638 36.9721 22.7859 37.0289C21.6712 37.3867 21.6441 39.5949 23.4116 41.5337C23.4116 41.5337 20.5607 44.3856 22.1579 46.8954C22.1579 46.8954 22.3822 47.1512 23.1976 47.1821C23.2005 47.1546 23.2033 47.1297 23.2059 47.1076C23.2102 47.0702 23.2139 47.0406 23.2167 47.0195L23.22 46.9941L23.2211 46.9862L23.2215 46.9835L23.2216 46.9825C23.2217 46.9821 23.2217 46.9817 24.2119 47.1219L24.347 48.1127C24.2734 48.1228 24.2014 48.1317 24.1311 48.1396C24.0373 50.4883 24.3867 56.075 29.8562 55.9018C30.8263 55.87 32.0689 55.6558 33.4431 55.419C37.8364 54.6618 43.5739 53.6728 46.0476 57.6708L29.6813 22.9449ZM29.6813 22.9449C27.8634 14.9784 36.0455 7.54176 39.6089 4.73826L29.6813 22.9449ZM47.1286 37.1414L47.1289 37.1418C55.8793 45.2725 58.9842 52.6936 59.9407 58.0073C60.4203 60.6721 60.3635 62.8278 60.192 64.3032C60.1062 65.0411 59.9917 65.609 59.9012 65.985C59.856 66.173 59.8168 66.3129 59.7902 66.4021C59.7769 66.4467 59.7668 66.4786 59.7607 66.4975L59.7545 66.516L59.7539 66.5178L59.7538 66.5181L59.7537 66.5185C59.7536 66.5189 59.8075 66.6321 59.9172 66.7751L59.7025 66.7555C58.9322 75.1736 54.8454 80.7422 50.9404 84.2221C49.3767 85.6155 47.8434 86.6723 46.5674 87.4381C51.4766 79.1309 51.8733 71.9265 50.865 66.594C50.3013 63.6128 49.3035 61.2411 48.4432 59.6099C48.0128 58.7938 47.6157 58.1611 47.3227 57.7279C47.1761 57.5112 47.0553 57.3441 46.9692 57.2288C46.9261 57.1711 46.8916 57.1263 46.8669 57.0946L46.8662 57.0938C44.9203 54.0062 41.3738 53.5702 38.1982 53.77C36.5706 53.8724 34.9282 54.1486 33.4775 54.3983L33.3206 54.4253C31.903 54.6695 30.7222 54.8729 29.8234 54.9023C28.332 54.9493 27.3837 54.5067 26.7449 53.8983C26.0791 53.2642 25.6576 52.3611 25.4104 51.3554C25.1647 50.3554 25.1099 49.3292 25.1207 48.5382C25.126 48.1462 25.1472 47.8201 25.1668 47.5948C25.1766 47.4822 25.1859 47.3953 25.1926 47.3383C25.1959 47.3098 25.1985 47.2889 25.2002 47.276L25.2019 47.2628L25.202 47.2622L25.2021 47.2616L25.2021 47.2612L25.2022 47.2609L25.3876 45.9523L24.0767 46.1311C23.4164 46.2212 23.0502 46.1798 22.8804 46.1421C22.5087 45.378 22.6722 44.5371 23.0803 43.7204C23.2975 43.2859 23.5617 42.9093 23.7757 42.6386C23.8815 42.5047 23.9723 42.4002 24.0345 42.3313C24.0655 42.297 24.0892 42.2717 24.1039 42.2563L24.1189 42.2407L24.1193 42.2403L24.1197 42.2399L24.1203 42.2392L24.1204 42.2391L24.1208 42.2388L24.7938 41.5655L24.1506 40.86C23.3884 40.0239 23.0662 39.1856 23.014 38.5996C22.9749 38.161 23.0719 38.0157 23.1089 37.9783C23.1268 37.9751 23.1569 37.9704 23.2022 37.9652C23.2912 37.9551 23.3984 37.9475 23.5329 37.9391C23.5563 37.9376 23.5809 37.9362 23.6066 37.9346C23.8405 37.9205 24.1636 37.901 24.4388 37.8478C24.5925 37.8181 24.8049 37.7653 25.0094 37.6552C25.2171 37.5434 25.5257 37.3103 25.6439 36.8826C25.7599 36.4628 25.624 36.1 25.4996 35.8782C25.3747 35.6555 25.1985 35.4579 25.0168 35.2845C24.913 35.184 24.8112 35.122 24.7755 35.1003L24.7739 35.0993L24.7677 35.0955C24.529 34.8997 24.271 34.4774 24.0547 33.9611C23.9531 33.7187 23.876 33.4934 23.8245 33.3287C23.7989 33.247 23.7801 33.1816 23.7681 33.1384C23.7654 33.1288 23.7631 33.1203 23.7611 33.1129C23.5907 32.0845 23.8513 31.629 24.0917 31.372C24.3674 31.0773 24.7168 30.9149 25.1682 30.7051C25.2541 30.6651 25.3437 30.6235 25.4372 30.5789L25.4401 30.5775C27.9447 29.3726 29.4328 28.0701 30.1959 26.6713C30.9758 25.242 30.9157 23.8664 30.6565 22.7237L30.6562 22.7225C29.6161 18.1644 32.1969 13.6544 35.3225 10.121C36.8601 8.38276 38.4732 6.94599 39.705 5.94235C40.3198 5.44145 40.8368 5.05071 41.1981 4.78655C41.209 4.7786 41.2197 4.77077 41.2303 4.76306L41.7224 4.44724C45.7502 1.86227 48.6985 1.13617 50.5739 1.01846C51.2979 0.973016 51.8693 1.0177 52.2893 1.08493C50.7199 5.46827 50.7988 10.5052 51.7654 15.5647C52.8128 21.0468 54.9218 26.6559 57.2499 31.6785C59.5803 36.7063 62.1454 41.1785 64.1261 44.3919C64.287 44.6527 64.444 44.9054 64.5967 45.1494C47.6503 32.8452 41.2507 23.4511 39.3033 16.8934L37.3448 17.1976C37.5298 26.6977 42.6816 33.0051 47.1286 37.1414ZM23.1224 37.9674C23.1226 37.9675 23.1209 37.9688 23.1171 37.9708C23.1204 37.9682 23.1223 37.9672 23.1224 37.9674ZM59.762 66.4955C60.1914 66.2968 60.545 66.3089 60.8251 66.4123C60.7908 66.5441 60.7611 66.6468 60.7391 66.7191L59.762 66.4955ZM24.7911 35.1141L24.7893 35.1127L24.7911 35.1141Z" stroke="#CEA561" stroke-width="2"/>
</g>
<defs>
<clipPath id="clip0_1096_2256">
<rect width="90" height="90" fill="white"/>
</clipPath>
</defs>
</svg>
