<svg width="40" height="40" viewBox="0 0 40 40" fill="none" xmlns="http://www.w3.org/2000/svg">
<g clip-path="url(#clip0_647_166)">
<path d="M29.5157 25.7189L29.4764 10.579L14.3365 10.5397C14.1788 10.5183 14.0183 10.5311 13.8659 10.5772C13.7136 10.6232 13.5729 10.7015 13.4534 10.8067C13.3339 10.9118 13.2384 11.0414 13.1733 11.1867C13.1083 11.332 13.0752 11.4895 13.0763 11.6487C13.0775 11.8079 13.1128 11.9649 13.1799 12.1093C13.247 12.2536 13.3444 12.3818 13.4654 12.4853C13.5863 12.5887 13.7281 12.6649 13.8811 12.7088C14.0342 12.7527 14.1948 12.7632 14.3522 12.7396L25.6973 12.7867L10.6674 27.8167C10.459 28.025 10.342 28.3077 10.342 28.6023C10.342 28.897 10.459 29.1796 10.6674 29.388C10.8758 29.5964 11.1584 29.7135 11.4531 29.7135C11.7478 29.7135 12.0304 29.5964 12.2387 29.388L27.2687 14.3581L27.3158 25.7032C27.3169 25.9981 27.435 26.2804 27.6442 26.4882C27.8535 26.6959 28.1366 26.8121 28.4315 26.811C28.7263 26.81 29.0087 26.6918 29.2165 26.4826C29.4242 26.2734 29.5403 25.9902 29.5393 25.6954L29.5157 25.7189Z" fill="#ECECEC"/>
</g>
<defs>
<clipPath id="clip0_647_166">
<rect width="40" height="40" fill="white" transform="translate(40) rotate(90)"/>
</clipPath>
</defs>
</svg>
