<svg width="70" height="69" viewBox="0 0 70 69" fill="none" xmlns="http://www.w3.org/2000/svg">
<g clip-path="url(#clip0_498_3088)">
<path d="M58.5936 31.5713L50.927 18.2921L50.802 18.0755L50.5854 18.2007L48.8173 19.2228L48.601 19.3479L48.726 19.5642L56.3926 32.8438L54.837 33.7423L47.1694 20.4597L47.0444 20.2432L46.8279 20.3682L45.0567 21.391L44.8403 21.5159L44.9652 21.7324L52.6337 35.0185L51.0074 35.9573L43.3389 22.6712L43.2139 22.4546L42.9973 22.5797L41.2261 23.6027L41.0097 23.7277L41.1346 23.9442L48.8032 37.2306L47.0329 38.2536L39.3611 24.9684L39.236 24.7518L39.0194 24.877L37.2517 25.8991L37.0354 26.0241L37.1603 26.2405L44.8329 39.529L43.3505 40.3836L35.6742 27.0958L35.5491 26.8792L35.3326 27.0044L33.5649 28.0267L33.3486 28.1517L33.4735 28.3681L41.1469 41.6598L39.5175 42.5996L31.8438 29.3077L31.7187 29.0911L31.5021 29.2163L29.7344 30.2385L29.5181 30.3635L29.6431 30.5799L37.3167 43.8719L35.6876 44.8144L28.0133 31.5194L27.8883 31.3029L27.6717 31.428L25.9007 32.4511L25.6842 32.5762L25.8092 32.7926L33.4867 46.0868L31.9311 46.9852L24.2568 33.6903L24.1318 33.4737L23.9152 33.5988L22.1439 34.6218L21.9275 34.7468L22.0524 34.9632L29.7276 48.2617L28.319 49.0748L20.6406 35.7775L20.5155 35.5609L20.2989 35.6861L18.531 36.7082L18.3147 36.8332L18.4396 37.0496L26.1184 50.3474L24.4895 51.2897L16.8098 37.9892L16.6849 37.7729L16.4685 37.8975L14.6999 38.9164L14.4831 39.0413L14.6082 39.258L22.2887 52.562L20.9133 53.3566C17.5748 51.1557 14.1362 47.9339 12.0626 44.8255L12.0625 44.8255C10.9596 43.1725 10.2646 41.5785 10.0948 40.2788C10.0095 39.6263 10.0356 39.0713 10.1859 38.5801C10.3354 38.0912 10.6126 37.6505 11.0529 37.2323C21.7811 27.0444 35.981 19.5692 51.0359 14.1362L51.0361 14.1362C51.1048 14.1113 51.174 14.0883 51.2438 14.0671L58.5936 31.5713ZM58.5936 31.5713L59.978 30.771C59.7409 26.7686 58.6482 22.0902 56.9815 18.6941C56.0953 16.8881 55.0539 15.4814 54.0309 14.7066C53.1377 14.0306 52.3586 13.7991 51.4473 14.0126L58.5936 31.5713Z" stroke="#CEA561" stroke-width="0.5"/>
</g>
<defs>
<clipPath id="clip0_498_3088">
<rect width="56" height="56" fill="white" transform="translate(0.707031 14.4943) rotate(-15)"/>
</clipPath>
</defs>
</svg>
