<svg width="110" height="90" viewBox="0 0 110 90" fill="none" xmlns="http://www.w3.org/2000/svg">
<path d="M81.2701 38.6838C81.312 38.7105 83.7902 40.4254 87.6288 40.4277C91.5175 40.4184 94.3512 38.0355 94.3884 38.0111C94.5731 37.8578 94.5987 37.5824 94.4442 37.3977C94.2908 37.2129 94.0154 37.1885 93.8307 37.3419L93.8063 37.3628C93.5251 37.5917 90.9261 39.5645 87.6288 39.5564C85.8419 39.5564 84.3676 39.1544 83.3429 38.7524C82.8305 38.5525 82.4308 38.3527 82.1624 38.204C82.0277 38.1296 81.9254 38.0692 81.8592 38.0274L81.786 37.9797L81.7662 37.967C81.5676 37.8299 81.2969 37.8798 81.1598 38.0774C81.0227 38.2749 81.0715 38.5467 81.2701 38.6838Z" fill="#CEA561"/>
<path d="M93.4716 38.3561C93.4716 38.3561 94.3395 38.8708 95.4502 38.6396C96.5609 38.4084 91.9322 41.8334 87.1641 40.2138C87.1641 40.2138 90.6124 40.4799 93.4716 38.3561Z" fill="#CEA561"/>
<path d="M64.4404 37.967L64.4206 37.9797C64.1859 38.1366 61.9239 39.5587 58.5778 39.5564C56.8176 39.5575 55.2596 39.0033 54.1431 38.4445C53.5842 38.1656 53.1381 37.8868 52.8337 37.6789C52.6803 37.5743 52.5641 37.4883 52.4863 37.429L52.4003 37.3628L52.3748 37.3419C52.19 37.1885 51.9147 37.2129 51.7613 37.3977C51.6068 37.5824 51.6324 37.8578 51.8171 38.0111C51.8543 38.0355 54.688 40.4184 58.5778 40.4277C62.4153 40.4242 64.8947 38.7105 64.9365 38.6838C65.1352 38.5467 65.184 38.2749 65.0469 38.0774C64.9098 37.8798 64.6391 37.8299 64.4404 37.967Z" fill="#CEA561"/>
<path d="M52.732 38.3171C52.732 38.3171 51.8641 38.8317 50.7534 38.6005C50.2852 38.5029 50.8324 39.0513 51.9768 39.6009C53.5569 40.3572 56.2756 41.1136 59.0396 40.1748C59.0396 40.1748 55.5901 40.4409 52.732 38.3171Z" fill="#CEA561"/>
<path d="M88.7824 45.4652C84.2513 45.4571 80.5834 43.0892 80.5892 40.1789C80.5938 37.2673 84.271 34.9146 88.8033 34.9239C93.3333 34.932 97.0035 37.2998 96.9977 40.2102C96.9919 43.1206 93.3136 45.4745 88.7824 45.4652ZM73.4439 72.5626C68.9139 72.5533 65.2425 71.8411 65.2472 68.9295C65.253 66.018 68.9291 64.5029 73.4602 64.5111C77.9913 64.5204 81.6604 66.0505 81.6546 68.9609C81.65 71.8724 77.9751 72.5707 73.4439 72.5626ZM58.2112 45.4059C53.68 45.3978 50.011 43.0311 50.0168 40.1196C50.0226 37.208 53.7009 34.8565 58.2309 34.8646C62.7632 34.8728 66.4311 37.2406 66.4253 40.151C66.4195 43.0625 62.7423 45.4152 58.2112 45.4059ZM105.122 45.4966C105.139 36.6341 102.824 28.4478 98.9031 21.844L92.2365 24.565L97.1128 19.1032C91.3385 11.0006 82.9373 5.88857 73.5729 5.87115C64.2504 5.85371 55.8619 10.8856 50.0586 18.9023L55.0115 24.493L48.2159 21.6895C44.2483 28.2864 41.8886 36.4854 41.8712 45.3746C41.8537 54.8865 45.0813 63.6188 49.9273 70.4527L54.7094 68.502L51.318 72.3C57.5013 80.0947 65.8119 84.986 73.4207 85C80.6647 85.0139 89.0845 80.0877 95.4258 72.2198L92.1959 68.574L96.7712 70.462C101.717 63.6595 105.104 54.9725 105.122 45.4966Z" fill="#151515" fill-opacity="0.7"/>
<path d="M88.3469 45.0295L88.3481 44.5938C86.1592 44.5904 84.1853 44.0129 82.7876 43.1102C81.3841 42.2028 80.5871 41.0084 80.5882 39.749V39.7467H80.2583L80.5882 39.756V39.7467H80.2583L80.5882 39.756V39.7432C80.5894 38.4849 81.3876 37.2952 82.7899 36.3925C84.1876 35.4944 86.158 34.9228 88.3435 34.9239H88.3655C90.5544 34.9262 92.5284 35.5048 93.9261 36.4064C95.3295 37.3138 96.1277 38.5082 96.1254 39.7676L96.1266 39.7943L96.5622 39.7746L96.1266 39.7734C96.1254 41.0317 95.3273 42.2226 93.9249 43.1253C92.5284 44.0222 90.5567 44.595 88.3737 44.5938H88.3481L88.3469 45.0295V45.4652H88.3737C90.7078 45.4641 92.8281 44.8622 94.3954 43.8584C95.9558 42.8592 96.9921 41.4232 96.9979 39.7757L96.9968 39.7537L96.6413 39.7711L96.9979 39.7687L96.9968 39.7537L96.6413 39.7711L96.9979 39.7687V39.7676C96.9956 38.1189 95.9604 36.6783 94.3989 35.6745C92.8304 34.666 90.7078 34.0572 88.369 34.0525H88.3435C86.007 34.0537 83.8867 34.6555 82.3194 35.6594C80.759 36.6574 79.7227 38.0946 79.718 39.742L80.1537 39.7432L79.718 39.7293V39.749C79.7192 41.3988 80.7544 42.8395 82.3159 43.8433C83.8832 44.8518 86.007 45.4594 88.3469 45.4652V45.0295ZM73.0084 72.1269L73.0096 71.6912C70.7696 71.6877 68.7538 71.5018 67.362 70.9906C66.666 70.7362 66.1327 70.4051 65.7842 70.0054C65.438 69.6022 65.2509 69.1352 65.2474 68.4997V68.4985L64.8873 68.4973L65.2474 68.5148V68.4985L64.8873 68.4973L65.2474 68.5148V68.4939C65.2509 67.8607 65.4438 67.3239 65.8051 66.8406C66.3465 66.1168 67.3015 65.5242 68.5517 65.1234C69.7995 64.7214 71.3308 64.5111 72.9864 64.5111H73.0212H73.0236C75.2392 64.5146 77.2317 64.8968 78.6247 65.5997C79.3207 65.9506 79.8644 66.377 80.2269 66.8615C80.5894 67.3472 80.7823 67.8839 80.7834 68.5183L80.7846 68.545L81.2191 68.5252L80.7834 68.5241C80.78 69.1573 80.594 69.6232 80.2501 70.0228C79.7366 70.6212 78.7955 71.0592 77.5442 71.3241C76.2964 71.5913 74.757 71.6912 73.0898 71.6912H73.0084V72.1269V72.5626H73.0898C75.3611 72.5603 77.4257 72.3895 78.9884 71.8202C79.768 71.5344 80.4302 71.1428 80.9077 70.5945C81.3864 70.0484 81.6571 69.3408 81.656 68.5264L81.6548 68.5055L81.3004 68.5217L81.6548 68.5206V68.5055L81.3004 68.5217L81.6548 68.5206V68.5183C81.6571 67.6992 81.3911 66.9568 80.924 66.3375C80.2234 65.4081 79.1034 64.747 77.7417 64.3043C76.3778 63.864 74.7605 63.6444 73.0259 63.6397H73.0271H72.9864C70.6813 63.642 68.583 64.022 67.0134 64.8062C66.2303 65.2001 65.5751 65.6985 65.1092 66.3166C64.6433 66.9335 64.376 67.6748 64.376 68.4927L64.8117 68.4939L64.3772 68.473L64.376 68.4997C64.3737 69.3176 64.6456 70.0298 65.1278 70.5782C65.8539 71.4031 66.9809 71.876 68.3344 72.1676C69.6914 72.4569 71.2924 72.5579 73.0073 72.5626L73.0084 72.1269ZM57.7757 44.9703V44.5346C55.588 44.5323 53.614 43.9537 52.2163 43.0521C50.8128 42.1447 50.0147 40.9492 50.017 39.6909V39.6874H49.687L50.017 39.6979V39.6874H49.687L50.017 39.6979V39.6851C50.017 38.4268 50.8163 37.236 52.2186 36.3332C53.6163 35.4363 55.5868 34.8635 57.771 34.8647H57.7931H57.7954C59.9832 34.867 61.9571 35.4456 63.3548 36.3483C64.7583 37.2557 65.5565 38.4501 65.5541 39.7083L65.5553 39.7362L65.9898 39.7153L65.5541 39.7141C65.5541 40.9724 64.7548 42.1633 63.3536 43.066C61.9571 43.963 59.9855 44.5357 57.8013 44.5346H57.7757V44.9703L57.7745 45.406H57.8013C60.1365 45.4048 62.2569 44.803 63.8242 43.7992C65.3845 42.8012 66.4209 41.3639 66.4255 39.7165V39.6956L66.0688 39.7118L66.4255 39.7107V39.6956L66.0688 39.7118L66.4255 39.7107V39.7083C66.4232 38.0597 65.388 36.619 63.8265 35.6152C62.2592 34.6067 60.1365 33.9991 57.7966 33.9933H57.7978H57.771C55.4358 33.9945 53.3154 34.5963 51.7481 35.6001C50.1878 36.5981 49.1503 38.0353 49.1456 39.6828L49.5813 39.6839L49.1456 39.67V39.6909C49.1479 41.3396 50.1831 42.7802 51.7446 43.784C53.3119 44.7925 55.4358 45.4001 57.7745 45.406L57.7757 44.9703ZM104.687 45.0609L105.123 45.0621V44.9645C105.123 36.0625 102.791 27.8368 98.8429 21.1864C98.7325 21.0005 98.5025 20.9239 98.3039 21.0052L93.3812 23.014L97.0026 18.958C97.1385 18.8058 97.1502 18.5804 97.0328 18.4143C91.1958 10.2222 82.6668 5.01838 73.1386 4.99979H73.0898C63.6232 4.99979 55.1256 10.1188 49.2699 18.211C49.1503 18.3759 49.1619 18.6025 49.2978 18.7559L53.0006 22.9362L47.9466 20.8507C47.7479 20.7682 47.5179 20.8437 47.4075 21.0284C43.3969 27.6973 41.0174 35.973 41 44.9389V45.0191C41.0012 54.5995 44.2566 63.3876 49.1363 70.2691C49.2537 70.4341 49.4686 70.4969 49.6568 70.4202L52.6938 69.1805L50.5572 71.5739C50.4166 71.7319 50.4097 71.9689 50.541 72.135C56.7881 80.003 65.1858 84.9779 72.9841 85H73.0154C80.4523 84.9895 88.9325 79.9855 95.3296 72.0572C95.4632 71.8922 95.4574 71.6552 95.3168 71.496L93.3358 69.2595L96.1696 70.4295C96.3554 70.5062 96.5704 70.4458 96.6889 70.2819C101.681 63.4143 105.103 54.6414 105.123 45.0621L104.687 45.0609H104.251C104.234 54.4311 100.882 63.0321 95.9837 69.7707L96.3357 70.0263L96.5018 69.6232L91.9265 67.7352C91.7395 67.6573 91.5222 67.7201 91.4049 67.8851C91.2875 68.05 91.2991 68.2755 91.4339 68.4265L94.6638 72.0735L94.9903 71.7842L94.6511 71.5111C88.3841 79.2966 80.055 84.1391 73.0154 84.1286H72.9852C65.5658 84.1217 57.3423 79.314 51.2241 71.5925L50.8825 71.8643L51.2079 72.1536L54.5992 68.3556C54.734 68.2046 54.7468 67.9803 54.6294 67.8142C54.5133 67.6492 54.2972 67.5853 54.1089 67.662L49.3269 69.6139L49.4918 70.017L49.8474 69.7649C45.0618 63.0182 41.8714 54.3997 41.8714 45.0191V44.9401C41.8888 36.1276 44.2287 28.0041 48.1546 21.4781L47.7805 21.2538L47.6143 21.6558L54.4099 24.4605C54.5969 24.5371 54.813 24.4756 54.9304 24.3106C55.0477 24.1456 55.0361 23.9202 54.9025 23.768L49.9496 18.1773L49.6231 18.4666L49.9763 18.7222C55.7076 10.8078 63.9485 5.87117 73.0898 5.87117H73.1374C82.3368 5.8886 90.609 10.9077 96.3229 18.9209L96.6773 18.6676L96.3519 18.3771L91.4758 23.8389C91.341 23.9899 91.3282 24.2142 91.4455 24.3803C91.5617 24.5453 91.7778 24.6092 91.966 24.5325L98.6327 21.8126L98.4676 21.4083L98.0936 21.6314C101.958 28.14 104.251 36.2147 104.251 44.9645V45.0609H104.687Z" fill="#CEA561"/>
<path d="M49.5911 38.7155C49.6374 38.7451 52.3814 40.6439 56.6318 40.6465C60.9375 40.6362 64.0751 37.9977 64.1163 37.9707C64.3208 37.8009 64.3491 37.496 64.178 37.2914C64.0082 37.0869 63.7033 37.0599 63.4988 37.2297L63.4718 37.2529C63.1604 37.5063 60.2827 39.6907 56.6318 39.6817C54.6532 39.6817 53.0208 39.2366 51.8861 38.7915C51.3188 38.5702 50.8763 38.3489 50.5791 38.1843C50.4299 38.1019 50.3167 38.035 50.2433 37.9887L50.1623 37.936L50.1404 37.9218C49.9204 37.77 49.6207 37.8253 49.4689 38.044C49.3171 38.2627 49.3711 38.5637 49.5911 38.7155Z" fill="#CEA561"/>
<path d="M63.1013 38.3531C63.1013 38.3531 64.0622 38.9231 65.292 38.6671C66.5219 38.4111 61.3967 42.2035 56.1172 40.4102C56.1172 40.4102 59.9353 40.7048 63.1013 38.3531Z" fill="#CEA561"/>
<path d="M30.9556 37.9218L30.9337 37.936C30.6739 38.1096 28.1692 39.6842 24.4643 39.6817C22.5153 39.6829 20.7902 39.0693 19.5539 38.4505C18.9351 38.1418 18.4411 37.8331 18.1041 37.6028C17.9343 37.487 17.8056 37.3918 17.7194 37.3262L17.6242 37.2529L17.5959 37.2297C17.3914 37.0599 17.0865 37.0869 16.9167 37.2914C16.7456 37.496 16.7739 37.8009 16.9784 37.9707C17.0196 37.9977 20.1573 40.6362 24.4643 40.6465C28.7134 40.6426 31.4586 38.7451 31.5049 38.7155C31.7249 38.5637 31.7789 38.2627 31.6271 38.044C31.4753 37.8253 31.1756 37.77 30.9556 37.9218Z" fill="#CEA561"/>
<path d="M17.9895 38.3103C17.9895 38.3103 17.0285 38.8801 15.7987 38.6241C15.2803 38.5161 15.8862 39.1233 17.1533 39.7317C18.9029 40.5692 21.9131 41.4067 24.9736 40.3673C24.9736 40.3673 21.1541 40.6619 17.9895 38.3103Z" fill="#CEA561"/>
<path d="M57.9074 46.225C52.8903 46.216 48.829 43.5943 48.8355 40.3718C48.8406 37.1479 52.9122 34.5429 57.9306 34.5532C62.9464 34.5622 67.0103 37.184 67.0038 40.4065C66.9974 43.629 62.9245 46.2353 57.9074 46.225ZM40.9239 76.2286C35.9081 76.2183 31.8429 75.4298 31.8481 72.2059C31.8545 68.9821 35.9248 67.3046 40.9419 67.3136C45.959 67.3239 50.0216 69.0182 50.0152 72.2407C50.01 75.4645 45.941 76.2376 40.9239 76.2286ZM24.0574 46.1594C19.0403 46.1504 14.9777 43.53 14.9842 40.3061C14.9906 37.0823 19.0634 34.4786 24.0793 34.4876C29.0977 34.4966 33.1589 37.1184 33.1525 40.3409C33.1461 43.5647 29.0745 46.1697 24.0574 46.1594ZM75.9999 46.2598C76.0179 36.4468 73.4553 27.3826 69.1136 20.0705L61.732 23.0833L67.1312 17.0358C60.7376 8.06416 51.4354 2.40382 41.0667 2.38452C30.7443 2.36523 21.4562 7.93681 15.0304 16.8132L20.5145 23.0036L12.9902 19.8994C8.59699 27.2038 5.98422 36.2822 5.96492 46.1247C5.94562 56.6568 9.51936 66.3257 14.8851 73.8925L20.1801 71.7325L16.425 75.9379C23.2714 84.5686 32.4733 89.9845 40.8982 90C48.9191 90.0154 58.2419 84.5609 65.2633 75.8491L61.687 71.8123L66.753 73.9028C72.2294 66.3707 75.9793 56.752 75.9999 46.2598Z" fill="#483A22"/>
<path d="M57.4249 45.7427L57.4262 45.2602C55.0026 45.2564 52.8169 44.617 51.2693 43.6175C49.7153 42.6128 48.8328 41.2903 48.8341 39.8958V39.8932H48.4688L48.8341 39.9035V39.8932H48.4688L48.8341 39.9035V39.8894C48.8354 38.4962 49.7192 37.1789 51.2719 36.1793C52.8195 35.1849 55.0013 34.5519 57.4211 34.5532H57.4455C59.8692 34.5558 62.0548 35.1964 63.6024 36.1947C65.1564 37.1994 66.0402 38.5219 66.0377 39.9164L66.0389 39.946L66.5213 39.9241L66.0389 39.9228C66.0376 41.316 65.1539 42.6346 63.6012 43.6342C62.0549 44.6273 59.8717 45.2615 57.4545 45.2602H57.4262L57.4249 45.7427V46.2251H57.4545C60.039 46.2238 62.3867 45.5574 64.1221 44.4459C65.8498 43.3396 66.9973 41.7496 67.0037 39.9254L67.0025 39.901L66.6088 39.9202L67.0037 39.9177L67.0025 39.901L66.6088 39.9202L67.0037 39.9177V39.9164C67.0012 38.0909 65.8549 36.4957 64.126 35.3843C62.3893 34.2676 60.039 33.5935 57.4494 33.5884H57.4211C54.834 33.5897 52.4863 34.2561 50.7509 35.3675C49.0232 36.4726 47.8757 38.0639 47.8706 39.8881L48.353 39.8894L47.8706 39.8739V39.8958C47.8718 41.7225 49.0181 43.3177 50.747 44.4292C52.4824 45.5458 54.834 46.2186 57.4249 46.2251V45.7427ZM40.4414 75.7463L40.4427 75.2638C37.9624 75.26 35.7305 75.0542 34.1893 74.4881C33.4187 74.2064 32.8282 73.8398 32.4423 73.3972C32.059 72.9508 31.8518 72.4337 31.848 71.73V71.7287L31.4492 71.7274L31.848 71.7467V71.7287L31.4492 71.7274L31.848 71.7467V71.7236C31.8518 71.0225 32.0654 70.4281 32.4655 69.893C33.0649 69.0915 34.1224 68.4354 35.5066 67.9916C36.8882 67.5465 38.5838 67.3136 40.4169 67.3136H40.4555H40.4581C42.9114 67.3175 45.1176 67.7408 46.66 68.5191C47.4306 68.9076 48.0327 69.3797 48.434 69.9161C48.8354 70.4539 49.049 71.0482 49.0502 71.7506L49.0515 71.7802L49.5327 71.7583L49.0502 71.757C49.0464 72.4581 48.8405 72.974 48.4598 73.4165C47.8911 74.0791 46.8491 74.564 45.4636 74.8573C44.082 75.1532 42.3775 75.2638 40.5314 75.2638H40.4414V75.7463V76.2287H40.5314C43.0464 76.2261 45.3324 76.037 47.0627 75.4067C47.9259 75.0902 48.6591 74.6567 49.1879 74.0495C49.7179 73.4448 50.0176 72.6614 50.0164 71.7596L50.0151 71.7364L49.6227 71.7544L50.0151 71.7531V71.7364L49.6227 71.7544L50.0151 71.7531V71.7506C50.0176 70.8436 49.723 70.0216 49.2059 69.336C48.4302 68.3068 47.19 67.5748 45.6823 67.0847C44.172 66.5971 42.3813 66.354 40.4607 66.3488H40.462H40.4169C37.8646 66.3514 35.5413 66.7721 33.8034 67.6404C32.9363 68.0765 32.2107 68.6284 31.6949 69.3128C31.179 69.9959 30.8831 70.8166 30.8831 71.7223L31.3655 71.7236L30.8844 71.7004L30.8831 71.73C30.8806 72.6357 31.1816 73.4243 31.7155 74.0315C32.5195 74.9448 33.7673 75.4684 35.266 75.7913C36.7686 76.1116 38.5413 76.2235 40.4401 76.2287L40.4414 75.7463ZM23.5749 45.6771V45.1946C21.1525 45.1921 18.9669 44.5514 17.4193 43.5531C15.8653 42.5484 14.9815 41.2247 14.9841 39.8315V39.8276H14.6187L14.9841 39.8392V39.8276H14.6187L14.9841 39.8392V39.825C14.9841 38.4318 15.8691 37.1133 17.4219 36.1137C18.9694 35.1206 21.1512 34.4863 23.5697 34.4876H23.5942H23.5968C26.0191 34.4902 28.2048 35.1308 29.7524 36.1304C31.3064 37.1351 32.1902 38.4576 32.1876 39.8508L32.1889 39.8816L32.67 39.8585L32.1876 39.8572C32.1876 41.2504 31.3025 42.569 29.7511 43.5686C28.2048 44.5617 26.0217 45.1959 23.6032 45.1946H23.5749V45.6771L23.5736 46.1595H23.6032C26.1889 46.1582 28.5367 45.4918 30.2721 44.3803C31.9998 43.2753 33.1473 41.684 33.1524 39.8598V39.8366L32.7575 39.8546L33.1524 39.8533V39.8366L32.7575 39.8546L33.1524 39.8533V39.8508C33.1499 38.0253 32.0036 36.4301 30.2746 35.3186C28.5392 34.202 26.1889 33.5292 23.598 33.5228H23.5993H23.5697C20.984 33.5241 18.6362 34.1905 16.9008 35.3019C15.1732 36.407 14.0244 37.9983 14.0192 39.8225L14.5016 39.8238L14.0192 39.8083V39.8315C14.0218 41.6569 15.168 43.2521 16.897 44.3636C18.6324 45.4802 20.984 46.153 23.5736 46.1595L23.5749 45.6771ZM75.5174 45.7774L75.9998 45.7787V45.6706C75.9998 35.8139 73.4179 26.706 69.0466 19.3424C68.9244 19.1366 68.6697 19.0516 68.4497 19.1417L62.9991 21.3659L67.0089 16.875C67.1594 16.7065 67.1723 16.4569 67.0424 16.2729C60.5793 7.20225 51.1356 1.44029 40.5855 1.41972H40.5314C30.0495 1.41972 20.6405 7.08775 14.1569 16.0478C14.0244 16.2305 14.0373 16.4814 14.1878 16.6512L18.2876 21.2798L12.6916 18.9706C12.4716 18.8793 12.2169 18.9629 12.0947 19.1674C7.65394 26.5516 5.0193 35.7149 5 45.6423V45.7311C5.00129 56.3391 8.60589 66.0697 14.0089 73.6892C14.1389 73.8719 14.3769 73.9414 14.5853 73.8565L17.948 72.4839L15.5822 75.1339C15.4266 75.3089 15.4189 75.5713 15.5642 75.7553C22.4814 84.467 31.7798 89.9756 40.4144 90H40.4491C48.6836 89.9884 58.0733 84.4477 65.1564 75.6691C65.3044 75.4864 65.298 75.224 65.1423 75.0477L62.9489 72.5713L66.0865 73.8668C66.2924 73.9517 66.5303 73.8848 66.6615 73.7034C72.1894 66.0993 75.978 56.3854 75.9998 45.7787L75.5174 45.7774H75.035C75.0157 56.1525 71.3043 65.676 65.8807 73.1374L66.2705 73.4204L66.4544 72.974L61.3885 70.8835C61.1813 70.7973 60.9407 70.8668 60.8108 71.0495C60.6809 71.2321 60.6938 71.4817 60.843 71.649L64.4193 75.6871L64.7808 75.3668L64.4052 75.0644C57.4661 83.6849 48.2436 89.0467 40.4491 89.0352H40.4157C32.2005 89.0275 23.095 83.7042 16.3207 75.1545L15.9425 75.4555L16.3027 75.7758L20.0578 71.5705C20.207 71.4032 20.2211 71.155 20.0912 70.971C19.9626 70.7883 19.7233 70.7176 19.5149 70.8025L14.2199 72.9637L14.4026 73.4101L14.7962 73.131C9.49741 65.6606 5.96483 56.1178 5.96483 45.7311V45.6436C5.98413 35.886 8.57502 26.8912 12.9219 19.6653L12.5077 19.417L12.3237 19.8621L19.8481 22.9676C20.0552 23.0525 20.2945 22.9843 20.4244 22.8016C20.5543 22.6189 20.5415 22.3694 20.3935 22.2008L14.9094 16.0105L14.5479 16.3308L14.939 16.6138C21.285 7.85063 30.4097 2.38454 40.5314 2.38454H40.5842C50.7702 2.40384 59.9296 7.96126 66.2563 16.8338L66.6487 16.5534L66.2885 16.2318L60.8893 22.2793C60.7401 22.4466 60.7259 22.6948 60.8559 22.8788C60.9845 23.0615 61.2238 23.1322 61.4322 23.0473L68.8138 20.0358L68.6311 19.5881L68.2169 19.8351C72.4956 27.0417 75.035 35.9824 75.035 45.6706V45.7774H75.5174Z" fill="#CEA561"/>
</svg>
