<svg width="110" height="90" viewBox="0 0 110 90" fill="none" xmlns="http://www.w3.org/2000/svg">
<path d="M93.6576 58.2978C94.7681 60.552 93.8369 63.2813 91.5802 64.3913L65.6136 77.1682C63.3598 78.2763 60.6319 77.3474 59.5205 75.0927L35.0468 25.354C33.9362 23.0987 34.8671 20.3699 37.1234 19.2614L63.09 6.48353C65.3443 5.37398 68.076 6.30285 69.185 8.55711L93.6576 58.2978Z" fill="#151515" fill-opacity="0.7"/>
<path d="M93.6616 58.2975L92.8806 58.682C93.1383 59.2061 93.2588 59.7563 93.2588 60.3012C93.2578 61.6608 92.5029 62.9693 91.1997 63.6101L65.233 76.387C64.7093 76.6443 64.1587 76.7642 63.6138 76.7647C62.2537 76.7637 60.9461 76.0097 60.3054 74.708L35.8317 24.9692C35.5734 24.4441 35.4521 23.8929 35.452 23.3485C35.4531 21.9885 36.2072 20.6814 37.511 20.0421L63.4779 7.26471C64.003 7.00648 64.5542 6.88555 65.0996 6.88506C66.4601 6.88603 67.7682 7.64001 68.4075 8.94131L92.8801 58.6815L93.6616 58.2975L94.4425 57.913L69.9699 8.17238C69.0261 6.25634 67.0999 5.14294 65.0996 5.14391C64.295 5.14391 63.4765 5.32457 62.709 5.70229L36.743 18.4796C34.8254 19.422 33.7098 21.3477 33.7109 23.3485C33.7107 24.1526 33.8916 24.9712 34.2693 25.7382L58.7434 75.4769C59.6882 77.3925 61.6134 78.5068 63.6138 78.5059C64.4169 78.5059 65.2345 78.3262 66.0015 77.9494L91.9686 65.1721C93.8851 64.2278 95.0014 62.3021 95 60.3012C95.0004 59.4981 94.8203 58.6796 94.4425 57.913L93.6616 58.2975Z" fill="#CEA561"/>
<path d="M88.6538 56.8513C89.6246 58.8213 88.953 61.1353 87.153 62.0204L66.4431 72.211C64.6408 73.097 62.3986 72.2154 61.4307 70.2473L40.0524 26.803C39.0858 24.834 39.752 22.521 41.5549 21.634L62.2675 11.4433C64.067 10.5583 66.3121 11.439 67.2776 13.4076L88.6538 56.8513Z" fill="#151515" fill-opacity="0.7"/>
<path d="M88.65 56.851L87.869 57.236C88.1114 57.7279 88.2241 58.2405 88.2241 58.7334C88.2241 59.2797 88.0844 59.799 87.8334 60.2317C87.5819 60.6648 87.2244 61.0117 86.7648 61.2391L66.0549 71.4297C65.7013 71.6032 65.3298 71.6841 64.9511 71.6846C63.897 71.688 62.7788 71.0275 62.2083 69.863L40.8296 26.4183C40.5881 25.9269 40.4754 25.4133 40.4754 24.9209C40.4754 24.3746 40.6145 23.8552 40.8653 23.4226C41.1169 22.9894 41.4738 22.6421 41.9352 22.4152L62.6477 12.224C63.0009 12.0506 63.3714 11.9696 63.7501 11.9692C64.8037 11.9658 65.9229 12.6263 66.4924 13.7908L66.4928 13.7917L87.869 57.2355L88.65 56.851L89.431 56.467L68.0548 13.0233L68.0553 13.0243C67.203 11.2898 65.5148 10.2309 63.7501 10.228C63.1175 10.2275 62.4762 10.3677 61.8793 10.6621L41.1668 20.8523C40.3849 21.2362 39.7687 21.8394 39.3583 22.5501C38.9467 23.2617 38.7344 24.0807 38.7344 24.9209C38.7344 25.6788 38.9077 26.4554 39.267 27.1867L60.6459 70.6314C61.4987 72.363 63.1854 73.4224 64.9511 73.4258C65.5832 73.4263 66.225 73.2861 66.8229 72.9922L87.5332 62.801C88.3142 62.4175 88.9294 61.8148 89.3404 61.1042C89.7518 60.3931 89.9648 59.5741 89.9648 58.7334C89.9648 57.9755 89.7913 57.1984 89.431 56.4666L88.65 56.851Z" fill="#CEA561"/>
<path d="M44.0316 24.8389C44.345 25.4748 44.0815 26.2457 43.4442 26.5579C42.81 26.8715 42.0399 26.6094 41.726 25.973C41.4138 25.3356 41.6726 24.5681 42.3104 24.255C42.9465 23.9413 43.719 24.2025 44.0316 24.8389Z" fill="#CEA561"/>
<path d="M49.2661 22.2614C49.5774 22.8973 49.3158 23.6682 48.6769 23.9813C48.0405 24.2945 47.2758 24.0309 46.9605 23.395C46.6479 22.7586 46.9072 21.9911 47.5452 21.677C48.1807 21.3638 48.9515 21.6249 49.2661 22.2614Z" fill="#CEA561"/>
<path d="M54.4992 19.6862C54.8119 20.3221 54.5493 21.093 53.9124 21.4057C53.275 21.7179 52.5085 21.4548 52.1954 20.8189C51.8807 20.1824 52.1443 19.4145 52.7812 19.1013C53.4128 18.7881 54.187 19.0493 54.4992 19.6862Z" fill="#CEA561"/>
<path d="M59.7399 17.1092C60.0526 17.7452 59.791 18.5155 59.156 18.8292C58.519 19.1419 57.7501 18.8788 57.4374 18.2433C57.1233 17.6064 57.3859 16.838 58.0219 16.5243C58.6578 16.2121 59.4277 16.4733 59.7399 17.1092Z" fill="#CEA561"/>
<path d="M64.9679 14.5346C65.2815 15.1705 65.0199 15.9399 64.3844 16.2536C63.7485 16.5667 62.9781 16.3042 62.6635 15.6687C62.3494 15.0328 62.6148 14.2638 63.2479 13.9497C63.8872 13.6361 64.6533 13.8977 64.9679 14.5346Z" fill="#CEA561"/>
<path d="M48.6078 26.746C48.9229 27.3829 48.6594 28.1518 48.0206 28.4669C47.3856 28.7796 46.6163 28.5165 46.3033 27.8806C45.992 27.2436 46.2521 26.4742 46.8892 26.1606C47.5262 25.8474 48.2976 26.109 48.6078 26.746Z" fill="#CEA561"/>
<path d="M53.8516 24.1706C54.1648 24.8075 53.9022 25.5764 53.2658 25.891C52.6279 26.2032 51.8618 25.9402 51.5458 25.3037C51.2336 24.6673 51.4952 23.8979 52.1307 23.5847C52.769 23.2716 53.5389 23.5332 53.8516 24.1706Z" fill="#CEA561"/>
<path d="M59.0841 21.595C59.3992 22.2314 59.1347 23.0027 58.5002 23.314C57.8637 23.6276 57.0939 23.3645 56.7807 22.7276C56.468 22.0912 56.7287 21.3228 57.3632 21.0082C57.9982 20.6964 58.7724 20.9576 59.0841 21.595Z" fill="#CEA561"/>
<path d="M64.3153 19.0195C64.629 19.6555 64.3683 20.4254 63.7338 20.7376C63.0945 21.0517 62.3275 20.7882 62.0168 20.1517C61.7021 19.5143 61.9604 18.7463 62.5963 18.4327C63.2347 18.1196 64.0012 18.3821 64.3153 19.0195Z" fill="#CEA561"/>
<path d="M47.377 31.6455C47.6876 32.2824 47.4241 33.0504 46.787 33.3636C46.1533 33.6767 45.384 33.4161 45.0712 32.7801C44.7563 32.1422 45.0164 31.3724 45.6537 31.0602C46.2907 30.7465 47.0633 31.0086 47.377 31.6455Z" fill="#CEA561"/>
<path d="M52.6155 29.0706C52.9296 29.7056 52.6637 30.4736 52.0292 30.7872C51.3918 31.1008 50.6262 30.8397 50.3126 30.2028C49.9994 29.5654 50.2582 28.796 50.8941 28.4838C51.5306 28.1702 52.3019 28.4322 52.6155 29.0706Z" fill="#CEA561"/>
<path d="M57.8503 26.4938C58.1615 27.1298 57.8994 27.8977 57.2635 28.2099C56.6275 28.5236 55.8596 28.2629 55.5474 27.627C55.2328 26.9886 55.4939 26.2192 56.1322 25.907C56.7658 25.5943 57.5371 25.8559 57.8503 26.4938Z" fill="#CEA561"/>
<path d="M63.0835 23.9181C63.3962 24.5531 63.1355 25.3221 62.4986 25.6347C61.8641 25.9484 61.0913 25.6877 60.7811 25.0518C60.4669 24.4139 60.7305 23.644 61.3645 23.3313C62.0014 23.0177 62.7708 23.2807 63.0835 23.9181Z" fill="#CEA561"/>
<path d="M68.3278 21.3412C68.6404 21.9766 68.3774 22.7451 67.7434 23.0592C67.105 23.3714 66.3327 23.1122 66.0219 22.4762C65.7097 21.8389 65.9738 21.0675 66.6068 20.7548C67.2428 20.4407 68.0132 20.7038 68.3278 21.3412Z" fill="#CEA561"/>
<path d="M51.9684 33.5522C52.2816 34.1877 52.019 34.9566 51.3806 35.2712C50.7447 35.5844 49.9753 35.3213 49.6626 34.6868C49.3519 34.0509 49.6106 33.2815 50.2475 32.9688C50.8839 32.6537 51.6538 32.9168 51.9684 33.5522Z" fill="#CEA561"/>
<path d="M57.2031 30.9768C57.5172 31.6118 57.2537 32.3802 56.6148 32.6953C55.9774 33.0075 55.2114 32.7464 54.8963 32.1109C54.586 31.4754 54.8467 30.7046 55.4831 30.3924C56.12 30.0773 56.8928 30.3408 57.2031 30.9768Z" fill="#CEA561"/>
<path d="M62.4357 28.4016C62.7493 29.0361 62.4848 29.806 61.8489 30.1196C61.211 30.4328 60.4449 30.1712 60.1342 29.5357C59.8181 28.8993 60.0798 28.1298 60.7152 27.8167C61.3512 27.503 62.1244 27.7656 62.4357 28.4016Z" fill="#CEA561"/>
<path d="M67.6681 25.8261C67.9784 26.4611 67.7192 27.23 67.0803 27.5436C66.4453 27.8553 65.6793 27.5923 65.3676 26.9583C65.0535 26.3223 65.3141 25.5534 65.9472 25.2412C66.586 24.9271 67.3549 25.1901 67.6681 25.8261Z" fill="#CEA561"/>
<path d="M50.7332 38.4495C51.0478 39.0869 50.7833 39.8578 50.1449 40.1704C49.5114 40.4836 48.7453 40.222 48.4283 39.5841C48.1176 38.9491 48.3758 38.1812 49.0137 37.8675C49.6516 37.5553 50.4224 37.8155 50.7332 38.4495Z" fill="#CEA561"/>
<path d="M55.9651 35.8734C56.2806 36.5113 56.0176 37.2817 55.3807 37.5949C54.7437 37.9075 53.9796 37.6445 53.6631 37.0071C53.3519 36.3735 53.6096 35.6046 54.2465 35.2915C54.882 34.9778 55.6543 35.2384 55.9651 35.8734Z" fill="#CEA561"/>
<path d="M61.2007 33.298C61.5134 33.9359 61.2489 34.7058 60.6134 35.018C59.9803 35.3316 59.2114 35.069 58.8997 34.4312C58.5846 33.7976 58.8433 33.0287 59.4822 32.7151C60.1177 32.4029 60.8875 32.6645 61.2007 33.298Z" fill="#CEA561"/>
<path d="M66.4357 30.7211C66.7484 31.3589 66.4863 32.1284 65.848 32.442C65.212 32.7556 64.4426 32.4921 64.1323 31.8547C63.8192 31.2212 64.0808 30.4522 64.7172 30.1381C65.3512 29.8264 66.1221 30.088 66.4357 30.7211Z" fill="#CEA561"/>
<path d="M71.669 28.1459C71.9856 28.7838 71.7201 29.5527 71.0846 29.8673C70.4458 30.1795 69.6778 29.9179 69.3671 29.2805C69.0525 28.6465 69.317 27.8771 69.952 27.563C70.586 27.2503 71.3559 27.5119 71.669 28.1459Z" fill="#CEA561"/>
<path d="M55.3127 40.3593C55.624 40.9958 55.3648 41.7647 54.7264 42.0788C54.0905 42.392 53.3215 42.1294 53.0084 41.493C52.6928 40.8575 52.9573 40.0886 53.5899 39.7744C54.2311 39.4613 54.9996 39.7234 55.3127 40.3593Z" fill="#CEA561"/>
<path d="M60.5465 37.7834C60.8635 38.4193 60.6009 39.1897 59.9611 39.5033C59.3247 39.8155 58.5567 39.5525 58.2416 38.9165C57.928 38.2815 58.1915 37.5121 58.8284 37.1985C59.4653 36.8848 60.2338 37.1469 60.5465 37.7834Z" fill="#CEA561"/>
<path d="M65.7815 35.2071C66.0951 35.8426 65.8316 36.6149 65.1928 36.9261C64.5597 37.2402 63.7884 36.9762 63.4757 36.3403C63.163 35.7053 63.4251 34.9364 64.0611 34.6218C64.697 34.31 65.4683 34.5707 65.7815 35.2071Z" fill="#CEA561"/>
<path d="M71.0139 32.6312C71.3232 33.2677 71.064 34.0375 70.4281 34.3493C69.7902 34.6629 69.0232 34.3989 68.7105 33.7639C68.3974 33.1284 68.659 32.3595 69.293 32.0473C69.9309 31.7327 70.6974 31.9958 71.0139 32.6312Z" fill="#CEA561"/>
<path d="M54.0798 45.2577C54.392 45.8922 54.1275 46.664 53.4906 46.9771C52.8561 47.2903 52.0876 47.0282 51.7721 46.3918C51.4608 45.7558 51.7205 44.9864 52.3593 44.6742C52.9958 44.3601 53.769 44.6217 54.0798 45.2577Z" fill="#CEA561"/>
<path d="M59.31 42.6818C59.6222 43.3172 59.361 44.0881 58.7232 44.4017C58.0877 44.7144 57.3202 44.4499 57.0066 43.8149C56.6958 43.179 56.9536 42.411 57.59 42.0978C58.224 41.7842 58.9963 42.0463 59.31 42.6818Z" fill="#CEA561"/>
<path d="M64.5519 40.1056C64.8636 40.7411 64.6015 41.5114 63.9665 41.8241C63.3315 42.1368 62.5631 41.8747 62.2504 41.2388C61.9367 40.6033 62.1955 39.8344 62.8329 39.5207C63.4678 39.208 64.2397 39.4701 64.5519 40.1056Z" fill="#CEA561"/>
<path d="M69.777 37.5293C70.0912 38.1648 69.8291 38.9352 69.1926 39.2488C68.5567 39.562 67.7882 39.2989 67.4756 38.663C67.1639 38.027 67.4235 37.2586 68.059 36.9445C68.695 36.6313 69.4658 36.8934 69.777 37.5293Z" fill="#CEA561"/>
<path d="M75.0149 34.9539C75.3315 35.5889 75.065 36.3588 74.4291 36.6729C73.7926 36.9851 73.0213 36.724 72.7106 36.0875C72.396 35.4525 72.6619 34.6817 73.2964 34.369C73.9333 34.0544 74.7018 34.3174 75.0149 34.9539Z" fill="#CEA561"/>
<path d="M58.6565 47.1658C58.9692 47.8008 58.709 48.5722 58.0721 48.8863C57.4347 49.1999 56.6668 48.9364 56.3507 48.3004C56.038 47.664 56.3001 46.8951 56.9351 46.5814C57.5773 46.2664 58.3458 46.5289 58.6565 47.1658Z" fill="#CEA561"/>
<path d="M63.8893 44.5899C64.2039 45.2249 63.9447 45.9957 63.3049 46.3094C62.6689 46.6225 61.8981 46.3595 61.5854 45.723C61.2732 45.0866 61.5319 44.3177 62.1698 44.004C62.8096 43.6894 63.5785 43.953 63.8893 44.5899Z" fill="#CEA561"/>
<path d="M69.1338 42.0149C69.4441 42.649 69.182 43.4212 68.5451 43.7334C67.9111 44.048 67.1383 43.784 66.828 43.1476C66.5153 42.5116 66.7731 41.7427 67.4134 41.4286C68.0484 41.1159 68.8178 41.3775 69.1338 42.0149Z" fill="#CEA561"/>
<path d="M74.3649 39.4394C74.6738 40.0734 74.4165 40.8443 73.7796 41.1579C73.1427 41.4721 72.3766 41.2061 72.064 40.5711C71.7469 39.9342 72.0114 39.1658 72.6455 38.8531C73.2809 38.5394 74.0499 38.8025 74.3649 39.4394Z" fill="#CEA561"/>
<path d="M57.4305 52.0632C57.7451 52.6992 57.4772 53.4705 56.8422 53.7832C56.2053 54.0959 55.4393 53.8333 55.1247 53.1978C54.8115 52.5614 55.0721 51.791 55.711 51.4783C56.344 51.1662 57.1159 51.4282 57.4305 52.0632Z" fill="#CEA561"/>
<path d="M62.6554 49.4879C62.9661 50.1244 62.7035 50.8952 62.0652 51.2074C61.4326 51.5196 60.6632 51.2566 60.351 50.6211C60.0388 49.9851 60.298 49.2157 60.9325 48.9031C61.5704 48.5904 62.3417 48.8515 62.6554 49.4879Z" fill="#CEA561"/>
<path d="M67.9036 46.9116C68.2172 47.548 67.9561 48.3189 67.3177 48.6306C66.6842 48.9437 65.9181 48.6812 65.6011 48.0442C65.2875 47.4088 65.5505 46.6394 66.1855 46.3272C66.8196 46.0145 67.5909 46.2756 67.9036 46.9116Z" fill="#CEA561"/>
<path d="M73.1299 44.3335C73.4445 44.9709 73.1819 45.7407 72.5474 46.0534C71.91 46.3666 71.143 46.104 70.826 45.4671C70.5157 44.8316 70.7764 44.0622 71.4133 43.7495C72.0473 43.4364 72.8191 43.6985 73.1299 44.3335Z" fill="#CEA561"/>
<path d="M78.3668 41.7594C78.6828 42.3963 78.4183 43.1657 77.7824 43.4783C77.146 43.7905 76.3737 43.5304 76.0615 42.894C75.7483 42.2585 76.0128 41.4867 76.6483 41.1745C77.2866 40.8613 78.0541 41.1234 78.3668 41.7594Z" fill="#CEA561"/>
<path d="M62.0075 53.9715C62.3221 54.6094 62.06 55.3769 61.4217 55.6915C60.7838 56.0056 60.0163 55.743 59.7017 55.1056C59.391 54.4711 59.6492 53.7012 60.2881 53.3891C60.9254 53.074 61.6977 53.337 62.0075 53.9715Z" fill="#CEA561"/>
<path d="M67.2399 51.3955C67.5536 52.0329 67.2934 52.8013 66.6531 53.1159C66.0186 53.4291 65.2502 53.1665 64.9375 52.5291C64.6248 51.8941 64.8826 51.1247 65.519 50.813C66.1569 50.4974 66.9282 50.7615 67.2399 51.3955Z" fill="#CEA561"/>
<path d="M72.4826 48.8183C72.7963 49.4557 72.5322 50.2256 71.8963 50.5388C71.2579 50.8519 70.4919 50.5894 70.1782 49.9524C69.8675 49.3179 70.1262 48.548 70.7626 48.2359C71.3986 47.9222 72.1704 48.1848 72.4826 48.8183Z" fill="#CEA561"/>
<path d="M77.7122 46.2448C78.0249 46.8817 77.7671 47.6511 77.1297 47.9643C76.4928 48.2765 75.7268 48.0134 75.4141 47.377C75.1005 46.7425 75.3616 45.9726 75.9932 45.6604C76.632 45.3472 77.4019 45.6098 77.7122 46.2448Z" fill="#CEA561"/>
<path d="M60.7774 58.8696C61.0945 59.507 60.8304 60.2783 60.194 60.591C59.5581 60.9051 58.7901 60.6421 58.4765 60.0042C58.1633 59.3697 58.423 58.5989 59.0599 58.2857C59.6968 57.973 60.4672 58.2361 60.7774 58.8696Z" fill="#CEA561"/>
<path d="M66.0148 56.2933C66.3256 56.9307 66.062 57.7011 65.4251 58.0142C64.7921 58.3284 64.0227 58.0634 63.7105 57.426C63.3983 56.7929 63.657 56.0226 64.2915 55.7094C64.9308 55.3962 65.6997 55.6598 66.0148 56.2933Z" fill="#CEA561"/>
<path d="M71.248 53.7171C71.5588 54.3544 71.2986 55.1248 70.6636 55.437C70.0243 55.7507 69.2583 55.4876 68.9446 54.8502C68.632 54.2162 68.8931 53.4458 69.529 53.1322C70.1631 52.8205 70.9354 53.0835 71.248 53.7171Z" fill="#CEA561"/>
<path d="M76.4831 51.141C76.7953 51.7784 76.5365 52.5488 75.8987 52.8619C75.2641 53.1756 74.4918 52.912 74.1792 52.2746C73.8665 51.6411 74.1267 50.8702 74.7636 50.5566C75.399 50.2425 76.1713 50.507 76.4831 51.141Z" fill="#CEA561"/>
<path d="M81.7191 48.565C82.0328 49.2024 81.7707 49.9718 81.1357 50.286C80.4988 50.5986 79.727 50.337 79.4124 49.6996C79.1002 49.0661 79.3652 48.2933 79.9982 47.9811C80.6361 47.666 81.4074 47.931 81.7191 48.565Z" fill="#CEA561"/>
<path d="M65.3566 60.7776C65.6736 61.4136 65.4087 62.1825 64.7708 62.4976C64.1353 62.8112 63.3669 62.5481 63.0547 61.9108C62.741 61.2758 63.0017 60.5073 63.6396 60.1937C64.276 59.8796 65.0459 60.1412 65.3566 60.7776Z" fill="#CEA561"/>
<path d="M70.5945 58.2028C70.9067 58.8397 70.6455 59.6077 70.0043 59.9228C69.3722 60.2355 68.6023 59.9734 68.2901 59.3364C67.9745 58.7005 68.2361 57.932 68.8735 57.6189C69.5124 57.3043 70.2808 57.5664 70.5945 58.2028Z" fill="#CEA561"/>
<path d="M75.8262 55.6254C76.1369 56.2623 75.8777 57.0332 75.2403 57.3459C74.6039 57.66 73.834 57.3969 73.5228 56.76C73.2101 56.1241 73.4712 55.3556 74.1072 55.0415C74.7412 54.7293 75.5159 54.99 75.8262 55.6254Z" fill="#CEA561"/>
<path d="M81.0583 53.051C81.369 53.6884 81.1088 54.4573 80.4753 54.77C79.8369 55.0841 79.0699 54.8196 78.7587 54.1836C78.4446 53.5477 78.7023 52.7797 79.3393 52.4666C79.9742 52.1534 80.7432 52.415 81.0583 53.051Z" fill="#CEA561"/>
<path d="M64.1238 65.6779C64.437 66.3124 64.1754 67.0837 63.537 67.3968C62.902 67.709 62.135 67.446 61.8199 66.8115C61.5077 66.1751 61.7655 65.4047 62.4039 65.093C63.0417 64.7793 63.8131 65.0419 64.1238 65.6779Z" fill="#CEA561"/>
<path d="M69.3571 63.1015C69.6698 63.7365 69.4053 64.5083 68.7693 64.821C68.131 65.1327 67.3659 64.8696 67.0537 64.2351C66.743 63.5992 66.9993 62.8288 67.6362 62.5166C68.2707 62.2035 69.0401 62.4656 69.3571 63.1015Z" fill="#CEA561"/>
<path d="M74.5884 60.5255C74.903 61.161 74.6395 61.9323 74.005 62.2445C73.3676 62.5567 72.5996 62.2937 72.2889 61.6582C71.9762 61.0222 72.2344 60.2524 72.8733 59.9406C73.5068 59.628 74.2786 59.8891 74.5884 60.5255Z" fill="#CEA561"/>
<path d="M79.8331 57.9493C80.1463 58.5848 79.8818 59.3551 79.2458 59.6692C78.6128 59.9814 77.8419 59.7189 77.5312 59.0829C77.2175 58.4465 77.4787 57.6766 78.1146 57.3644C78.7511 57.0512 79.5219 57.3129 79.8331 57.9493Z" fill="#CEA561"/>
<path d="M85.0707 55.3734C85.3829 56.0079 85.1194 56.7783 84.4873 57.0919C83.8484 57.4037 83.0766 57.1435 82.7639 56.507C82.4517 55.8716 82.7167 55.0998 83.3498 54.7876C83.9867 54.4744 84.758 54.736 85.0707 55.3734Z" fill="#CEA561"/>
<path d="M68.7036 67.5851C69.0158 68.2206 68.7556 68.9895 68.1163 69.3051C67.4818 69.6173 66.7114 69.3542 66.3978 68.7187C66.0846 68.0828 66.3472 67.3124 66.9836 67.0012C67.6215 66.6861 68.3904 66.9482 68.7036 67.5851Z" fill="#CEA561"/>
<path d="M73.9395 65.0095C74.2532 65.6449 73.9911 66.4139 73.3503 66.729C72.7148 67.0407 71.9474 66.7791 71.6318 66.1421C71.3191 65.5062 71.5817 64.7358 72.2196 64.4251C72.8574 64.109 73.6244 64.3735 73.9395 65.0095Z" fill="#CEA561"/>
<path d="M79.1788 62.4324C79.4895 63.0684 79.2294 63.8388 78.5925 64.1524C77.9551 64.4646 77.1871 64.2035 76.8763 63.5661C76.5603 62.9306 76.8219 62.1617 77.4588 61.848C78.0938 61.5349 78.8651 61.797 79.1788 62.4324Z" fill="#CEA561"/>
<path d="M84.4188 59.8583C84.7291 60.4942 84.4699 61.2641 83.834 61.5768C83.1961 61.8885 82.432 61.6259 82.1188 60.9904C81.8023 60.354 82.0644 59.5861 82.6984 59.2724C83.3368 58.9593 84.1023 59.2223 84.4188 59.8583Z" fill="#CEA561"/>
<path d="M64.0276 84.1299H20.9844V80.1311H64.0276V84.1299Z" fill="#151515" fill-opacity="0.7"/>
<path d="M64.0312 84.1299V83.2588H21.8584V81.0017H63.1602L63.1607 84.1299H64.0312H64.9014V79.2605H20.1172V85H64.9014V84.1299H64.0312Z" fill="#CEA561"/>
<path d="M64.0276 50.1396H20.9844V46.1418H64.0276V50.1396Z" fill="#151515" fill-opacity="0.7"/>
<path d="M64.0312 50.1402V49.2696H21.858V47.0129H63.1602L63.1607 50.1402H64.0312H64.9014V45.2717H20.1172V51.0107H64.9014V50.1402H64.0312Z" fill="#CEA561"/>
<path d="M66.2465 46.1416H18.7734C18.7734 46.1416 18.7734 40.9658 18.7734 38.4948C18.7734 33.6745 66.2465 34.615 66.2465 38.4948C66.2465 41.7887 66.2465 46.1416 66.2465 46.1416Z" fill="#151515" fill-opacity="0.7"/>
<path d="M66.2501 46.1421V45.2715H18.777V46.1421H19.6472C19.6472 46.1421 19.6472 40.9663 19.6472 38.4953H19.514L19.6422 38.5333L19.6472 38.4953H19.514L19.6422 38.5333L19.5846 38.516L19.6395 38.5405L19.6422 38.5333L19.5846 38.516L19.6395 38.5405L19.6544 38.5179C19.6966 38.4529 19.8991 38.277 20.2576 38.1069C20.883 37.8005 21.9371 37.4922 23.2715 37.2373C25.2777 36.8505 27.9284 36.5619 30.9148 36.3735C33.9018 36.1842 37.2282 36.0936 40.6078 36.0936C46.812 36.0931 53.2015 36.4 58.004 36.9574C60.4027 37.2344 62.4103 37.5784 63.7608 37.9595C64.4333 38.1469 64.9426 38.3517 65.2138 38.5155C65.3492 38.595 65.4195 38.6639 65.4258 38.674H65.4263L65.6759 38.4953H65.3791C65.3776 38.5921 65.4215 38.6716 65.4263 38.674L65.6759 38.4953H65.3791C65.3791 41.7892 65.3791 46.1421 65.3791 46.1421H66.2501H67.1202C67.1202 46.1421 67.1202 41.7892 67.1202 38.4953C67.1222 38.1262 66.9622 37.7962 66.7719 37.5693C66.5912 37.351 66.3817 37.1911 66.1514 37.048C65.7192 36.784 65.1979 36.5778 64.5687 36.3826C63.4703 36.0454 62.0432 35.7587 60.3502 35.5082C55.28 34.7605 47.834 34.3534 40.6078 34.3524C34.9803 34.3529 29.4995 34.6 25.3786 35.1406C23.3152 35.4128 21.5977 35.7525 20.3231 36.2005C19.6839 36.4284 19.1525 36.677 18.7179 37.0147C18.5015 37.1853 18.3063 37.3823 18.1553 37.63C18.0039 37.8757 17.9047 38.1816 17.9063 38.4953C17.9063 40.9663 17.9063 46.1421 17.9063 46.1421V47.0127H67.1202V46.1421H66.2501Z" fill="#CEA561"/>
<path d="M67.684 77.4257C67.684 79.9594 65.6321 82.0137 63.0951 82.0137H21.4607C18.9295 82.0137 16.875 79.9594 16.875 77.4257V52.7271C16.875 50.1948 18.9295 48.1405 21.4607 48.1405H63.0951C65.6321 48.1405 67.684 50.1948 67.684 52.7271V77.4257Z" fill="#151515" fill-opacity="0.7"/>
<path d="M67.6798 77.4262H66.8092C66.8088 78.4558 66.3949 79.3793 65.7209 80.0548C65.0459 80.7288 64.1219 81.1431 63.0908 81.1436H21.4565C20.4288 81.1436 19.5053 80.7293 18.8301 80.0548C18.156 79.3793 17.7415 78.4553 17.741 77.4262V52.7276C17.7415 51.699 18.1558 50.7754 18.8299 50.1004C19.5051 49.4264 20.4288 49.0121 21.4565 49.0116H63.0908C64.1219 49.0121 65.0459 49.4264 65.7214 50.1004C66.3949 50.7754 66.8088 51.699 66.8092 52.7276V77.4262H67.6798H68.5504V52.7276C68.5499 49.7141 66.1087 47.2709 63.0908 47.2705H21.4565C18.4437 47.2714 16.0007 49.7136 16 52.7276V77.4262C16.0007 80.4412 18.4435 82.8843 21.4565 82.8848H63.0908C66.1087 82.8848 68.5499 80.4402 68.5504 77.4262H67.6798Z" fill="#CEA561"/>
<path d="M21.5264 44.5544C21.5264 44.7803 21.2761 44.9648 20.9727 44.9648C20.6665 44.9648 20.4219 44.7803 20.4219 44.5544V39.9654C20.4219 39.739 20.6665 39.5549 20.9727 39.5549C21.2761 39.5549 21.5264 39.739 21.5264 39.9654V44.5544Z" fill="#CEA561"/>
<path d="M24.6468 44.5544C24.6468 44.7803 24.3969 44.9648 24.0926 44.9648C23.7849 44.9648 23.5391 44.7803 23.5391 44.5544V39.9654C23.5391 39.739 23.7849 39.5549 24.0926 39.5549C24.3969 39.5549 24.6468 39.739 24.6468 39.9654V44.5544Z" fill="#CEA561"/>
<path d="M27.7634 44.5544C27.7634 44.7803 27.5135 44.9648 27.2105 44.9648C26.9021 44.9648 26.6562 44.7803 26.6562 44.5544V39.9654C26.6562 39.739 26.9021 39.5549 27.2105 39.5549C27.5135 39.5549 27.7634 39.739 27.7634 39.9654V44.5544Z" fill="#CEA561"/>
<path d="M30.8863 44.5544C30.8863 44.7803 30.6388 44.9648 30.3332 44.9648C30.0302 44.9648 29.7812 44.7803 29.7812 44.5544V39.9654C29.7812 39.739 30.0302 39.5549 30.3332 39.5549C30.6388 39.5549 30.8863 39.739 30.8863 39.9654V44.5544Z" fill="#CEA561"/>
<path d="M34.0009 44.5544C34.0009 44.7803 33.751 44.9648 33.4491 44.9648C33.1442 44.9648 32.8984 44.7803 32.8984 44.5544V39.9654C32.8984 39.739 33.1442 39.5549 33.4491 39.5549C33.751 39.5549 34.0009 39.739 34.0009 39.9654V44.5544Z" fill="#CEA561"/>
<path d="M37.1156 44.5544C37.1156 44.7803 36.8655 44.9648 36.5644 44.9648C36.2614 44.9648 36.0156 44.7803 36.0156 44.5544V39.9654C36.0156 39.739 36.2614 39.5549 36.5644 39.5549C36.8655 39.5549 37.1156 39.739 37.1156 39.9654V44.5544Z" fill="#CEA561"/>
<path d="M40.232 44.5544C40.232 44.7803 39.9842 44.9648 39.6802 44.9648C39.3757 44.9648 39.125 44.7803 39.125 44.5544V39.9654C39.125 39.739 39.3757 39.5549 39.6802 39.5549C39.9842 39.5549 40.232 39.739 40.232 39.9654V44.5544Z" fill="#CEA561"/>
<path d="M43.3609 44.5544C43.3609 44.7803 43.115 44.9648 42.8108 44.9648C42.5055 44.9648 42.2578 44.7803 42.2578 44.5544V39.9654C42.2578 39.739 42.5055 39.5549 42.8108 39.5549C43.115 39.5549 43.3609 39.739 43.3609 39.9654V44.5544Z" fill="#CEA561"/>
<path d="M46.4793 44.5544C46.4793 44.7803 46.2291 44.9648 45.9261 44.9648C45.6238 44.9648 45.375 44.7803 45.375 44.5544V39.9654C45.375 39.739 45.6238 39.5549 45.9261 39.5549C46.2291 39.5549 46.4793 39.739 46.4793 39.9654V44.5544Z" fill="#CEA561"/>
<path d="M49.5872 44.5544C49.5872 44.7803 49.3405 44.9648 49.037 44.9648C48.7301 44.9648 48.4844 44.7803 48.4844 44.5544V39.9654C48.4844 39.739 48.7301 39.5549 49.037 39.5549C49.3405 39.5549 49.5872 39.739 49.5872 39.9654V44.5544Z" fill="#CEA561"/>
<path d="M52.7127 44.5544C52.7127 44.7803 52.467 44.9648 52.1615 44.9648C51.8585 44.9648 51.6094 44.7803 51.6094 44.5544V39.9654C51.6094 39.739 51.8585 39.5549 52.1615 39.5549C52.467 39.5549 52.7127 39.739 52.7127 39.9654V44.5544Z" fill="#CEA561"/>
<path d="M55.8259 44.5544C55.8259 44.7803 55.5782 44.9648 55.2718 44.9648C54.9673 44.9648 54.7188 44.7803 54.7188 44.5544V39.9654C54.7188 39.739 54.9673 39.5549 55.2718 39.5549C55.5782 39.5549 55.8259 39.739 55.8259 39.9654V44.5544Z" fill="#CEA561"/>
<path d="M58.9504 44.5544C58.9504 44.7803 58.7057 44.9648 58.3983 44.9648C58.0952 44.9648 57.8438 44.7803 57.8438 44.5544V39.9654C57.8438 39.739 58.0952 39.5549 58.3983 39.5549C58.7057 39.5549 58.9504 39.739 58.9504 39.9654V44.5544Z" fill="#CEA561"/>
<path d="M62.0661 44.5544C62.0661 44.7803 61.819 44.9648 61.514 44.9648C61.2095 44.9648 60.9609 44.7803 60.9609 44.5544V39.9654C60.9609 39.739 61.2095 39.5549 61.514 39.5549C61.819 39.5549 62.0661 39.739 62.0661 39.9654V44.5544Z" fill="#CEA561"/>
<path d="M65.18 44.5544C65.18 44.7803 64.9338 44.9648 64.6293 44.9648C64.3238 44.9648 64.0781 44.7803 64.0781 44.5544V39.9654C64.0781 39.739 64.3238 39.5549 64.6293 39.5549C64.9338 39.5549 65.18 39.739 65.18 39.9654V44.5544Z" fill="#CEA561"/>
<path d="M23.5391 63.8875C23.5391 69.9185 32.1662 74.8057 42.8053 74.8057C53.4424 74.8057 62.0682 69.9185 62.0682 63.8875C62.0682 57.8595 53.4424 52.9713 42.8053 52.9713C32.1662 52.9713 23.5391 57.8595 23.5391 63.8875Z" fill="#CEA561"/>
<path d="M41.8383 63.2041L40.7373 71.7852H38.5053L37.8293 67.0521L37.1917 71.7852H35.2683L34.2031 63.2041H35.8973L36.3706 67.1658L37.0214 63.2041H39.1455L39.6589 67.1658L40.2941 63.2041H41.8383Z" fill="#151515" fill-opacity="0.7"/>
<path d="M44.3698 70.4876V68.6982C43.9789 68.7941 43.7836 68.9695 43.7836 69.2248V70.4876C43.7836 70.6991 43.8852 70.8046 44.0885 70.8046C44.2763 70.8046 44.3698 70.6991 44.3698 70.4876ZM46.0752 71.786H44.5674V71.5166C44.4394 71.7599 44.0743 71.8818 43.4721 71.8818C42.5424 71.8818 42.0781 71.5186 42.0781 70.7925V69.3982C42.0781 69.087 42.1905 68.8158 42.4158 68.5845C42.6412 68.3533 43.0954 68.0642 43.7776 67.7168C44.1722 67.5179 44.3698 67.3579 44.3698 67.2384V66.2088C44.3698 65.9819 44.272 65.8682 44.0768 65.8682C43.8532 65.8682 43.7412 66.1453 43.7412 66.6998C43.7412 66.7995 43.7475 66.9474 43.7597 67.1425C43.7751 67.3381 43.7836 67.4856 43.7836 67.5853H42.1378V66.1973C42.1378 65.2597 42.8159 64.791 44.1722 64.791C45.4406 64.791 46.0752 65.2795 46.0752 66.257V71.786Z" fill="#151515" fill-opacity="0.7"/>
<path d="M51.0496 71.7852H49.1702L48.5843 69.9004L48.0336 71.7852H46.3281L47.6627 68.1111L46.3643 64.8383H48.1652L48.7457 66.6392L49.2068 64.8383H50.828L49.6852 68.1949L51.0496 71.7852Z" fill="#151515" fill-opacity="0.7"/>
<path d="M34.3379 57.3792C34.4084 57.5045 34.488 57.6437 34.5772 57.7974C34.6668 57.9506 34.7616 58.1125 34.8623 58.283C34.963 58.4531 35.0686 58.629 35.1776 58.8106C35.2869 58.9927 35.3974 59.1748 35.51 59.3584C35.6219 59.5415 35.733 59.7221 35.8431 59.9009C35.9531 60.0796 36.0595 60.2511 36.1624 60.4149C36.2653 60.5792 36.3634 60.7334 36.4556 60.8765C36.5479 61.0205 36.6316 61.1487 36.7063 61.2614C36.7063 60.8524 36.7072 60.48 36.7088 60.1437C36.7101 59.8079 36.7133 59.5048 36.7182 59.2346C36.7223 58.9643 36.7279 58.7243 36.7342 58.5143C36.7402 58.3042 36.7483 58.1202 36.7581 57.9622C36.768 57.8041 36.7791 57.6697 36.7925 57.5589C36.8051 57.4486 36.8202 57.3571 36.8371 57.2853C36.8508 57.2241 36.87 57.1735 36.8955 57.133L36.9824 57.0357L37.0902 56.9842L37.2126 56.9692C37.3148 56.9692 37.4211 56.9914 37.5312 57.0357V57.0588C37.4563 57.1639 37.3917 57.3016 37.3371 57.4707C37.2831 57.6403 37.237 57.8287 37.1988 58.0354C37.1608 58.2426 37.1298 58.4603 37.1062 58.6892C37.0822 58.9185 37.0639 59.1454 37.0498 59.3709C37.036 59.5959 37.0259 59.8122 37.0193 60.0203C37.0121 60.228 37.0065 60.413 37.0018 60.5768C36.9989 60.7204 36.9958 60.8606 36.9929 60.9969C36.9896 61.1337 36.9873 61.2706 36.9848 61.4069C36.9824 61.5437 36.9805 61.682 36.9788 61.8217C36.9773 61.9614 36.9769 62.105 36.9769 62.2534L36.6973 62.29L36.6561 62.2852C36.6103 62.2211 36.552 62.1354 36.481 62.0279C36.4099 61.92 36.3299 61.7967 36.2414 61.6579C36.153 61.5187 36.057 61.3669 35.9539 61.2022C35.851 61.0369 35.7442 60.8654 35.633 60.6866C35.5225 60.5079 35.41 60.3253 35.2954 60.1393C35.181 59.9529 35.0675 59.7684 34.9551 59.5848C34.8432 59.4017 34.734 59.223 34.6277 59.0491C34.5219 58.8751 34.4222 58.7113 34.329 58.5576C34.2356 58.4044 34.1512 58.2642 34.075 58.1375C33.9982 58.0108 33.9332 57.9029 33.8802 57.8143C33.8768 58.152 33.8721 58.4806 33.8649 58.8005C33.8583 59.1204 33.8495 59.4277 33.8386 59.7221C33.8279 60.017 33.816 60.2969 33.8034 60.5619C33.7902 60.8268 33.7761 61.073 33.761 61.3004C33.7501 61.4609 33.739 61.5972 33.7277 61.7104C33.7162 61.8236 33.7021 61.9181 33.6861 61.9932C33.6701 62.0689 33.6506 62.1291 33.6271 62.1729C33.603 62.2178 33.5738 62.2505 33.5386 62.2727C33.5036 62.2948 33.4612 62.3093 33.4128 62.3151C33.3639 62.3213 33.3056 62.3242 33.2388 62.3242H33.1767L33.1312 62.3233L33.06 62.3199L33.028 62.2968C33.0933 62.1489 33.1516 61.9831 33.203 61.7996C33.2542 61.6165 33.299 61.4223 33.337 61.2166C33.3752 61.0114 33.4086 60.7994 33.4367 60.5802C33.465 60.361 33.4882 60.1418 33.5066 59.9216C33.5249 59.7019 33.5399 59.4851 33.5512 59.2721C33.5631 59.0592 33.5713 58.8568 33.5775 58.6641C33.5835 58.4719 33.5873 58.2932 33.5892 58.1284C33.5907 57.9636 33.5913 57.82 33.5913 57.6977C33.5913 57.6321 33.5866 57.5758 33.5766 57.5295C33.5668 57.4828 33.5484 57.4443 33.5214 57.4149C33.4948 57.385 33.4586 57.3633 33.4128 57.3493C33.3667 57.3358 33.3075 57.3291 33.2341 57.3291C33.1823 57.3291 33.1234 57.332 33.0591 57.3383C32.9941 57.344 32.9204 57.3532 32.8379 57.3652L32.8125 57.1639C32.9408 57.1349 33.0568 57.1089 33.1607 57.0863C33.2646 57.0632 33.3583 57.0439 33.4426 57.029C33.5264 57.0135 33.6026 57.0015 33.6701 56.9933C33.7384 56.9851 33.7996 56.9808 33.8545 56.9808C33.911 56.9808 33.9605 56.9875 34.0025 57.001L34.1195 57.068C34.1553 57.0983 34.1901 57.1393 34.2244 57.1904C34.2588 57.2414 34.297 57.3045 34.3379 57.3792Z" fill="#151515" fill-opacity="0.7"/>
<path d="M38.4224 61.4725C38.4224 61.5318 38.4286 61.5886 38.4416 61.6431C38.4544 61.6975 38.4751 61.7452 38.5033 61.7862L38.6111 61.8835C38.6548 61.9071 38.7071 61.9187 38.7682 61.9187C38.8368 61.9187 38.9079 61.9028 38.981 61.871C39.0543 61.8387 39.1268 61.7948 39.1974 61.738C39.2683 61.6816 39.3364 61.6142 39.4014 61.5356C39.4665 61.4566 39.5248 61.3709 39.5766 61.2774C39.6281 61.1844 39.6716 61.0861 39.7058 60.9835C39.7401 60.8804 39.7627 60.7744 39.7736 60.666C39.6607 60.6694 39.5484 60.6761 39.4367 60.6877C39.3253 60.6993 39.2194 60.7171 39.1196 60.7417C39.0193 60.7662 38.9268 60.798 38.8411 60.838C38.7561 60.8775 38.6821 60.9267 38.6203 60.9855C38.5582 61.0447 38.5099 61.1141 38.4751 61.1941C38.4397 61.2745 38.4224 61.367 38.4224 61.4725ZM39.8286 59.899C39.8286 59.7781 39.8084 59.6736 39.7689 59.5849C39.7294 59.4967 39.6773 59.424 39.6133 59.3676C39.5491 59.3108 39.4769 59.2689 39.3959 59.2414C39.3144 59.2139 39.2335 59.2 39.1531 59.2C39.0444 59.2 38.9527 59.2115 38.8778 59.2347C38.8029 59.2578 38.7423 59.2891 38.6958 59.3286C38.6492 59.3681 38.6157 59.4153 38.5951 59.4693C38.5742 59.5237 38.5639 59.582 38.5639 59.6446C38.5639 59.7179 38.5776 59.7916 38.6043 59.8658C38.6309 59.94 38.6702 60.0118 38.722 60.0821L38.7131 60.1072C38.626 60.15 38.5381 60.1717 38.4496 60.1717C38.3979 60.1717 38.3493 60.163 38.3044 60.1471C38.259 60.1312 38.2201 60.1081 38.1877 60.0773C38.1546 60.0469 38.1288 60.0098 38.1096 59.965C38.0902 59.9212 38.0808 59.8711 38.0808 59.8162C38.0808 59.7266 38.1024 59.6413 38.1461 59.5623C38.1896 59.4828 38.2473 59.41 38.3188 59.3445C38.3908 59.279 38.4741 59.2202 38.5688 59.1682C38.6633 59.1161 38.7611 59.0723 38.8618 59.0366C38.9625 59.0005 39.0635 58.973 39.1654 58.9543C39.2668 58.935 39.3615 58.9254 39.4486 58.9254C39.6086 58.9254 39.7458 58.947 39.8592 58.9894C39.9731 59.0323 40.0653 59.0945 40.1365 59.1764C40.2074 59.2578 40.2598 59.357 40.2921 59.4726C40.325 59.5888 40.3416 59.7203 40.3416 59.8667C40.3416 59.9674 40.3373 60.0783 40.3288 60.1987C40.3203 60.3196 40.3109 60.4458 40.3 60.5779C40.2899 60.7099 40.2798 60.8462 40.2718 60.9869C40.2635 61.1271 40.2592 61.2668 40.2592 61.406C40.2592 61.6257 40.3 61.791 40.3815 61.9018C40.4634 62.0126 40.5706 62.068 40.7033 62.068C40.8209 62.068 40.9523 62.0242 41.0976 61.9374L41.1638 62.0357C41.0612 62.1383 40.9499 62.2159 40.8294 62.2694C40.709 62.3229 40.5819 62.3499 40.4492 62.3499C40.3501 62.3499 40.2582 62.3325 40.1745 62.2993C40.0904 62.2655 40.0179 62.2154 39.9566 62.1494C39.8956 62.0829 39.8483 61.9991 39.8144 61.8984C39.7811 61.7977 39.7642 61.6807 39.7642 61.5477L39.7679 61.4287C39.7699 61.3892 39.7751 61.3473 39.7824 61.3029H39.7689C39.7031 61.4345 39.6274 61.5636 39.5412 61.6913C39.4546 61.8184 39.3602 61.9322 39.257 62.0324C39.1539 62.1326 39.0438 62.2135 38.9271 62.2752C38.8104 62.3368 38.6877 62.3682 38.5597 62.3682C38.4544 62.3682 38.358 62.3498 38.2709 62.3128C38.1839 62.2761 38.1096 62.226 38.0478 62.162C37.9857 62.0979 37.9378 62.0218 37.9033 61.9341C37.869 61.8464 37.8516 61.75 37.8516 61.6465C37.8516 61.512 37.8766 61.3897 37.9265 61.2798C37.9758 61.17 38.0447 61.0717 38.1325 60.9845C38.2201 60.8973 38.3249 60.8221 38.4472 60.759C38.5695 60.6954 38.7022 60.6429 38.8458 60.601C38.9892 60.5591 39.1413 60.5277 39.3018 60.507C39.4622 60.4863 39.6253 60.4762 39.792 60.4762C39.8022 60.3798 39.8113 60.2869 39.8182 60.1968C39.8248 60.1067 39.8286 60.0074 39.8286 59.899Z" fill="#151515" fill-opacity="0.7"/>
<path d="M42.4446 57.3023C42.38 57.5923 42.3264 57.892 42.2831 58.2008C42.2395 58.5101 42.2022 58.8151 42.1717 59.1162C42.2436 59.1191 42.3132 59.1215 42.3813 59.1229C42.4491 59.1244 42.5127 59.1258 42.5717 59.1278C42.6303 59.1287 42.684 59.1297 42.732 59.1297C42.78 59.1297 42.8201 59.1297 42.852 59.1297C42.9911 59.1297 43.1046 59.1215 43.1936 59.1046L43.2119 59.1755L43.2184 59.2352C43.2184 59.3022 43.1906 59.346 43.1353 59.3658C43.0792 59.3855 42.9988 59.3956 42.8932 59.3956C42.7925 59.3956 42.6799 59.3894 42.5556 59.3773C42.4309 59.3648 42.2948 59.3532 42.1467 59.3426C42.1298 59.5064 42.1156 59.6654 42.1043 59.8206C42.093 59.9752 42.0837 60.1217 42.0765 60.259C42.0699 60.3963 42.0648 60.524 42.062 60.6415C42.0588 60.7591 42.0573 60.8612 42.0573 60.9484C42.0573 61.1117 42.0658 61.2577 42.0827 61.3859C42.0993 61.514 42.1294 61.6229 42.1717 61.712C42.2144 61.8017 42.2731 61.8701 42.3481 61.9173C42.423 61.9645 42.5178 61.9886 42.6322 61.9886C42.7145 61.9886 42.8067 61.9737 42.9085 61.9447C43.0095 61.9158 43.1253 61.8691 43.2552 61.805C43.2965 61.8465 43.3201 61.8966 43.3263 61.9563C43.2316 62.0189 43.136 62.0758 43.04 62.1269C42.9437 62.1779 42.849 62.2218 42.7561 62.2584C42.6627 62.295 42.5724 62.3234 42.4854 62.3432C42.3985 62.3629 42.3161 62.373 42.2384 62.373C42.136 62.373 42.0422 62.3543 41.9575 62.3172C41.8729 62.2796 41.7995 62.2131 41.7379 62.1177C41.6762 62.0223 41.6278 61.8937 41.5934 61.7318C41.5591 61.5699 41.542 61.3652 41.542 61.118C41.542 60.9788 41.5444 60.8357 41.5486 60.6883C41.5535 60.5413 41.5595 60.392 41.567 60.2407C41.5746 60.0894 41.5849 59.9381 41.5972 59.7873C41.6088 59.636 41.6229 59.4872 41.6382 59.3402C41.5178 59.3422 41.4055 59.347 41.3026 59.3557C41.1997 59.3638 41.111 59.3773 41.0382 59.3956L41.0312 59.3634L41.0781 59.2728C41.1093 59.2448 41.153 59.2193 41.2085 59.1962C41.2646 59.1731 41.3312 59.1543 41.409 59.1388C41.4871 59.1239 41.5727 59.1128 41.6659 59.1071C41.7006 58.7876 41.7383 58.4865 41.7778 58.2023C41.8173 57.918 41.8572 57.6646 41.897 57.442L41.9393 57.3432L42.0116 57.2816L42.1011 57.2493L42.1947 57.2401C42.2449 57.2401 42.2906 57.2454 42.3311 57.256L42.4446 57.3023Z" fill="#151515" fill-opacity="0.7"/>
<path d="M46.4269 58.9712C46.4132 59.1162 46.4003 59.2699 46.3887 59.4328C46.3774 59.5956 46.367 59.758 46.358 59.9208C46.3488 60.0832 46.342 60.2426 46.3373 60.3982C46.3328 60.5539 46.3303 60.6974 46.3303 60.829C46.3303 61.0776 46.345 61.2814 46.374 61.4394C46.4028 61.5974 46.4404 61.7217 46.4859 61.8128C46.5321 61.9033 46.5844 61.966 46.6431 62.0002C46.702 62.0349 46.7613 62.0517 46.8206 62.0517L46.925 62.0382L47.0219 62.005L47.1057 61.9626L47.171 61.9212L47.2468 62.0267C47.2023 62.0724 47.1518 62.1158 47.0954 62.1563C47.0389 62.1967 46.9796 62.2319 46.9171 62.2613C46.8539 62.2912 46.7886 62.3148 46.7199 62.3312C46.6512 62.348 46.5816 62.3567 46.5116 62.3567C46.4231 62.3567 46.3369 62.3389 46.2535 62.3037C46.1704 62.269 46.0964 62.2098 46.0317 62.1264C45.9665 62.0431 45.9144 61.9322 45.8749 61.7945C45.835 61.6562 45.8153 61.4847 45.8153 61.2799C45.8153 61.2144 45.8166 61.1484 45.8197 61.0819C45.8228 61.0154 45.8278 60.9451 45.8344 60.8699C45.8416 60.7952 45.8504 60.7148 45.8608 60.6295C45.8717 60.5437 45.8837 60.4493 45.8975 60.3457L45.8724 60.3409C45.7686 60.7244 45.6562 61.0458 45.5346 61.3054C45.4135 61.5651 45.2887 61.7742 45.161 61.9327C45.0337 62.0917 44.9057 62.2049 44.7777 62.2729C44.6492 62.3408 44.5268 62.375 44.4113 62.375C44.2737 62.375 44.1595 62.3379 44.0688 62.2637C43.9779 62.1895 43.9054 62.0893 43.8508 61.9616C43.7966 61.834 43.7586 61.686 43.7364 61.5174C43.7144 61.3483 43.7031 61.1691 43.7031 60.9802C43.7031 60.8198 43.7082 60.655 43.7182 60.4864C43.7279 60.3178 43.7413 60.1521 43.7573 59.9897C43.7733 59.8269 43.7916 59.6717 43.8122 59.5243C43.8324 59.3774 43.8537 59.2453 43.8753 59.1292L43.9129 59.0261L43.9737 58.9669L44.0494 58.9389L44.1316 58.9322C44.1834 58.9322 44.2319 58.9384 44.2771 58.9505C44.3223 58.963 44.3669 58.9804 44.4113 59.0035C44.3835 59.176 44.3581 59.348 44.3345 59.519C44.3104 59.69 44.2897 59.8558 44.2724 60.0167C44.2551 60.1781 44.2414 60.3332 44.2316 60.483C44.2212 60.6329 44.2163 60.7726 44.2163 60.9022C44.2163 61.0429 44.2235 61.1706 44.238 61.2857C44.2526 61.4013 44.2765 61.5001 44.3104 61.5825C44.3439 61.6649 44.3872 61.7284 44.4399 61.7737C44.4926 61.8185 44.5569 61.8412 44.6332 61.8412C44.7632 61.8412 44.8959 61.7713 45.0318 61.6316C45.1676 61.4919 45.2975 61.2876 45.4214 61.0188C45.5446 60.7504 45.65 60.4484 45.7372 60.113C45.8241 59.7782 45.88 59.4164 45.9044 59.0285L46.39 58.9688L46.4269 58.9712Z" fill="#151515" fill-opacity="0.7"/>
<path d="M47.6977 62.3135L47.6606 62.3111C47.6731 62.1665 47.6842 62.0085 47.6952 61.8375C47.7058 61.6664 47.716 61.4925 47.7246 61.3162C47.7343 61.1399 47.742 60.965 47.7487 60.7915C47.756 60.6186 47.7617 60.4567 47.767 60.3059C47.7728 60.1556 47.7767 60.0212 47.7791 59.9017C47.781 59.7827 47.782 59.6887 47.782 59.6203C47.782 59.5635 47.78 59.5148 47.7752 59.4734L47.7444 59.3703L47.6745 59.3096C47.6437 59.297 47.6027 59.2903 47.5507 59.2903L47.4707 59.2951L47.379 59.3086L47.2654 59.3327C47.2237 59.3423 47.1751 59.3544 47.1202 59.3683L47.0859 59.2031C47.3394 59.1116 47.5444 59.047 47.702 59.0094C47.8595 58.9723 47.965 58.9535 48.0204 58.9535C48.1211 58.9535 48.1934 58.9829 48.2368 59.0417C48.2806 59.1005 48.3018 59.1882 48.3018 59.3038C48.3018 59.3149 48.3008 59.3462 48.2975 59.3982C48.2946 59.4498 48.2902 59.5177 48.2849 59.6006C48.2796 59.6839 48.2729 59.7807 48.2652 59.8906C48.258 60.0004 48.2488 60.1185 48.2392 60.2442C48.2291 60.3705 48.2185 60.5015 48.2059 60.6383C48.1939 60.7751 48.1809 60.911 48.1669 61.0469L48.19 61.0493C48.2628 60.7501 48.3457 60.4711 48.4386 60.2124C48.5307 59.9532 48.6347 59.7287 48.7499 59.5379C48.865 59.3467 48.9917 59.1968 49.13 59.0875C49.2683 58.9786 49.42 58.9237 49.5848 58.9237C49.6431 58.9237 49.697 58.9328 49.7472 58.9511C49.7977 58.9694 49.8416 58.9954 49.8777 59.0282C49.9143 59.061 49.9437 59.0995 49.9649 59.1448C49.9866 59.1896 49.9972 59.2392 49.9972 59.2927C49.9972 59.3611 49.9823 59.4276 49.9524 59.4907C49.9225 59.5538 49.8758 59.6102 49.8112 59.6593H49.7929C49.7289 59.6054 49.6681 59.5673 49.6108 59.5432C49.554 59.5196 49.4933 59.5081 49.4287 59.5081C49.3603 59.5081 49.2938 59.5206 49.2297 59.5471C49.1652 59.5726 49.1064 59.6102 49.0534 59.6593C48.9662 59.7384 48.8852 59.8434 48.8106 59.974C48.7359 60.1045 48.6675 60.249 48.6053 60.408C48.5437 60.567 48.4878 60.7337 48.4386 60.9086C48.3885 61.0835 48.3457 61.2536 48.31 61.4193C48.2743 61.585 48.245 61.7406 48.2228 61.8866C48.2011 62.0321 48.1852 62.155 48.1761 62.2542L47.6977 62.3135Z" fill="#151515" fill-opacity="0.7"/>
<path d="M50.5079 61.4725C50.5079 61.5318 50.5142 61.5886 50.5272 61.6431C50.5402 61.6975 50.5609 61.7452 50.5889 61.7862L50.6968 61.8835C50.7406 61.9071 50.7927 61.9187 50.8539 61.9187C50.9227 61.9187 50.9936 61.9028 51.0668 61.871C51.14 61.8387 51.2123 61.7948 51.2831 61.738C51.3539 61.6816 51.4224 61.6142 51.4874 61.5356C51.552 61.4566 51.6103 61.3709 51.6623 61.2774C51.7138 61.1844 51.7572 61.0861 51.7914 60.9835C51.8261 60.8804 51.8487 60.7744 51.8593 60.666C51.7466 60.6694 51.6339 60.6761 51.5226 60.6877C51.4108 60.6993 51.3053 60.7171 51.2055 60.7417C51.1053 60.7662 51.0124 60.798 50.9271 60.838C50.8418 60.8775 50.7676 60.9267 50.7064 60.9855C50.6443 61.0447 50.5956 61.1141 50.5609 61.1941C50.5258 61.2745 50.5079 61.367 50.5079 61.4725ZM51.9143 59.899C51.9143 59.7781 51.894 59.6736 51.8545 59.5849C51.815 59.4967 51.763 59.424 51.6989 59.3676C51.6348 59.3108 51.5626 59.2689 51.4816 59.2414C51.4002 59.2139 51.3193 59.2 51.2388 59.2C51.1299 59.2 51.0384 59.2115 50.9637 59.2347C50.8885 59.2578 50.8278 59.2891 50.7816 59.3286C50.7349 59.3681 50.7016 59.4153 50.6809 59.4693C50.6602 59.5237 50.6496 59.582 50.6496 59.6446C50.6496 59.7179 50.6635 59.7916 50.69 59.8658C50.7165 59.94 50.7561 60.0118 50.8076 60.0821L50.7989 60.1072C50.7117 60.15 50.624 60.1717 50.5354 60.1717C50.4838 60.1717 50.4352 60.163 50.3899 60.1471C50.3451 60.1312 50.3056 60.1081 50.2733 60.0773C50.2405 60.0469 50.2145 60.0098 50.1953 59.965C50.176 59.9212 50.1663 59.8711 50.1663 59.8162C50.1663 59.7266 50.188 59.6413 50.2319 59.5623C50.2752 59.4828 50.333 59.41 50.4048 59.3445C50.4766 59.279 50.56 59.2202 50.6544 59.1682C50.7488 59.1161 50.8471 59.0723 50.9473 59.0366C51.048 59.0005 51.1492 58.973 51.2508 58.9543C51.3525 58.935 51.4474 58.9254 51.5341 58.9254C51.6941 58.9254 51.8314 58.947 51.9451 58.9894C52.0588 59.0323 52.1513 59.0945 52.2221 59.1764C52.2929 59.2578 52.3454 59.357 52.3777 59.4726C52.411 59.5888 52.4274 59.7203 52.4274 59.8667C52.4274 59.9674 52.423 60.0783 52.4143 60.1987C52.4062 60.3196 52.3965 60.4458 52.3859 60.5779C52.3753 60.7099 52.3657 60.8462 52.3575 60.9869C52.3493 61.1271 52.345 61.2668 52.345 61.406C52.345 61.6257 52.3859 61.791 52.4673 61.9018C52.5492 62.0126 52.6562 62.068 52.7892 62.068C52.9067 62.068 53.0378 62.0242 53.1833 61.9374L53.2498 62.0357C53.1471 62.1383 53.0354 62.2159 52.9149 62.2694C52.7945 62.3229 52.6678 62.3499 52.5348 62.3499C52.4355 62.3499 52.344 62.3325 52.2602 62.2993C52.1759 62.2655 52.1036 62.2154 52.0424 62.1494C51.9812 62.0829 51.934 61.9991 51.9003 61.8984C51.867 61.7977 51.8502 61.6807 51.8502 61.5477L51.8535 61.4287C51.8555 61.3892 51.8608 61.3473 51.8685 61.3029H51.8545C51.789 61.4345 51.7129 61.5636 51.6271 61.6913C51.5404 61.8184 51.446 61.9322 51.3429 62.0324C51.2398 62.1326 51.1294 62.2135 51.0128 62.2752C50.8962 62.3368 50.7734 62.3682 50.6457 62.3682C50.5402 62.3682 50.4439 62.3498 50.3566 62.3128C50.2694 62.2761 50.1953 62.226 50.1336 62.162C50.0714 62.0979 50.0237 62.0218 49.989 61.9341C49.9548 61.8464 49.9375 61.75 49.9375 61.6465C49.9375 61.512 49.9626 61.3897 50.0122 61.2798C50.0618 61.17 50.1302 61.0717 50.2184 60.9845C50.3056 60.8973 50.4106 60.8221 50.533 60.759C50.6554 60.6954 50.7878 60.6429 50.9314 60.601C51.075 60.5591 51.2272 60.5277 51.3877 60.507C51.5481 60.4863 51.7109 60.4762 51.8776 60.4762C51.8882 60.3798 51.8969 60.2869 51.9041 60.1968C51.9109 60.1067 51.9143 60.0074 51.9143 59.899Z" fill="#151515" fill-opacity="0.7"/>
<path d="M54.4727 56.1063C54.4419 56.3659 54.412 56.6319 54.3822 56.9046C54.3528 57.1768 54.3243 57.4524 54.2974 57.7313C54.2709 58.0098 54.2458 58.2897 54.2232 58.5706C54.2 58.8515 54.1803 59.1285 54.1634 59.4007C54.1466 59.6734 54.134 59.9412 54.1244 60.2038C54.1157 60.4664 54.1109 60.7184 54.1109 60.9597C54.1109 61.111 54.1128 61.2406 54.1167 61.349C54.1201 61.4574 54.1263 61.549 54.135 61.6236C54.1432 61.6988 54.1548 61.759 54.1692 61.8048C54.1837 61.8506 54.2015 61.8857 54.2232 61.9103L54.2983 61.9594L54.4014 61.972C54.4751 61.972 54.5541 61.9609 54.6389 61.9387C54.7233 61.9165 54.8095 61.8857 54.8967 61.8462L54.9401 61.9652C54.8851 62.0095 54.8162 62.0543 54.7329 62.1001C54.6495 62.1459 54.5619 62.1883 54.4703 62.2263C54.3788 62.2644 54.2892 62.2952 54.201 62.3188C54.1138 62.3424 54.0372 62.3545 53.9736 62.3545C53.8912 62.3545 53.8257 62.3333 53.7775 62.2914C53.7298 62.2495 53.6932 62.181 53.6677 62.0866C53.6426 61.9917 53.6267 61.8689 53.6195 61.7166C53.6127 61.5649 53.6094 61.3794 53.6094 61.1611C53.6094 61.0816 53.6118 60.9684 53.6161 60.821C53.6205 60.674 53.6272 60.5025 53.6354 60.3069C53.6441 60.1113 53.6537 59.8979 53.6643 59.6657C53.6754 59.4334 53.6865 59.1935 53.6985 58.9454C53.711 58.6968 53.7236 58.4463 53.7375 58.1938C53.7515 57.9414 53.765 57.6966 53.7785 57.461C53.7925 57.225 53.8055 57.0024 53.8175 56.7933C53.83 56.5842 53.8411 56.3992 53.8522 56.2388L53.884 56.1438L53.9606 56.0798L54.0661 56.0441L54.1841 56.033C54.2762 56.033 54.372 56.0571 54.4727 56.1063Z" fill="#151515" fill-opacity="0.7"/>
</svg>
