<svg width="24" height="24" viewBox="0 0 24 24" fill="none" xmlns="http://www.w3.org/2000/svg">
<path fill-rule="evenodd" clip-rule="evenodd" d="M12.0002 21.1908L12.7214 20.3782C13.5396 19.4411 14.2756 18.5519 14.9305 17.7062L15.4711 16.9931C17.7282 13.9519 18.8574 11.5382 18.8574 9.75423C18.8574 5.94623 15.7876 2.85938 12.0002 2.85938C8.21278 2.85938 5.14307 5.94623 5.14307 9.75423C5.14307 11.5382 6.27221 13.9519 8.52935 16.9931L9.06992 17.7062C10.0041 18.9033 10.9815 20.0648 12.0002 21.1908Z" stroke="white" stroke-opacity="0.5" stroke-width="1.14286" stroke-linecap="round" stroke-linejoin="round"/>
<path d="M12.0002 12.5737C13.5782 12.5737 14.8574 11.2945 14.8574 9.71652C14.8574 8.13856 13.5782 6.85938 12.0002 6.85938C10.4223 6.85938 9.14307 8.13856 9.14307 9.71652C9.14307 11.2945 10.4223 12.5737 12.0002 12.5737Z" stroke="white" stroke-opacity="0.5" stroke-width="1.14286" stroke-linecap="round" stroke-linejoin="round"/>
</svg>
