<svg width="24" height="24" viewBox="0 0 24 24" fill="none" xmlns="http://www.w3.org/2000/svg">
<path d="M9.65412 6.2335C9.43965 5.51807 9.29219 4.78424 9.21362 4.0415C9.13512 3.301 8.48862 2.75 7.74412 2.75H4.29012C3.40162 2.75 2.71762 3.5175 2.79562 4.402C3.58312 13.3165 10.6841 20.417 19.5986 21.205C20.4836 21.283 21.2506 20.6015 21.2506 19.713V16.633C21.2506 15.509 20.6996 14.865 19.9591 14.7865C19.2164 14.7081 18.4826 14.5608 17.7671 14.3465C17.3429 14.2207 16.8926 14.2121 16.4639 14.3215C16.0352 14.4309 15.6441 14.6543 15.3321 14.968L13.8536 16.4465C11.1873 15.002 8.99861 12.8133 7.55412 10.147L9.03262 8.6685C9.34639 8.35653 9.56987 7.96547 9.67938 7.53677C9.78889 7.10807 9.77983 6.65773 9.65412 6.2335Z" stroke="white" stroke-opacity="0.5" stroke-width="0.5" stroke-linecap="round" stroke-linejoin="round"/>
</svg>
