<svg width="22" height="22" viewBox="0 0 22 22" fill="none" xmlns="http://www.w3.org/2000/svg">
<path d="M18.9982 18.9981L15.1378 15.1377M15.1378 15.1377C15.7981 14.4773 16.3219 13.6934 16.6793 12.8306C17.0367 11.9678 17.2206 11.0431 17.2206 10.1092C17.2206 9.17536 17.0367 8.25063 16.6793 7.38785C16.3219 6.52507 15.7981 5.74112 15.1378 5.08078C14.4774 4.42043 13.6935 3.89662 12.8307 3.53924C11.9679 3.18186 11.0432 2.99792 10.1093 2.99792C9.17547 2.99792 8.25075 3.18186 7.38797 3.53924C6.52518 3.89662 5.74124 4.42043 5.0809 5.08078C3.74727 6.4144 2.99805 8.22319 2.99805 10.1092C2.99805 11.9953 3.74727 13.804 5.0809 15.1377C6.41452 16.4713 8.22331 17.2205 10.1093 17.2205C11.9954 17.2205 13.8042 16.4713 15.1378 15.1377Z" stroke="#151515" stroke-linecap="round" stroke-linejoin="round"/>
</svg>
