<svg width="110" height="90" viewBox="0 0 110 90" fill="none" xmlns="http://www.w3.org/2000/svg">
<path d="M93.3069 37.5446H89.3826C88.9664 37.5446 88.6394 37.8122 88.6394 38.1527V39.0649C88.6394 39.2838 88.4313 39.4663 88.1637 39.4663C87.8961 39.4663 87.6732 39.2838 87.6732 39.0649V36.4865C87.6732 36.146 87.3461 35.8784 86.9299 35.8784H65.4799C65.0637 35.8784 64.7367 36.146 64.7367 36.4865V39.0649C64.7367 39.2838 64.5137 39.4663 64.2461 39.4663C63.9786 39.4663 63.7705 39.2838 63.7705 39.0649V38.1527C63.7705 37.8122 63.4434 37.5446 63.0272 37.5446H59.1178C58.7015 37.5446 58.3745 37.8122 58.3745 38.1527V81.6568C58.3745 81.9973 58.7015 82.2649 59.1178 82.2649H63.0272C63.4434 82.2649 63.7705 81.9973 63.7705 81.6568V80.7446C63.7705 80.5257 63.9786 80.3433 64.2461 80.3433C64.5137 80.3433 64.7367 80.5257 64.7367 80.7446V83.323C64.7367 83.6636 65.0637 83.9311 65.4799 83.9311H86.9448C87.361 83.9311 87.688 83.6636 87.688 83.323V80.7446C87.688 80.5257 87.911 80.3433 88.1786 80.3433C88.4461 80.3433 88.6542 80.5257 88.6542 80.7446V81.6568C88.6542 81.9973 88.9813 82.2649 89.3975 82.2649H93.3218C93.738 82.2649 94.065 81.9973 94.065 81.6568V38.1527C94.0612 37.9904 93.9796 37.8357 93.8378 37.722C93.6961 37.6083 93.5055 37.5446 93.3069 37.5446ZM92.5637 81.0365H90.1259V80.7325C90.1259 79.8446 89.2488 79.1149 88.1637 79.1149C87.0786 79.1149 86.1867 79.8446 86.1867 80.7325V82.7027H66.2232V80.7325C66.2232 79.8446 65.3313 79.1149 64.2461 79.1149C63.161 79.1149 62.284 79.8446 62.284 80.7325V81.0365H59.861V38.7609H62.284V39.0649C62.284 39.9527 63.161 40.6825 64.2461 40.6825C65.3313 40.6825 66.2232 39.9527 66.2232 39.0649V37.0946H86.2015V39.0649C86.2015 39.9527 87.0934 40.6825 88.1786 40.6825C89.2637 40.6825 90.1407 39.9527 90.1407 39.0649V38.7609H92.5786V81.0365H92.5637Z" fill="#CEA561"/>
<path d="M80.9689 60.5068C80.9689 59.1446 80.1216 57.9162 78.7243 57.1986V50.1446L79.5419 49.4757C79.6756 49.3662 79.7648 49.2081 79.7648 49.05C79.7648 48.8919 79.6905 48.7338 79.5419 48.6243L78.7243 47.9554V42.2392C78.7243 41.8986 78.3973 41.6311 77.981 41.6311H74.4432C74.027 41.6311 73.7 41.8986 73.7 42.2392V47.9676L72.8824 48.6365C72.5851 48.8797 72.5851 49.2568 72.8824 49.5L73.7 50.1689V57.2108C72.3027 57.9162 71.4554 59.1446 71.4554 60.5189C71.4554 61.8932 72.3027 63.1216 73.7 63.827V70.8811L72.8824 71.55C72.5851 71.7932 72.5851 72.1703 72.8824 72.4135L73.7 73.0824V77.5946C73.7 77.9351 74.027 78.2027 74.4432 78.2027H77.981C78.3973 78.2027 78.7243 77.9351 78.7243 77.5946V73.0703L79.5419 72.4013C79.6756 72.2919 79.7648 72.1338 79.7648 71.9757C79.7648 71.8176 79.6905 71.6595 79.5419 71.55L78.7243 70.8811V63.8392C80.1216 63.0973 80.9689 61.8568 80.9689 60.5068ZM77.6392 62.9149C77.5141 62.965 77.4087 63.0429 77.3351 63.1397C77.2615 63.2364 77.2227 63.3482 77.2229 63.4622V71.1122C77.2229 71.2703 77.2973 71.4284 77.4459 71.5378L77.9513 71.9514L77.4459 72.3649C77.3072 72.4779 77.2273 72.6304 77.2229 72.7905V76.95H75.1716V72.8027C75.1728 72.7229 75.1536 72.6439 75.1152 72.5706C75.0767 72.4972 75.02 72.4313 74.9486 72.377L74.4432 71.9635L74.9486 71.55C75.0873 71.437 75.1672 71.2844 75.1716 71.1243V63.4622C75.1719 63.3482 75.133 63.2364 75.0594 63.1397C74.9858 63.0429 74.8805 62.965 74.7554 62.9149C73.6256 62.4649 72.927 61.5405 72.927 60.5068C72.927 59.473 73.6256 58.5486 74.7554 58.0986C74.8805 58.0485 74.9858 57.9706 75.0594 57.8738C75.133 57.7771 75.1719 57.6653 75.1716 57.5513V49.9013C75.1728 49.8216 75.1536 49.7425 75.1152 49.6692C75.0767 49.5959 75.02 49.53 74.9486 49.4757L74.4432 49.0622L74.9486 48.6486C75.0873 48.5356 75.1672 48.3831 75.1716 48.223V42.8473H77.2229V48.2108C77.2229 48.3689 77.2973 48.527 77.4459 48.6365L77.9513 49.05L77.4459 49.4635C77.3072 49.5765 77.2273 49.7291 77.2229 49.8892V57.5513C77.2229 57.7824 77.3865 57.9892 77.6392 58.0986C78.7689 58.5608 79.4824 59.4851 79.4824 60.5068C79.4824 61.5284 78.7838 62.4405 77.6392 62.9149ZM64.5432 42.2514C64.127 42.2514 63.8 42.5189 63.8 42.8595V76.9257C63.8 77.2662 64.127 77.5338 64.5432 77.5338C64.9594 77.5338 65.2865 77.2662 65.2865 76.9257V42.8595C65.2865 42.5311 64.9594 42.2514 64.5432 42.2514ZM87.8662 42.2514C87.45 42.2514 87.1229 42.5189 87.1229 42.8595V76.9257C87.1229 77.2662 87.45 77.5338 87.8662 77.5338C88.2824 77.5338 88.6094 77.2662 88.6094 76.9257V42.8595C88.6094 42.5311 88.2824 42.2514 87.8662 42.2514ZM43.8067 57.5513C44.2229 57.5513 44.55 57.2838 44.55 56.9432V31.5122C44.55 31.1716 44.2229 30.9041 43.8067 30.9041C43.3905 30.9041 43.0635 31.1716 43.0635 31.5122V56.9432C43.0635 57.2838 43.3905 57.5513 43.8067 57.5513Z" fill="#CEA561"/>
<path d="M67.9921 21.3202C68.4083 21.3202 68.7353 21.0527 68.7353 20.7121V17.2824H73.7299C74.1461 17.2824 74.4732 17.0148 74.4732 16.6743V6.68916C74.4732 6.34862 74.1461 6.08105 73.7299 6.08105H16.6934C16.2772 6.08105 15.9502 6.34862 15.9502 6.68916V16.6743C15.9502 17.0148 16.2772 17.2824 16.6934 17.2824H21.688V20.7121C21.688 21.0527 22.0151 21.3202 22.4313 21.3202H38.2178V81.5229C38.2178 82.8486 39.5259 83.9189 41.1461 83.9189H49.2772C50.8975 83.9189 52.2056 82.8486 52.2056 81.5229V21.3202H67.9921ZM17.4367 7.29727H72.9867V16.0662H17.4367V7.29727ZM23.1745 17.2824H67.2488V20.104H23.1745V17.2824ZM50.7191 81.5229C50.7191 82.1797 50.0651 82.7027 49.2772 82.7027H41.1461C40.7637 82.7027 40.397 82.5784 40.1266 82.3571C39.8562 82.1359 39.7043 81.8358 39.7043 81.5229V79.8567H50.7191V81.5229ZM50.7191 78.6405H39.7043V21.3202H50.7191V78.6405Z" fill="#CEA561"/>
<path d="M68.4233 13.3297C68.8395 13.3297 69.1665 13.0622 69.1665 12.7216C69.1665 12.3811 68.8395 12.1135 68.4233 12.1135H21.9854C21.5692 12.1135 21.2422 12.3811 21.2422 12.7216C21.2422 13.0622 21.5692 13.3297 21.9854 13.3297H68.4233Z" fill="#CEA561"/>
</svg>
