<svg width="40" height="40" viewBox="0 0 40 40" fill="none" xmlns="http://www.w3.org/2000/svg">
<path d="M33.115 11.8664C32.133 12.3023 31.0909 12.588 30.0238 12.7139C31.1442 12.0389 31.9839 10.9827 32.3888 9.73886C31.332 10.3644 30.1763 10.8053 28.9713 11.0426C28.1603 10.1789 27.087 9.60675 25.9178 9.41486C24.7487 9.22296 23.5488 9.42202 22.5043 9.98118C21.4597 10.5403 20.6287 11.4284 20.14 12.5077C19.6513 13.5871 19.5323 14.7975 19.8013 15.9514C17.6614 15.8437 15.568 15.2873 13.657 14.3182C11.746 13.3491 10.0601 11.9891 8.70879 10.3264C8.23027 11.1479 7.97876 12.0819 7.98004 13.0326C7.979 13.9186 8.19699 14.7911 8.61462 15.5725C9.03225 16.3539 9.63657 17.0199 10.3738 17.5114C9.51927 17.4849 8.68349 17.2543 7.93629 16.8389V16.9051C7.93573 18.1481 8.36546 19.3529 9.15251 20.3149C9.93955 21.277 11.0354 21.9369 12.2538 22.1826C11.8038 22.3076 11.3288 22.3664 10.8363 22.3664C10.4888 22.3664 10.1525 22.3376 9.82379 22.2714C10.1678 23.3406 10.8372 24.2756 11.7386 24.9457C12.64 25.6158 13.7283 25.9875 14.8513 26.0089C12.5927 27.7721 9.72911 28.5718 6.88379 28.2339C9.34326 29.8187 12.2079 30.6598 15.1338 30.6564C25.0338 30.6564 30.4438 22.4539 30.4438 15.3439C30.4438 15.1101 30.4413 14.8789 30.4313 14.6476C31.4854 13.8899 32.3942 12.9481 33.1138 11.8676" fill="white" fill-opacity="0.8"/>
<rect x="0.5" y="0.5" width="39" height="39" rx="6.16667" stroke="white"/>
</svg>
