<svg width="173" height="36" viewBox="0 0 173 36" fill="none" xmlns="http://www.w3.org/2000/svg">
<path d="M11.4682 25.384C10.1002 25.384 8.82819 25.124 7.6522 24.604C6.4762 24.076 5.4442 23.348 4.5562 22.42C3.6762 21.484 2.9882 20.392 2.4922 19.144C2.0042 17.896 1.7602 16.552 1.7602 15.112C1.7602 13.744 1.9882 12.444 2.4442 11.212C2.9002 9.972 3.5602 8.876 4.4242 7.924C5.2882 6.972 6.3322 6.22 7.5562 5.668C8.78819 5.116 10.1722 4.84 11.7082 4.84C12.6362 4.84 13.5442 4.948 14.4322 5.164C15.3202 5.38 16.1562 5.688 16.9402 6.088C17.7322 6.488 18.4442 6.972 19.0762 7.54L17.5642 9.964C16.8442 9.244 15.9642 8.68 14.9242 8.272C13.8842 7.856 12.8202 7.648 11.7322 7.648C10.6842 7.648 9.7522 7.836 8.9362 8.212C8.1202 8.588 7.4282 9.116 6.86019 9.796C6.30019 10.468 5.8722 11.248 5.5762 12.136C5.2882 13.016 5.1442 13.964 5.1442 14.98C5.1442 16.076 5.3082 17.084 5.63619 18.004C5.9642 18.916 6.4202 19.712 7.0042 20.392C7.5962 21.064 8.2842 21.584 9.06819 21.952C9.85219 22.312 10.6962 22.492 11.6002 22.492C12.3362 22.492 13.0482 22.372 13.7362 22.132C14.4242 21.892 15.0402 21.548 15.5842 21.1C16.1282 20.652 16.5602 20.12 16.8802 19.504C17.2002 18.888 17.3602 18.208 17.3602 17.464V17.032H11.4082V14.572H20.5642V17.128C20.5642 18.408 20.3082 19.556 19.7962 20.572C19.2842 21.588 18.5922 22.456 17.7202 23.176C16.8562 23.888 15.8842 24.436 14.8042 24.82C13.7242 25.196 12.6122 25.384 11.4682 25.384ZM24.2165 25V4.36H27.2045V25H24.2165ZM37.7497 25.384C36.4217 25.384 35.2217 25.108 34.1497 24.556C33.0857 24.004 32.2417 23.236 31.6177 22.252C30.9937 21.268 30.6817 20.136 30.6817 18.856C30.6817 17.568 30.9937 16.436 31.6177 15.46C32.2417 14.476 33.0857 13.708 34.1497 13.156C35.2137 12.604 36.4137 12.328 37.7497 12.328C39.0777 12.328 40.2737 12.604 41.3377 13.156C42.4097 13.708 43.2537 14.476 43.8697 15.46C44.4937 16.436 44.8057 17.568 44.8057 18.856C44.8057 20.136 44.4937 21.268 43.8697 22.252C43.2537 23.236 42.4097 24.004 41.3377 24.556C40.2737 25.108 39.0777 25.384 37.7497 25.384ZM37.7497 22.816C38.5017 22.816 39.1737 22.648 39.7657 22.312C40.3657 21.968 40.8377 21.5 41.1817 20.908C41.5257 20.308 41.6977 19.624 41.6977 18.856C41.6977 18.08 41.5257 17.396 41.1817 16.804C40.8377 16.204 40.3657 15.736 39.7657 15.4C39.1737 15.064 38.5017 14.896 37.7497 14.896C37.0057 14.896 36.3337 15.064 35.7337 15.4C35.1337 15.736 34.6617 16.204 34.3177 16.804C33.9737 17.396 33.8017 18.08 33.8017 18.856C33.8017 19.624 33.9737 20.308 34.3177 20.908C34.6617 21.5 35.1337 21.968 35.7337 22.312C36.3337 22.648 37.0057 22.816 37.7497 22.816ZM51.5949 25.384C50.5629 25.384 49.6429 25.192 48.8349 24.808C48.0349 24.416 47.3829 23.856 46.8789 23.128L48.1989 21.184C48.6709 21.808 49.1949 22.292 49.7709 22.636C50.3549 22.98 50.9589 23.152 51.5829 23.152C51.9669 23.152 52.3069 23.084 52.6029 22.948C52.8989 22.804 53.1349 22.6 53.3109 22.336C53.4869 22.064 53.5749 21.744 53.5749 21.376C53.5749 20.992 53.4749 20.692 53.2749 20.476C53.0749 20.26 52.7749 20.064 52.3749 19.888C51.9749 19.712 51.4709 19.504 50.8629 19.264C50.3509 19.048 49.8629 18.808 49.3989 18.544C48.9349 18.28 48.5509 17.948 48.2469 17.548C47.9509 17.14 47.8029 16.624 47.8029 16C47.8029 15.288 47.9989 14.656 48.3909 14.104C48.7909 13.552 49.3349 13.12 50.0229 12.808C50.7189 12.496 51.5109 12.34 52.3989 12.34C53.0389 12.34 53.6829 12.456 54.3309 12.688C54.9789 12.912 55.6269 13.24 56.2749 13.672L55.1949 15.556C54.2589 14.78 53.3349 14.392 52.4229 14.392C51.8869 14.392 51.4549 14.52 51.1269 14.776C50.8069 15.032 50.6469 15.36 50.6469 15.76C50.6469 16.088 50.7869 16.368 51.0669 16.6C51.3469 16.832 51.6949 17.036 52.1109 17.212C52.5269 17.388 52.9429 17.556 53.3589 17.716C54.0149 17.956 54.5909 18.212 55.0869 18.484C55.5829 18.756 55.9709 19.108 56.2509 19.54C56.5309 19.972 56.6709 20.548 56.6709 21.268C56.6709 22.132 56.4629 22.872 56.0469 23.488C55.6389 24.104 55.0549 24.576 54.2949 24.904C53.5349 25.224 52.6349 25.384 51.5949 25.384ZM63.6155 25.384C62.5835 25.384 61.6635 25.192 60.8555 24.808C60.0555 24.416 59.4035 23.856 58.8995 23.128L60.2195 21.184C60.6915 21.808 61.2155 22.292 61.7915 22.636C62.3755 22.98 62.9795 23.152 63.6035 23.152C63.9875 23.152 64.3275 23.084 64.6235 22.948C64.9195 22.804 65.1555 22.6 65.3315 22.336C65.5075 22.064 65.5955 21.744 65.5955 21.376C65.5955 20.992 65.4955 20.692 65.2955 20.476C65.0955 20.26 64.7955 20.064 64.3955 19.888C63.9955 19.712 63.4915 19.504 62.8835 19.264C62.3715 19.048 61.8835 18.808 61.4195 18.544C60.9555 18.28 60.5715 17.948 60.2675 17.548C59.9715 17.14 59.8235 16.624 59.8235 16C59.8235 15.288 60.0195 14.656 60.4115 14.104C60.8115 13.552 61.3555 13.12 62.0435 12.808C62.7395 12.496 63.5315 12.34 64.4195 12.34C65.0595 12.34 65.7035 12.456 66.3515 12.688C66.9995 12.912 67.6475 13.24 68.2955 13.672L67.2155 15.556C66.2795 14.78 65.3555 14.392 64.4435 14.392C63.9075 14.392 63.4755 14.52 63.1475 14.776C62.8275 15.032 62.6675 15.36 62.6675 15.76C62.6675 16.088 62.8075 16.368 63.0875 16.6C63.3675 16.832 63.7155 17.036 64.1315 17.212C64.5475 17.388 64.9635 17.556 65.3795 17.716C66.0355 17.956 66.6115 18.212 67.1075 18.484C67.6035 18.756 67.9915 19.108 68.2715 19.54C68.5515 19.972 68.6915 20.548 68.6915 21.268C68.6915 22.132 68.4835 22.872 68.0675 23.488C67.6595 24.104 67.0755 24.576 66.3155 24.904C65.5555 25.224 64.6555 25.384 63.6155 25.384Z" fill="white"/>
<path d="M7.6522 24.604L7.45559 25.0419L7.45808 25.043L7.6522 24.604ZM4.5562 22.42L4.20647 22.7488L4.20939 22.7519L4.5562 22.42ZM2.4922 19.144L2.04515 19.3188L2.04613 19.3213L2.4922 19.144ZM2.4442 11.212L2.89435 11.3786L2.8947 11.3777L2.4442 11.212ZM4.4242 7.924L4.06875 7.60141L4.06875 7.60141L4.4242 7.924ZM7.5562 5.668L7.35993 5.22996L7.35886 5.23044L7.5562 5.668ZM14.4322 5.164L14.5456 4.6976L14.5456 4.6976L14.4322 5.164ZM16.9402 6.088L16.722 6.51557L16.7238 6.51646L16.9402 6.088ZM19.0762 7.54L19.4835 7.79404L19.6967 7.45226L19.397 7.18299L19.0762 7.54ZM17.5642 9.964L17.2248 10.3034L17.6518 10.7305L17.9715 10.218L17.5642 9.964ZM14.9242 8.272L14.7459 8.71768L14.7489 8.71885L14.9242 8.272ZM8.9362 8.212L9.13707 8.64795L9.13707 8.64795L8.9362 8.212ZM6.86019 9.796L6.4918 9.48829L6.49145 9.48871L6.86019 9.796ZM5.5762 12.136L5.12082 11.9842L5.12 11.9867L5.5762 12.136ZM5.63619 18.004L5.18407 18.1652L5.18452 18.1664L5.63619 18.004ZM7.0042 20.392L6.64003 20.7048L6.64402 20.7093L7.0042 20.392ZM9.06819 21.952L8.86423 22.3865L8.86789 22.3882L9.06819 21.952ZM13.7362 22.132L13.5781 21.6788L13.5781 21.6788L13.7362 22.132ZM15.5842 21.1L15.2791 20.7295L15.5842 21.1ZM16.8802 19.504L17.3061 19.7253L17.3062 19.7253L16.8802 19.504ZM17.3602 17.032H17.8402V16.552H17.3602V17.032ZM11.4082 17.032H10.9282V17.512H11.4082V17.032ZM11.4082 14.572V14.092H10.9282V14.572H11.4082ZM20.5642 14.572H21.0442V14.092H20.5642V14.572ZM19.7962 20.572L20.2248 20.788L20.2248 20.788L19.7962 20.572ZM17.7202 23.176L18.0255 23.5464L18.0258 23.5461L17.7202 23.176ZM14.8042 24.82L14.962 25.2733L14.965 25.2723L14.8042 24.82ZM11.4682 24.904C10.1627 24.904 8.95731 24.6563 7.84631 24.165L7.45808 25.043C8.69908 25.5917 10.0377 25.864 11.4682 25.864V24.904ZM7.8488 24.1661C6.72902 23.6634 5.74807 22.9713 4.903 22.0881L4.20939 22.7519C5.14032 23.7247 6.22337 24.4886 7.45559 25.0419L7.8488 24.1661ZM4.90591 22.0912C4.06913 21.2012 3.41298 20.1612 2.93826 18.9667L2.04613 19.3213C2.56341 20.6228 3.28326 21.7668 4.20648 22.7488L4.90591 22.0912ZM2.93923 18.9692C2.4746 17.7809 2.2402 16.4967 2.2402 15.112H1.2802C1.2802 16.6073 1.53379 18.0111 2.04516 19.3188L2.93923 18.9692ZM2.2402 15.112C2.2402 13.7985 2.4589 12.5551 2.89435 11.3786L1.99404 11.0454C1.51749 12.3329 1.2802 13.6895 1.2802 15.112H2.2402ZM2.8947 11.3777C3.33 10.194 3.95827 9.15161 4.77964 8.24659L4.06875 7.60141C3.16212 8.6004 2.47039 9.75004 1.99369 11.0463L2.8947 11.3777ZM4.77964 8.24659C5.59741 7.34552 6.58684 6.63172 7.75353 6.10556L7.35886 5.23044C6.07755 5.80828 4.97898 6.59849 4.06875 7.60141L4.77964 8.24659ZM7.75246 6.10604C8.91476 5.58527 10.2305 5.32 11.7082 5.32V4.36C10.1139 4.36 8.66163 4.64673 7.35993 5.22996L7.75246 6.10604ZM11.7082 5.32C12.5986 5.32 13.4685 5.42357 14.3187 5.6304L14.5456 4.6976C13.6199 4.47243 12.6738 4.36 11.7082 4.36V5.32ZM14.3187 5.6304C15.1718 5.83791 15.9726 6.13318 16.722 6.51557L17.1583 5.66043C16.3398 5.24282 15.4685 4.92209 14.5456 4.6976L14.3187 5.6304ZM16.7238 6.51646C17.4797 6.8982 18.1562 7.35856 18.7553 7.89701L19.397 7.18299C18.7322 6.58545 17.9847 6.0778 17.1566 5.65954L16.7238 6.51646ZM18.6689 7.28596L17.1569 9.70996L17.9715 10.218L19.4835 7.79404L18.6689 7.28596ZM17.9036 9.62459C17.1325 8.8535 16.195 8.25493 15.0995 7.82516L14.7489 8.71885C15.7334 9.10507 16.5559 9.6345 17.2248 10.3034L17.9036 9.62459ZM15.1025 7.82633C14.0075 7.38834 12.8831 7.168 11.7322 7.168V8.128C12.7573 8.128 13.7609 8.32367 14.7459 8.71767L15.1025 7.82633ZM11.7322 7.168C10.6263 7.168 9.62395 7.36659 8.73532 7.77606L9.13707 8.64795C9.88044 8.30541 10.7421 8.128 11.7322 8.128V7.168ZM8.73532 7.77606C7.8556 8.18141 7.1061 8.75286 6.4918 9.48829L7.22859 10.1037C7.75029 9.47914 8.38479 8.99459 9.13707 8.64795L8.73532 7.77606ZM6.49145 9.48871C5.89051 10.2098 5.43442 11.0434 5.12083 11.9842L6.03156 12.2878C6.30997 11.4526 6.70987 10.7262 7.22894 10.1033L6.49145 9.48871ZM5.12 11.9867C4.81477 12.9193 4.6642 13.9182 4.6642 14.98H5.6242C5.6242 14.0098 5.76162 13.1127 6.03239 12.2853L5.12 11.9867ZM4.6642 14.98C4.6642 16.1243 4.83552 17.1875 5.18407 18.1652L6.08832 17.8428C5.78087 16.9805 5.6242 16.0277 5.6242 14.98H4.6642ZM5.18452 18.1664C5.53069 19.129 6.01498 19.9769 6.64005 20.7047L7.36834 20.0793C6.82541 19.4471 6.3977 18.703 6.08787 17.8416L5.18452 18.1664ZM6.64402 20.7093C7.278 21.4289 8.01864 21.9896 8.86424 22.3865L9.27215 21.5175C8.54975 21.1784 7.91439 20.6991 7.36437 20.0747L6.64402 20.7093ZM8.86789 22.3882C9.71773 22.7784 10.6304 22.972 11.6002 22.972V22.012C10.7619 22.012 9.98665 21.8456 9.2685 21.5158L8.86789 22.3882ZM11.6002 22.972C12.3895 22.972 13.1549 22.8431 13.8943 22.5852L13.5781 21.6788C12.9414 21.9009 12.2829 22.012 11.6002 22.012V22.972ZM13.8943 22.5852C14.634 22.3272 15.3001 21.9558 15.8893 21.4705L15.2791 20.7295C14.7803 21.1402 14.2144 21.4568 13.5781 21.6788L13.8943 22.5852ZM15.8893 21.4705C16.4825 20.9821 16.9559 20.3995 17.3061 19.7253L16.4542 19.2827C16.1645 19.8405 15.7739 20.3219 15.2791 20.7295L15.8893 21.4705ZM17.3062 19.7253C17.6642 19.0361 17.8402 18.2794 17.8402 17.464H16.8802C16.8802 18.1366 16.7362 18.7399 16.4542 19.2827L17.3062 19.7253ZM17.8402 17.464V17.032H16.8802V17.464H17.8402ZM17.3602 16.552H11.4082V17.512H17.3602V16.552ZM11.8882 17.032V14.572H10.9282V17.032H11.8882ZM11.4082 15.052H20.5642V14.092H11.4082V15.052ZM20.0842 14.572V17.128H21.0442V14.572H20.0842ZM20.0842 17.128C20.0842 18.3424 19.8418 19.415 19.3675 20.356L20.2248 20.788C20.7746 19.697 21.0442 18.4736 21.0442 17.128H20.0842ZM19.3675 20.356C18.8853 21.313 18.235 22.1284 17.4146 22.8059L18.0258 23.5461C18.9494 22.7836 19.6831 21.863 20.2248 20.788L19.3675 20.356ZM17.4149 22.8056C16.595 23.4813 15.6721 24.002 14.6434 24.3677L14.965 25.2723C16.0963 24.87 17.1174 24.2947 18.0255 23.5464L17.4149 22.8056ZM14.6464 24.3667C13.6171 24.725 12.5585 24.904 11.4682 24.904V25.864C12.6659 25.864 13.8313 25.667 14.962 25.2733L14.6464 24.3667ZM24.2165 25H23.7365V25.48H24.2165V25ZM24.2165 4.36V3.88H23.7365V4.36H24.2165ZM27.2045 4.36H27.6845V3.88H27.2045V4.36ZM27.2045 25V25.48H27.6845V25H27.2045ZM24.6965 25V4.36H23.7365V25H24.6965ZM24.2165 4.84H27.2045V3.88H24.2165V4.84ZM26.7245 4.36V25H27.6845V4.36H26.7245ZM27.2045 24.52H24.2165V25.48H27.2045V24.52ZM34.1497 24.556L33.9286 24.9821L33.93 24.9827L34.1497 24.556ZM31.6177 22.252L31.2123 22.5091L31.2123 22.5091L31.6177 22.252ZM31.6177 15.46L32.0221 15.7186L32.0231 15.7171L31.6177 15.46ZM34.1497 13.156L33.9286 12.7299L33.9286 12.7299L34.1497 13.156ZM41.3377 13.156L41.1166 13.5821L41.118 13.5827L41.3377 13.156ZM43.8697 15.46L43.4628 15.7147L43.4653 15.7186L43.8697 15.46ZM43.8697 22.252L43.4643 21.9949L43.4628 21.9973L43.8697 22.252ZM41.3377 24.556L41.1179 24.1293L41.1166 24.1299L41.3377 24.556ZM39.7657 22.312L40.0026 22.7295L40.0044 22.7284L39.7657 22.312ZM41.1817 20.908L41.5967 21.1492L41.5981 21.1467L41.1817 20.908ZM41.1817 16.804L40.7653 17.0427L40.7667 17.0452L41.1817 16.804ZM39.7657 15.4L39.5288 15.8175L39.5312 15.8188L39.7657 15.4ZM35.7337 15.4L35.9682 15.8188L35.9682 15.8188L35.7337 15.4ZM34.3177 16.804L34.7327 17.0452L34.7341 17.0427L34.3177 16.804ZM34.3177 20.908L33.9013 21.1467L33.9027 21.1492L34.3177 20.908ZM35.7337 22.312L35.4949 22.7284L35.4992 22.7308L35.7337 22.312ZM37.7497 24.904C36.4903 24.904 35.3668 24.6428 34.3694 24.1293L33.93 24.9827C35.0766 25.5732 36.3531 25.864 37.7497 25.864V24.904ZM34.3707 24.1299C33.3798 23.6158 32.6003 22.9052 32.0231 21.9949L31.2123 22.5091C31.8831 23.5668 32.7916 24.3922 33.9286 24.9821L34.3707 24.1299ZM32.0231 21.9949C31.4526 21.0953 31.1617 20.0543 31.1617 18.856H30.2017C30.2017 20.2177 30.5348 21.4407 31.2123 22.5091L32.0231 21.9949ZM31.1617 18.856C31.1617 17.649 31.4529 16.6089 32.0221 15.7186L31.2133 15.2014C30.5345 16.2631 30.2017 17.487 30.2017 18.856H31.1617ZM32.0231 15.7171C32.6003 14.8068 33.3798 14.0962 34.3707 13.5821L33.9286 12.7299C32.7916 13.3198 31.8831 14.1452 31.2123 15.2029L32.0231 15.7171ZM34.3707 13.5821C35.3589 13.0694 36.4817 12.808 37.7497 12.808V11.848C36.3457 11.848 35.0685 12.1386 33.9286 12.7299L34.3707 13.5821ZM37.7497 12.808C39.0092 12.808 40.1281 13.0692 41.1166 13.5821L41.5587 12.7299C40.4193 12.1388 39.1462 11.848 37.7497 11.848V12.808ZM41.118 13.5827C42.1164 14.0969 42.8944 14.8067 43.4628 15.7147L44.2765 15.2053C43.613 14.1453 42.703 13.3192 41.5574 12.7293L41.118 13.5827ZM43.4653 15.7186C44.0345 16.6089 44.3257 17.649 44.3257 18.856H45.2857C45.2857 17.487 44.9529 16.2631 44.2741 15.2014L43.4653 15.7186ZM44.3257 18.856C44.3257 20.0543 44.0348 21.0953 43.4643 21.9949L44.2751 22.5091C44.9526 21.4407 45.2857 20.2177 45.2857 18.856H44.3257ZM43.4628 21.9973C42.8944 22.9053 42.1164 23.6152 41.118 24.1293L41.5574 24.9827C42.703 24.3928 43.613 23.5667 44.2765 22.5067L43.4628 21.9973ZM41.1166 24.1299C40.1281 24.6428 39.0092 24.904 37.7497 24.904V25.864C39.1462 25.864 40.4193 25.5732 41.5587 24.9821L41.1166 24.1299ZM37.7497 23.296C38.5758 23.296 39.331 23.1106 40.0026 22.7294L39.5288 21.8946C39.0164 22.1854 38.4275 22.336 37.7497 22.336V23.296ZM40.0044 22.7284C40.6768 22.3429 41.2099 21.8148 41.5967 21.1492L40.7667 20.6668C40.4655 21.1852 40.0546 21.5931 39.5269 21.8956L40.0044 22.7284ZM41.5981 21.1467C41.9882 20.4663 42.1777 19.6983 42.1777 18.856H41.2177C41.2177 19.5497 41.0631 20.1497 40.7653 20.6693L41.5981 21.1467ZM42.1777 18.856C42.1777 18.0068 41.9887 17.2374 41.5967 16.5628L40.7667 17.0452C41.0627 17.5546 41.2177 18.1532 41.2177 18.856H42.1777ZM41.5981 16.5653C41.2112 15.8903 40.6765 15.3599 40.0002 14.9812L39.5312 15.8188C40.0549 16.1121 40.4642 16.5177 40.7653 17.0427L41.5981 16.5653ZM40.0026 14.9826C39.331 14.6014 38.5758 14.416 37.7497 14.416V15.376C38.4275 15.376 39.0164 15.5266 39.5288 15.8174L40.0026 14.9826ZM37.7497 14.416C36.9305 14.416 36.1766 14.6018 35.4992 14.9812L35.9682 15.8188C36.4908 15.5262 37.0809 15.376 37.7497 15.376V14.416ZM35.4992 14.9812C34.8229 15.3599 34.2882 15.8903 33.9013 16.5653L34.7341 17.0427C35.0352 16.5177 35.4445 16.1121 35.9682 15.8188L35.4992 14.9812ZM33.9027 16.5628C33.5107 17.2374 33.3217 18.0068 33.3217 18.856H34.2817C34.2817 18.1532 34.4367 17.5546 34.7327 17.0452L33.9027 16.5628ZM33.3217 18.856C33.3217 19.6983 33.5111 20.4663 33.9013 21.1467L34.7341 20.6693C34.4362 20.1497 34.2817 19.5497 34.2817 18.856H33.3217ZM33.9027 21.1492C34.2895 21.8148 34.8226 22.3429 35.4949 22.7284L35.9724 21.8956C35.4448 21.5931 35.0339 21.1852 34.7327 20.6668L33.9027 21.1492ZM35.4992 22.7308C36.1766 23.1102 36.9305 23.296 37.7497 23.296V22.336C37.0809 22.336 36.4908 22.1858 35.9682 21.8932L35.4992 22.7308ZM48.8349 24.808L48.6237 25.2391L48.6288 25.2415L48.8349 24.808ZM46.8789 23.128L46.4818 22.8584L46.2969 23.1306L46.4842 23.4012L46.8789 23.128ZM48.1989 21.184L48.5817 20.8944L48.1778 20.3605L47.8018 20.9144L48.1989 21.184ZM49.7709 22.636L49.5248 23.0481L49.5273 23.0496L49.7709 22.636ZM52.6029 22.948L52.8033 23.3843L52.8129 23.3796L52.6029 22.948ZM53.3109 22.336L53.7103 22.6023L53.7139 22.5968L53.3109 22.336ZM53.2749 20.476L52.9227 20.8021L52.9227 20.8021L53.2749 20.476ZM52.3749 19.888L52.5682 19.4486L52.5682 19.4486L52.3749 19.888ZM50.8629 19.264L50.6763 19.7064L50.6866 19.7105L50.8629 19.264ZM49.3989 18.544L49.6363 18.1268L49.6363 18.1268L49.3989 18.544ZM48.2469 17.548L47.8583 17.8299L47.8647 17.8384L48.2469 17.548ZM48.3909 14.104L48.0022 13.8223L47.9995 13.8261L48.3909 14.104ZM50.0229 12.808L49.8265 12.37L49.8246 12.3709L50.0229 12.808ZM54.3309 12.688L54.1691 13.1399L54.1741 13.1417L54.3309 12.688ZM56.2749 13.672L56.6913 13.9107L56.9144 13.5215L56.5411 13.2726L56.2749 13.672ZM55.1949 15.556L54.8885 15.9255L55.3276 16.2896L55.6113 15.7947L55.1949 15.556ZM51.1269 14.776L50.8315 14.3976L50.827 14.4012L51.1269 14.776ZM51.0669 16.6L51.3731 16.2304L51.3731 16.2304L51.0669 16.6ZM52.1109 17.212L52.2979 16.7699L52.2979 16.7699L52.1109 17.212ZM53.3589 17.716L53.1865 18.1641L53.194 18.1668L53.3589 17.716ZM55.0869 18.484L55.3177 18.0631L55.3177 18.0631L55.0869 18.484ZM56.2509 19.54L55.8481 19.8011L55.8481 19.8011L56.2509 19.54ZM56.0469 23.488L55.6491 23.2194L55.6467 23.2229L56.0469 23.488ZM54.2949 24.904L54.4812 25.3464L54.4851 25.3447L54.2949 24.904ZM51.5949 24.904C50.6232 24.904 49.7753 24.7235 49.0409 24.3745L48.6288 25.2415C49.5104 25.6605 50.5025 25.864 51.5949 25.864V24.904ZM49.0461 24.377C48.3192 24.0208 47.7306 23.5149 47.2735 22.8548L46.4842 23.4012C47.0352 24.1971 47.7505 24.8112 48.6237 25.239L49.0461 24.377ZM47.276 23.3976L48.596 21.4536L47.8018 20.9144L46.4818 22.8584L47.276 23.3976ZM47.8161 21.4736C48.3192 22.1388 48.8877 22.6676 49.5248 23.0481L50.017 22.2239C49.5021 21.9164 49.0225 21.4772 48.5817 20.8944L47.8161 21.4736ZM49.5273 23.0496C50.1785 23.4332 50.8659 23.632 51.5829 23.632V22.672C51.0519 22.672 50.5312 22.5268 50.0145 22.2224L49.5273 23.0496ZM51.5829 23.632C52.0238 23.632 52.4342 23.5538 52.8033 23.3842L52.4025 22.5118C52.1796 22.6142 51.9099 22.672 51.5829 22.672V23.632ZM52.8129 23.3796C53.1826 23.1998 53.4851 22.94 53.7103 22.6023L52.9115 22.0697C52.7846 22.26 52.6152 22.4082 52.3929 22.5164L52.8129 23.3796ZM53.7139 22.5968C53.9467 22.2369 54.0549 21.8236 54.0549 21.376H53.0949C53.0949 21.6644 53.027 21.8911 52.9079 22.0752L53.7139 22.5968ZM54.0549 21.376C54.0549 20.909 53.9318 20.479 53.6271 20.1499L52.9227 20.8021C53.018 20.905 53.0949 21.075 53.0949 21.376H54.0549ZM53.6271 20.1499C53.3662 19.8682 53.0018 19.6394 52.5682 19.4486L52.1816 20.3274C52.548 20.4886 52.7835 20.6518 52.9227 20.8021L53.6271 20.1499ZM52.5682 19.4486C52.1605 19.2693 51.6503 19.0588 51.0391 18.8175L50.6866 19.7105C51.2914 19.9492 51.7892 20.1547 52.1816 20.3274L52.5682 19.4486ZM51.0495 18.8217C50.5542 18.6128 50.0832 18.3811 49.6363 18.1268L49.1615 18.9612C49.6426 19.2349 50.1476 19.4832 50.6763 19.7063L51.0495 18.8217ZM49.6363 18.1268C49.225 17.8928 48.8914 17.6028 48.629 17.2576L47.8647 17.8384C48.2103 18.2932 48.6448 18.6672 49.1615 18.9612L49.6363 18.1268ZM48.6354 17.2661C48.4118 16.9579 48.2829 16.5472 48.2829 16H47.3229C47.3229 16.7008 47.49 17.3221 47.8584 17.8299L48.6354 17.2661ZM48.2829 16C48.2829 15.3821 48.451 14.8484 48.7822 14.3819L47.9995 13.8261C47.5468 14.4636 47.3229 15.1939 47.3229 16H48.2829ZM48.7796 14.3857C49.1255 13.9082 49.6006 13.5265 50.2211 13.2452L49.8246 12.3709C49.0691 12.7135 48.4562 13.1958 48.0022 13.8223L48.7796 14.3857ZM50.2192 13.246C50.8441 12.9659 51.5675 12.82 52.3989 12.82V11.86C51.4542 11.86 50.5936 12.0261 49.8265 12.37L50.2192 13.246ZM52.3989 12.82C52.9797 12.82 53.5691 12.9251 54.1691 13.1399L54.4927 12.2361C53.7967 11.9869 53.098 11.86 52.3989 11.86V12.82ZM54.1741 13.1417C54.7786 13.3506 55.3901 13.659 56.0086 14.0714L56.5411 13.2726C55.8636 12.821 55.1792 12.4734 54.4877 12.2343L54.1741 13.1417ZM55.8584 13.4333L54.7784 15.3173L55.6113 15.7947L56.6913 13.9107L55.8584 13.4333ZM55.5012 15.1865C54.508 14.363 53.4792 13.912 52.4229 13.912V14.872C53.1905 14.872 54.0098 15.197 54.8885 15.9255L55.5012 15.1865ZM52.4229 13.912C51.811 13.912 51.2656 14.0589 50.8315 14.3976L51.4222 15.1544C51.6442 14.9811 51.9627 14.872 52.4229 14.872V13.912ZM50.827 14.4012C50.3964 14.7457 50.1669 15.2101 50.1669 15.76H51.1269C51.1269 15.5099 51.2174 15.3183 51.4267 15.1508L50.827 14.4012ZM50.1669 15.76C50.1669 16.2476 50.3841 16.6576 50.7606 16.9696L51.3731 16.2304C51.1897 16.0784 51.1269 15.9284 51.1269 15.76H50.1669ZM50.7606 16.9696C51.0841 17.2376 51.4748 17.4641 51.9239 17.6541L52.2979 16.7699C51.915 16.6079 51.6097 16.4264 51.3731 16.2304L50.7606 16.9696ZM51.9239 17.6541C52.3447 17.8321 52.7656 18.0021 53.1866 18.164L53.5312 17.268C53.1202 17.1099 52.7091 16.9439 52.2979 16.7699L51.9239 17.6541ZM53.194 18.1668C53.8323 18.4003 54.3855 18.6468 54.8561 18.9049L55.3177 18.0631C54.7963 17.7772 54.1974 17.5117 53.5238 17.2652L53.194 18.1668ZM54.8561 18.9049C55.2894 19.1425 55.6155 19.4422 55.8481 19.8011L56.6537 19.2789C56.3263 18.7738 55.8763 18.3695 55.3177 18.0631L54.8561 18.9049ZM55.8481 19.8011C56.0614 20.1301 56.1909 20.6052 56.1909 21.268H57.1509C57.1509 20.4908 57.0004 19.8139 56.6537 19.2789L55.8481 19.8011ZM56.1909 21.268C56.1909 22.0522 56.0032 22.695 55.6491 23.2194L56.4447 23.7566C56.9225 23.049 57.1509 22.2118 57.1509 21.268H56.1909ZM55.6467 23.2229C55.2962 23.7521 54.7898 24.1676 54.1047 24.4633L54.4851 25.3447C55.32 24.9844 55.9816 24.4559 56.4471 23.7531L55.6467 23.2229ZM54.1086 24.4616C53.4208 24.7512 52.587 24.904 51.5949 24.904V25.864C52.6827 25.864 53.649 25.6968 54.4811 25.3464L54.1086 24.4616ZM60.8555 24.808L60.6443 25.2391L60.6495 25.2415L60.8555 24.808ZM58.8995 23.128L58.5024 22.8584L58.3175 23.1306L58.5049 23.4012L58.8995 23.128ZM60.2195 21.184L60.6023 20.8944L60.1985 20.3605L59.8224 20.9144L60.2195 21.184ZM61.7915 22.636L61.5454 23.0481L61.5479 23.0496L61.7915 22.636ZM64.6235 22.948L64.824 23.3843L64.8335 23.3796L64.6235 22.948ZM65.3315 22.336L65.7309 22.6023L65.7345 22.5968L65.3315 22.336ZM65.2955 20.476L64.9433 20.8021L64.9433 20.8021L65.2955 20.476ZM64.3955 19.888L64.5888 19.4486L64.5888 19.4486L64.3955 19.888ZM62.8835 19.264L62.6969 19.7064L62.7073 19.7105L62.8835 19.264ZM61.4195 18.544L61.6569 18.1268L61.6569 18.1268L61.4195 18.544ZM60.2675 17.548L59.8789 17.8299L59.8853 17.8384L60.2675 17.548ZM60.4115 14.104L60.0228 13.8223L60.0201 13.8261L60.4115 14.104ZM62.0435 12.808L61.8472 12.37L61.8453 12.3709L62.0435 12.808ZM66.3515 12.688L66.1897 13.1399L66.1947 13.1417L66.3515 12.688ZM68.2955 13.672L68.7119 13.9107L68.9351 13.5215L68.5618 13.2726L68.2955 13.672ZM67.2155 15.556L66.9091 15.9255L67.3483 16.2896L67.6319 15.7947L67.2155 15.556ZM63.1475 14.776L62.8522 14.3976L62.8477 14.4012L63.1475 14.776ZM63.0875 16.6L63.3938 16.2304L63.3938 16.2304L63.0875 16.6ZM64.1315 17.212L64.3185 16.7699L64.3185 16.7699L64.1315 17.212ZM65.3795 17.716L65.2072 18.1641L65.2146 18.1668L65.3795 17.716ZM67.1075 18.484L67.3383 18.0631L67.3383 18.0631L67.1075 18.484ZM68.2715 19.54L67.8687 19.8011L67.8687 19.8011L68.2715 19.54ZM68.0675 23.488L67.6697 23.2194L67.6673 23.2229L68.0675 23.488ZM66.3155 24.904L66.5018 25.3464L66.5057 25.3447L66.3155 24.904ZM63.6155 24.904C62.6439 24.904 61.796 24.7235 61.0615 24.3745L60.6495 25.2415C61.531 25.6605 62.5232 25.864 63.6155 25.864V24.904ZM61.0667 24.377C60.3399 24.0208 59.7512 23.5149 59.2942 22.8548L58.5049 23.4012C59.0558 24.1971 59.7711 24.8112 60.6443 25.239L61.0667 24.377ZM59.2966 23.3976L60.6166 21.4536L59.8224 20.9144L58.5024 22.8584L59.2966 23.3976ZM59.8367 21.4736C60.3398 22.1388 60.9083 22.6676 61.5454 23.0481L62.0376 22.2239C61.5227 21.9164 61.0432 21.4772 60.6023 20.8944L59.8367 21.4736ZM61.5479 23.0496C62.1991 23.4332 62.8865 23.632 63.6035 23.632V22.672C63.0725 22.672 62.5519 22.5268 62.0351 22.2224L61.5479 23.0496ZM63.6035 23.632C64.0444 23.632 64.4548 23.5538 64.8239 23.3842L64.4231 22.5118C64.2002 22.6142 63.9306 22.672 63.6035 22.672V23.632ZM64.8335 23.3796C65.2032 23.1998 65.5058 22.94 65.7309 22.6023L64.9321 22.0697C64.8053 22.26 64.6358 22.4082 64.4135 22.5164L64.8335 23.3796ZM65.7345 22.5968C65.9674 22.2369 66.0755 21.8236 66.0755 21.376H65.1155C65.1155 21.6644 65.0477 21.8911 64.9285 22.0752L65.7345 22.5968ZM66.0755 21.376C66.0755 20.909 65.9524 20.479 65.6477 20.1499L64.9433 20.8021C65.0386 20.905 65.1155 21.075 65.1155 21.376H66.0755ZM65.6477 20.1499C65.3868 19.8682 65.0224 19.6394 64.5888 19.4486L64.2022 20.3274C64.5686 20.4886 64.8042 20.6518 64.9433 20.8021L65.6477 20.1499ZM64.5888 19.4486C64.1812 19.2693 63.671 19.0588 63.0597 18.8175L62.7073 19.7105C63.312 19.9492 63.8099 20.1547 64.2022 20.3274L64.5888 19.4486ZM63.0701 18.8217C62.5748 18.6128 62.1038 18.3811 61.6569 18.1268L61.1821 18.9612C61.6632 19.2349 62.1682 19.4832 62.6969 19.7063L63.0701 18.8217ZM61.6569 18.1268C61.2456 17.8928 60.912 17.6028 60.6497 17.2576L59.8853 17.8384C60.231 18.2932 60.6654 18.6672 61.1821 18.9612L61.6569 18.1268ZM60.656 17.2661C60.4324 16.9579 60.3035 16.5472 60.3035 16H59.3435C59.3435 16.7008 59.5106 17.3221 59.879 17.8299L60.656 17.2661ZM60.3035 16C60.3035 15.3821 60.4716 14.8484 60.8029 14.3819L60.0201 13.8261C59.5674 14.4636 59.3435 15.1939 59.3435 16H60.3035ZM60.8002 14.3857C61.1461 13.9082 61.6212 13.5265 62.2417 13.2452L61.8453 12.3709C61.0898 12.7135 60.4769 13.1958 60.0228 13.8223L60.8002 14.3857ZM62.2399 13.246C62.8648 12.9659 63.5882 12.82 64.4195 12.82V11.86C63.4749 11.86 62.6142 12.0261 61.8472 12.37L62.2399 13.246ZM64.4195 12.82C65.0003 12.82 65.5897 12.9251 66.1897 13.1399L66.5133 12.2361C65.8173 11.9869 65.1187 11.86 64.4195 11.86V12.82ZM66.1947 13.1417C66.7992 13.3506 67.4107 13.659 68.0292 14.0714L68.5618 13.2726C67.8843 12.821 67.1998 12.4734 66.5083 12.2343L66.1947 13.1417ZM67.8791 13.4333L66.7991 15.3173L67.6319 15.7947L68.7119 13.9107L67.8791 13.4333ZM67.5219 15.1865C66.5286 14.363 65.4999 13.912 64.4435 13.912V14.872C65.2111 14.872 66.0304 15.197 66.9091 15.9255L67.5219 15.1865ZM64.4435 13.912C63.8316 13.912 63.2862 14.0589 62.8522 14.3976L63.4428 15.1544C63.6648 14.9811 63.9834 14.872 64.4435 14.872V13.912ZM62.8477 14.4012C62.417 14.7457 62.1875 15.2101 62.1875 15.76H63.1475C63.1475 15.5099 63.238 15.3183 63.4474 15.1508L62.8477 14.4012ZM62.1875 15.76C62.1875 16.2476 62.4047 16.6576 62.7813 16.9696L63.3938 16.2304C63.2103 16.0784 63.1475 15.9284 63.1475 15.76H62.1875ZM62.7813 16.9696C63.1047 17.2376 63.4954 17.4641 63.9445 17.6541L64.3185 16.7699C63.9356 16.6079 63.6303 16.4264 63.3938 16.2304L62.7813 16.9696ZM63.9445 17.6541C64.3653 17.8321 64.7862 18.0021 65.2072 18.164L65.5518 17.268C65.1408 17.1099 64.7297 16.9439 64.3185 16.7699L63.9445 17.6541ZM65.2146 18.1668C65.8529 18.4003 66.4061 18.6468 66.8767 18.9049L67.3383 18.0631C66.8169 17.7772 66.2181 17.5117 65.5444 17.2652L65.2146 18.1668ZM66.8767 18.9049C67.3101 19.1425 67.6361 19.4422 67.8687 19.8011L68.6743 19.2789C68.3469 18.7738 67.8969 18.3695 67.3383 18.0631L66.8767 18.9049ZM67.8687 19.8011C68.082 20.1301 68.2115 20.6052 68.2115 21.268H69.1715C69.1715 20.4908 69.021 19.8139 68.6743 19.2789L67.8687 19.8011ZM68.2115 21.268C68.2115 22.0522 68.0239 22.695 67.6697 23.2194L68.4653 23.7566C68.9432 23.049 69.1715 22.2118 69.1715 21.268H68.2115ZM67.6673 23.2229C67.3168 23.7521 66.8104 24.1676 66.1253 24.4633L66.5057 25.3447C67.3406 24.9844 68.0022 24.4559 68.4677 23.7531L67.6673 23.2229ZM66.1292 24.4616C65.4414 24.7512 64.6076 24.904 63.6155 24.904V25.864C64.7034 25.864 65.6696 25.6968 66.5018 25.3464L66.1292 24.4616ZM80.8597 24.736L80.6555 25.1704L80.6599 25.1725L80.8597 24.736ZM78.6397 22.876L78.2397 23.1414L78.2428 23.1459L78.6397 22.876ZM79.0237 16.624L78.6537 16.3182L78.6522 16.32L79.0237 16.624ZM82.6117 14.14L82.8021 14.5806L83.4115 14.3173L82.9704 13.8211L82.6117 14.14ZM81.2317 12.412L80.8333 12.6797L80.8352 12.6826L81.2317 12.412ZM80.4877 10.96L80.0292 11.1023L80.0323 11.1118L80.4877 10.96ZM80.9917 7.012L80.5972 6.73854L80.5951 6.7416L80.9917 7.012ZM82.9477 5.392L82.7484 4.95531L82.7468 4.95606L82.9477 5.392ZM87.9997 5.224L87.8223 5.67009L87.8288 5.67255L87.9997 5.224ZM89.6797 6.292L89.3372 6.62845L89.3433 6.6344L89.6797 6.292ZM90.7117 7.816L90.2673 7.9975L90.2682 7.99972L90.7117 7.816ZM90.0277 12.304L90.3901 12.6188L90.3916 12.617L90.0277 12.304ZM87.0277 14.512L86.8068 14.0858L86.2451 14.377L86.6768 14.8395L87.0277 14.512ZM91.0597 18.832L90.7088 19.1595L91.0196 19.4925L91.3684 19.1995L91.0597 18.832ZM91.7197 18.196L91.3749 17.862L91.3695 17.8677L91.7197 18.196ZM92.4637 17.404L92.1094 17.0801L92.109 17.0806L92.4637 17.404ZM93.1597 16.612L92.7928 16.3025L92.7919 16.3035L93.1597 16.612ZM93.6757 16L94.0019 15.6479L93.6327 15.3059L93.3085 15.6908L93.6757 16ZM95.6317 17.812L96.0093 18.1083L96.2823 17.7604L95.9579 17.4599L95.6317 17.812ZM94.3117 19.432L94.6765 19.744L94.6787 19.7413L94.3117 19.432ZM93.0277 20.836L92.6883 20.4966L92.3598 20.8251L92.6774 21.1641L93.0277 20.836ZM96.9277 25V25.48H98.0349L97.278 24.6719L96.9277 25ZM92.9917 25L92.6404 25.3271L92.7828 25.48H92.9917V25ZM90.7117 22.552L91.0629 22.2249L90.7326 21.8702L90.3812 22.2039L90.7117 22.552ZM87.6037 24.652L87.7966 25.0915L87.7981 25.0909L87.6037 24.652ZM86.6317 21.904L86.8365 22.3381L86.8386 22.3371L86.6317 21.904ZM88.6717 20.428L89.0111 20.7674L89.3442 20.4343L89.0174 20.095L88.6717 20.428ZM84.2437 15.832L84.5894 15.499L84.3598 15.2607L84.0555 15.3904L84.2437 15.832ZM82.0957 17.404L81.7173 17.1087L82.0957 17.404ZM81.7477 21.112L81.3471 21.3765L81.3506 21.3817L81.7477 21.112ZM82.8997 22.084L82.6967 22.519L82.7027 22.5217L82.8997 22.084ZM85.4077 12.772L85.0741 13.1171L85.3237 13.3584L85.631 13.1969L85.4077 12.772ZM86.9917 11.8L86.7094 11.4118L86.706 11.4143L86.9917 11.8ZM87.9757 10.768L87.5656 10.5184L87.5617 10.525L87.9757 10.768ZM87.9757 8.248L87.5617 8.49101L87.5657 8.49758L87.9757 8.248ZM87.0877 7.396L86.8514 7.81401L86.8623 7.81978L87.0877 7.396ZM84.5917 7.396L84.8248 7.81565L84.8318 7.81162L84.5917 7.396ZM83.7397 8.236L84.1553 8.47613L84.1553 8.47613L83.7397 8.236ZM83.6197 10.48L83.1724 10.6545L83.1763 10.6638L83.6197 10.48ZM84.2557 11.524L83.8777 11.8198L83.8777 11.8198L84.2557 11.524ZM84.0757 24.904C82.9339 24.904 81.9317 24.6987 81.0594 24.2995L80.6599 25.1725C81.6757 25.6373 82.8174 25.864 84.0757 25.864V24.904ZM81.0639 24.3016C80.2001 23.8956 79.5289 23.3301 79.0366 22.6061L78.2428 23.1459C78.8385 24.0219 79.6472 24.6964 80.6555 25.1704L81.0639 24.3016ZM79.0397 22.6107C78.5625 21.8913 78.3157 21.0343 78.3157 20.02H77.3557C77.3557 21.1977 77.6449 22.2447 78.2397 23.1413L79.0397 22.6107ZM78.3157 20.02C78.3157 18.8305 78.6761 17.8069 79.3952 16.928L78.6522 16.32C77.7873 17.3771 77.3557 18.6175 77.3557 20.02H78.3157ZM79.3937 16.9298C80.1305 16.0383 81.2547 15.2494 82.8021 14.5806L82.4213 13.6994C80.7847 14.4066 79.5169 15.2737 78.6537 16.3182L79.3937 16.9298ZM82.9704 13.8211C82.4029 13.1826 81.9569 12.6231 81.6281 12.1414L80.8352 12.6826C81.1944 13.2089 81.6685 13.8014 82.2529 14.4589L82.9704 13.8211ZM81.6301 12.1443C81.3038 11.6586 81.0782 11.2135 80.9431 10.8082L80.0323 11.1118C80.2012 11.6185 80.4716 12.1414 80.8333 12.6797L81.6301 12.1443ZM80.9461 10.8177C80.8162 10.3992 80.7517 9.97517 80.7517 9.544H79.7917C79.7917 10.0728 79.8711 10.5928 80.0293 11.1023L80.9461 10.8177ZM80.7517 9.544C80.7517 8.64109 80.9707 7.89488 81.3883 7.2824L80.5951 6.7416C80.0527 7.53713 79.7917 8.47891 79.7917 9.544H80.7517ZM81.3862 7.28545C81.8229 6.65545 82.4065 6.16988 83.1486 5.82795L82.7468 4.95606C81.8569 5.36612 81.1365 5.96055 80.5972 6.73855L81.3862 7.28545ZM83.147 5.82869C83.9017 5.4843 84.7486 5.308 85.6957 5.308V4.348C84.6267 4.348 83.6417 4.5477 82.7484 4.95532L83.147 5.82869ZM85.6957 5.308C86.52 5.308 87.2257 5.43282 87.8223 5.67004L88.177 4.77796C87.4457 4.48718 86.6154 4.348 85.6957 4.348V5.308ZM87.8288 5.67255C88.4443 5.90704 88.9434 6.22752 89.3373 6.6284L90.0221 5.95561C89.5199 5.44448 88.8991 5.05297 88.1706 4.77545L87.8288 5.67255ZM89.3433 6.6344C89.7547 7.03862 90.061 7.49245 90.2673 7.9975L91.156 7.6345C90.8983 7.00355 90.5166 6.44138 90.0161 5.9496L89.3433 6.6344ZM90.2682 7.99972C90.4764 8.50209 90.5797 9.01971 90.5797 9.556H91.5397C91.5397 8.89229 91.411 8.24992 91.1551 7.63229L90.2682 7.99972ZM90.5797 9.556C90.5797 10.4704 90.2787 11.276 89.6638 11.991L90.3916 12.617C91.1527 11.732 91.5397 10.7056 91.5397 9.556H90.5797ZM89.6653 11.9892C89.0297 12.7209 88.0854 13.4232 86.8068 14.0858L87.2486 14.9382C88.594 14.2408 89.6497 13.4711 90.3901 12.6188L89.6653 11.9892ZM86.6768 14.8395L90.7088 19.1595L91.4106 18.5045L87.3786 14.1845L86.6768 14.8395ZM91.3684 19.1995C91.587 19.016 91.8209 18.7898 92.0699 18.5243L91.3695 17.8677C91.1384 18.1142 90.9324 18.312 90.751 18.4645L91.3684 19.1995ZM92.0644 18.53C92.3159 18.2704 92.5672 18.0029 92.8184 17.7274L92.109 17.0806C91.8641 17.3491 91.6195 17.6096 91.3749 17.862L92.0644 18.53ZM92.8179 17.7279C93.0778 17.4437 93.3144 17.1745 93.5275 16.9205L92.7919 16.3035C92.589 16.5455 92.3616 16.8043 92.1094 17.0801L92.8179 17.7279ZM93.5265 16.9215C93.7426 16.6655 93.9147 16.4614 94.0428 16.3092L93.3085 15.6908C93.1807 15.8426 93.0088 16.0465 92.7928 16.3025L93.5265 16.9215ZM93.3495 16.3521L95.3055 18.1641L95.9579 17.4599L94.0019 15.6479L93.3495 16.3521ZM95.2541 17.5157C94.8499 18.0309 94.4134 18.5665 93.9447 19.1227L94.6787 19.7413C95.1539 19.1775 95.5975 18.6331 96.0093 18.1083L95.2541 17.5157ZM93.9469 19.1201C93.4805 19.6655 93.0611 20.1238 92.6883 20.4966L93.3671 21.1754C93.7623 20.7802 94.1989 20.3025 94.6765 19.7439L93.9469 19.1201ZM92.6774 21.1641L96.5774 25.3281L97.278 24.6719L93.378 20.5079L92.6774 21.1641ZM96.9277 24.52H92.9917V25.48H96.9277V24.52ZM93.3429 24.6729L91.0629 22.2249L90.3604 22.8791L92.6404 25.3271L93.3429 24.6729ZM90.3812 22.2039C89.4661 23.0728 88.4756 23.7409 87.4093 24.2131L87.7981 25.0909C88.9718 24.5711 90.0532 23.8392 91.0422 22.9001L90.3812 22.2039ZM87.4108 24.2125C86.3609 24.6732 85.2507 24.904 84.0757 24.904V25.864C85.3806 25.864 86.6225 25.6068 87.7966 25.0915L87.4108 24.2125ZM84.4837 22.888C85.2809 22.888 86.0665 22.7015 86.8365 22.3381L86.4268 21.4699C85.7728 21.7785 85.1264 21.928 84.4837 21.928V22.888ZM86.8386 22.3371C87.6139 21.9667 88.3377 21.4408 89.0111 20.7674L88.3323 20.0886C87.7257 20.6952 87.0895 21.1533 86.4248 21.4709L86.8386 22.3371ZM89.0174 20.095L84.5894 15.499L83.898 16.165L88.326 20.761L89.0174 20.095ZM84.0555 15.3904C83.0758 15.8079 82.2885 16.3768 81.7173 17.1087L82.4741 17.6993C82.9269 17.1192 83.5716 16.6401 84.4318 16.2736L84.0555 15.3904ZM81.7173 17.1087C81.143 17.8444 80.8477 18.6713 80.8477 19.576H81.8077C81.8077 18.8967 82.0243 18.2756 82.4741 17.6993L81.7173 17.1087ZM80.8477 19.576C80.8477 20.2527 81.0065 20.8607 81.3471 21.3765L82.1482 20.8475C81.9288 20.5153 81.8077 20.0993 81.8077 19.576H80.8477ZM81.3506 21.3817C81.6889 21.8797 82.141 22.2597 82.6967 22.519L83.1027 21.649C82.6983 21.4603 82.3825 21.1923 82.1448 20.8423L81.3506 21.3817ZM82.7027 22.5217C83.2503 22.7681 83.8462 22.888 84.4837 22.888V21.928C83.9691 21.928 83.5091 21.8319 83.0967 21.6463L82.7027 22.5217ZM85.631 13.1969C86.2705 12.8607 86.8207 12.524 87.2774 12.1857L86.706 11.4143C86.2987 11.716 85.7929 12.0273 85.1844 12.3471L85.631 13.1969ZM87.274 12.1882C87.7533 11.8396 88.1324 11.4493 88.3896 11.011L87.5617 10.525C87.387 10.8227 87.1101 11.1204 86.7094 11.4118L87.274 12.1882ZM88.3857 11.0176C88.659 10.5686 88.7917 10.065 88.7917 9.52H87.8317C87.8317 9.90301 87.7404 10.2314 87.5657 10.5184L88.3857 11.0176ZM88.7917 9.52C88.7917 8.9623 88.6606 8.44999 88.3857 7.99843L87.5657 8.49758C87.7388 8.78201 87.8317 9.1177 87.8317 9.52H88.7917ZM88.3896 8.00502C88.1288 7.56064 87.7676 7.21399 87.3131 6.97222L86.8623 7.81978C87.1598 7.97802 87.3906 8.19936 87.5617 8.49098L88.3896 8.00502ZM87.3239 6.97813C86.8769 6.72551 86.3782 6.604 85.8397 6.604V7.564C86.2292 7.564 86.5624 7.65049 86.8515 7.81387L87.3239 6.97813ZM85.8397 6.604C85.295 6.604 84.794 6.72476 84.3516 6.98038L84.8318 7.81162C85.1094 7.65124 85.4404 7.564 85.8397 7.564V6.604ZM84.3586 6.9764C83.9219 7.21903 83.5751 7.56139 83.3241 7.99587L84.1553 8.47613C84.3203 8.19061 84.5415 7.97297 84.8248 7.8156L84.3586 6.9764ZM83.3241 7.99587C83.0699 8.4358 82.9477 8.92808 82.9477 9.46H83.9077C83.9077 9.07992 83.9935 8.7562 84.1553 8.47613L83.3241 7.99587ZM82.9477 9.46C82.9477 9.87172 83.0228 10.2709 83.1725 10.6545L84.0668 10.3055C83.9605 10.0331 83.9077 9.75228 83.9077 9.46H82.9477ZM83.1763 10.6638C83.3332 11.0423 83.5708 11.4277 83.8777 11.8198L84.6337 11.2282C84.3645 10.8843 84.1782 10.5737 84.0631 10.2962L83.1763 10.6638ZM83.8777 11.8198C84.1837 12.2109 84.5843 12.6437 85.0741 13.1171L85.7413 12.4269C85.2711 11.9723 84.9036 11.5731 84.6337 11.2282L83.8777 11.8198Z" fill="white"/>
<path d="M113.184 25.384C111.808 25.384 110.528 25.12 109.344 24.592C108.168 24.064 107.136 23.332 106.248 22.396C105.368 21.46 104.68 20.372 104.184 19.132C103.688 17.884 103.44 16.544 103.44 15.112C103.44 13.792 103.66 12.516 104.1 11.284C104.54 10.052 105.184 8.956 106.032 7.996C106.88 7.028 107.916 6.26 109.14 5.692C110.372 5.124 111.768 4.84 113.328 4.84C114.352 4.84 115.32 4.968 116.232 5.224C117.144 5.48 117.98 5.836 118.74 6.292C119.508 6.748 120.176 7.284 120.744 7.9L119.796 9.292C119.044 8.436 118.1 7.752 116.964 7.24C115.828 6.72 114.608 6.46 113.304 6.46C112.056 6.46 110.94 6.692 109.956 7.156C108.98 7.62 108.152 8.256 107.472 9.064C106.792 9.864 106.276 10.78 105.924 11.812C105.572 12.836 105.396 13.916 105.396 15.052C105.396 16.276 105.592 17.416 105.984 18.472C106.384 19.52 106.94 20.44 107.652 21.232C108.364 22.016 109.196 22.628 110.148 23.068C111.1 23.5 112.124 23.716 113.22 23.716C114.108 23.716 114.98 23.568 115.836 23.272C116.692 22.976 117.46 22.548 118.14 21.988C118.828 21.428 119.372 20.76 119.772 19.984C120.18 19.2 120.384 18.32 120.384 17.344V16.66H113.088V15.184H122.256V16.948C122.256 18.348 121.992 19.576 121.464 20.632C120.936 21.688 120.232 22.568 119.352 23.272C118.472 23.968 117.496 24.496 116.424 24.856C115.352 25.208 114.272 25.384 113.184 25.384ZM126.571 25V4.36H128.323V25H126.571ZM138.609 25.384C137.457 25.384 136.417 25.104 135.489 24.544C134.569 23.976 133.837 23.2 133.293 22.216C132.757 21.232 132.489 20.108 132.489 18.844C132.489 17.596 132.753 16.484 133.281 15.508C133.817 14.524 134.545 13.748 135.465 13.18C136.393 12.612 137.441 12.328 138.609 12.328C139.721 12.328 140.729 12.588 141.633 13.108C142.537 13.628 143.225 14.348 143.697 15.268V12.712H145.449V25H143.697V22.408C143.169 23.336 142.461 24.064 141.573 24.592C140.685 25.12 139.697 25.384 138.609 25.384ZM139.041 23.86C139.961 23.86 140.773 23.648 141.477 23.224C142.189 22.792 142.749 22.2 143.157 21.448C143.565 20.688 143.769 19.824 143.769 18.856C143.769 17.88 143.565 17.016 143.157 16.264C142.757 15.512 142.201 14.924 141.489 14.5C140.777 14.068 139.961 13.852 139.041 13.852C138.121 13.852 137.305 14.068 136.593 14.5C135.881 14.924 135.321 15.512 134.913 16.264C134.505 17.016 134.301 17.88 134.301 18.856C134.301 19.824 134.505 20.688 134.913 21.448C135.321 22.2 135.881 22.792 136.593 23.224C137.305 23.648 138.121 23.86 139.041 23.86ZM150.495 25V12.712H152.247V14.392C152.735 13.712 153.319 13.2 153.999 12.856C154.679 12.504 155.439 12.328 156.279 12.328C157.287 12.328 158.163 12.56 158.907 13.024C159.659 13.488 160.179 14.12 160.467 14.92C160.939 14.136 161.539 13.508 162.267 13.036C163.003 12.564 163.875 12.328 164.883 12.328C165.755 12.328 166.531 12.508 167.211 12.868C167.891 13.22 168.423 13.74 168.807 14.428C169.199 15.108 169.395 15.94 169.395 16.924V25H167.643V17.416C167.643 16.296 167.351 15.408 166.767 14.752C166.183 14.096 165.403 13.768 164.427 13.768C163.755 13.768 163.147 13.916 162.603 14.212C162.059 14.508 161.627 14.892 161.307 15.364C160.987 15.828 160.827 16.308 160.827 16.804V25H159.075V17.236C159.075 16.172 158.783 15.328 158.199 14.704C157.623 14.08 156.859 13.768 155.907 13.768C155.235 13.768 154.619 13.912 154.059 14.2C153.507 14.48 153.067 14.844 152.739 15.292C152.411 15.74 152.247 16.2 152.247 16.672V25H150.495Z" fill="#CEA561"/>
</svg>
