<svg width="241" height="45" viewBox="0 0 241 45" fill="none" xmlns="http://www.w3.org/2000/svg">
<g clip-path="url(#clip0_1179_3377)">
<path d="M1.90537 30.0086C2.0721 30.1092 2.24557 30.1305 2.41963 30.1498C3.94856 30.3206 5.47748 30.4915 7.00641 30.6627C7.52886 30.722 8.04957 30.8018 8.57289 30.8501C8.92568 30.8827 9.14888 31.049 9.26647 31.3855C9.32237 31.5538 9.39489 31.7159 9.48294 31.8694C9.7071 32.2436 10.0363 32.5415 10.4284 32.7251C10.6738 32.8437 10.9186 32.967 11.1518 33.1087C11.559 33.3515 11.873 33.727 12.0425 34.174C12.2549 34.7237 12.5732 35.2301 12.6817 35.8231C12.7212 36.0375 12.8335 36.2281 12.9742 36.3974C13.1851 36.6518 13.4452 36.8077 13.7819 36.8069C14.7946 36.8045 15.7418 37.0971 16.6712 37.468C17.1977 37.6788 17.7272 37.8434 18.2961 37.9211C19.2816 38.0557 20.2332 38.3566 21.1798 38.6658C25.0357 39.9265 28.8924 41.1846 32.7498 42.4402C33.9369 42.8256 35.1321 43.1846 36.325 43.5514C36.9818 43.753 37.6511 43.8615 38.3414 43.8378C38.9284 43.8219 39.5029 43.6623 40.0158 43.3726C40.1182 43.3151 40.2206 43.2585 40.3198 43.1947C40.9507 42.7906 41.6344 42.6154 42.3803 42.6874C42.8261 42.7304 43.2257 42.5931 43.5919 42.3408C43.8953 42.1333 44.103 41.8516 44.1826 41.4887C44.4441 40.293 44.6968 39.0978 44.6547 37.8588C44.6158 36.7117 44.354 35.6289 43.7973 34.6309C43.5984 34.2751 43.5065 33.9158 43.4881 33.5096C43.4085 31.7778 42.9384 30.1649 41.9746 28.7195C41.7698 28.4123 41.68 28.0987 41.6686 27.726C41.6291 26.4351 41.4243 25.1741 40.9045 23.9798C40.3332 22.667 39.4325 21.6613 38.184 20.9888C37.8172 20.7911 37.5677 20.5441 37.4565 20.1249C37.2883 19.4895 36.8519 19.0756 36.2619 18.8328C35.9015 18.6845 35.5285 18.5659 35.1614 18.4349C34.5725 18.2235 33.9913 17.9952 33.4674 17.6427C33.3378 17.5555 33.2111 17.4627 33.0871 17.366C32.8984 17.2178 32.827 17.0357 32.9221 16.7938C33.0648 16.4306 33.088 16.0526 32.92 15.6968C32.7615 15.3627 32.88 15.1335 33.0994 14.9141C33.2184 14.9375 33.2699 15.0199 33.3041 15.1127C33.4094 15.4092 33.5142 15.7057 33.6113 16.0066C33.6607 16.1587 33.6853 16.3271 33.6227 16.473C33.4817 16.8009 33.6438 16.977 33.8813 17.1644C34.2548 17.4609 34.638 17.7052 35.1137 17.8075C35.668 17.9261 36.1837 18.1722 36.7006 18.4026C37.2415 18.6433 37.6244 19.0504 37.8634 19.5971C37.905 19.6864 37.9416 19.778 37.9731 19.8714C38.0738 20.1922 38.2841 20.4051 38.5731 20.5634C39.0535 20.8274 39.4975 21.1543 39.8938 21.5356C40.8592 22.4547 41.4612 23.5917 41.8192 24.869C42.0594 25.7264 42.2145 26.5999 42.2054 27.4968C42.2013 27.9276 42.3136 28.3077 42.6667 28.5938C42.8557 28.2487 42.8513 28.2484 42.8829 27.7043C42.8998 27.4126 42.8638 27.1096 43.0259 26.8246C43.1646 26.9083 43.1654 27.0532 43.2014 27.1692C43.3679 27.7162 43.5232 28.2662 43.6844 28.8156C43.7078 28.8885 43.7416 28.9575 43.7847 29.0204C43.795 29.0362 43.8792 29.0285 43.883 29.0166C43.9144 28.9256 43.9355 28.8313 43.9459 28.7355C44.0044 27.8668 43.9813 26.9978 43.9652 26.1285C43.9602 25.872 43.9652 25.6153 43.9652 25.3546C44.1021 25.3333 44.1088 25.4534 44.1322 25.5275C44.5209 26.7495 44.81 28.0017 44.9967 29.2716C45.1789 30.5225 45.2669 31.7856 45.2599 33.05C45.2583 33.149 45.2624 33.248 45.2722 33.3465C45.2759 33.3643 45.2837 33.381 45.2948 33.3953C45.3059 33.4096 45.3201 33.4211 45.3363 33.4289C45.3536 33.434 45.372 33.4347 45.3897 33.4311C45.4074 33.4275 45.424 33.4196 45.4381 33.4082C45.5642 33.2576 45.6899 33.1064 45.8034 32.9463C46.1521 32.4459 46.4658 31.9215 46.7424 31.3769C46.7939 31.2776 46.8507 31.181 46.9013 31.0894C47.0379 31.1486 46.9996 31.2355 46.9946 31.3025C46.9247 32.2495 46.7492 33.1808 46.5725 34.1115C46.2007 36.0716 45.6867 37.9955 45.1578 39.917C45.0271 40.3914 44.9109 40.8717 44.7857 41.3485C44.7407 41.5199 44.7012 41.6945 44.6395 41.8593C44.3095 42.7218 43.6856 43.1826 42.7732 43.2232C42.4423 43.2329 42.1121 43.2597 41.7838 43.3035C41.3143 43.3729 40.8723 43.5155 40.4675 43.767C39.7362 44.2218 38.9344 44.4367 38.091 44.523C36.3853 44.6976 34.6758 44.813 32.9636 44.9061C30.9177 45.0175 28.8724 45.0214 26.8273 44.9571C25.3477 44.9105 23.8728 44.7792 22.4005 44.6084C22.3072 44.5974 22.2019 44.598 22.1633 44.4495C23.6707 44.1948 25.1912 44.0047 26.7118 43.3999C26.4962 43.2973 26.347 43.3071 26.2092 43.2813C26.0565 43.2517 25.9015 43.2327 25.747 43.2131C24.044 42.9952 22.3617 42.6768 20.7235 42.1443C19.59 41.7775 18.497 41.2926 17.4621 40.6974C17.3478 40.6313 17.2024 40.596 17.1404 40.4142C18.0179 40.499 18.8832 40.5803 19.7468 40.666C20.5995 40.7505 21.4516 40.8397 22.3043 40.9263C22.3237 40.93 22.3438 40.9291 22.3628 40.9236C22.3959 40.9103 22.44 40.8981 22.4541 40.8714C22.4681 40.8447 22.4693 40.7825 22.45 40.7644C21.9474 40.2704 21.4908 39.724 20.9066 39.3226C20.7274 39.2034 20.5328 39.1099 20.3283 39.0448C19.5142 38.7738 18.6995 38.5111 17.8377 38.4221C17.1526 38.3528 16.4983 38.1467 15.9106 37.7764C15.5798 37.5636 15.1894 37.4662 14.799 37.4992C14.4287 37.5207 14.0572 37.4878 13.6962 37.4013C12.8812 37.2154 12.3368 36.7277 12.1297 35.9032C12.0223 35.4747 11.8477 35.0881 11.6277 34.7116C11.4396 34.3899 11.2831 34.0492 11.1129 33.7171C10.8008 33.5594 10.4822 33.4132 10.1768 33.2428C9.62101 32.9285 9.15619 32.5069 8.8818 31.9157C8.7098 31.5454 8.43424 31.4054 8.05542 31.366C6.89331 31.2446 5.73218 31.1147 4.57203 30.9764C3.43118 30.8415 2.29179 30.6921 1.15094 30.5539C0.803129 30.5118 0.448886 30.5139 0.109264 30.4172C0.0589496 30.403 -0.019742 30.392 0.00453762 30.3099C0.0195097 30.2556 0.0528605 30.2083 0.098737 30.1765C0.269572 30.0822 0.446832 29.9986 0.622054 29.9138C2.89965 28.7909 5.17717 27.6676 7.45457 26.5439C7.61268 26.4683 7.76459 26.38 7.90886 26.28C8.01387 26.205 8.03962 26.0802 7.96736 25.9645C7.90593 25.8652 7.82373 25.7792 7.7506 25.6873C7.45953 25.32 7.32762 24.8912 7.28696 24.4302C7.27057 24.2443 7.37208 24.1319 7.55637 24.1186C7.67329 24.112 7.79048 24.112 7.9074 24.1186C8.5217 24.1441 9.10412 24 9.68683 23.8274C10.2567 23.6584 10.4453 23.3095 10.5644 22.6299C10.5837 22.5202 10.5059 22.4434 10.4108 22.4034C10.1596 22.297 9.90358 22.2021 9.65318 22.0936C9.53851 22.044 9.51892 21.9426 9.60463 21.8626C9.8094 21.6722 9.84187 21.5439 10.2099 21.7105C10.4755 21.8306 10.7616 21.9026 11.0371 22.0005C11.2352 22.0707 11.3282 22.2003 11.2834 22.4072C11.1427 23.0574 10.8581 23.6374 10.3766 24.0972C10.2546 24.2138 10.0759 24.2751 9.91441 24.3424C9.4961 24.5126 9.05673 24.6013 8.61122 24.6603C8.47607 24.6784 8.33974 24.6899 8.20635 24.7154C8.05746 24.7451 7.98988 24.8844 8.04488 25.0333C8.15106 25.3206 8.35437 25.534 8.57611 25.7285C8.70833 25.8444 8.8622 25.9343 8.99881 26.0455C9.12167 26.1454 9.11757 26.3073 8.98623 26.3947C8.85452 26.4789 8.71774 26.5547 8.57669 26.6215C6.51381 27.6464 4.44985 28.6711 2.38482 29.6956C2.21749 29.7777 2.01184 29.8141 1.90537 30.0086Z" fill="#5D01EE"/>
<path d="M41.7863 39.0494C41.7105 38.7182 41.776 38.3802 41.7406 38.0478C41.6219 36.931 41.1301 36.0234 40.233 35.3539C40.0259 35.1995 39.8881 35.2552 39.7942 35.5149C39.7538 35.6255 39.7324 35.7432 39.6968 35.8559C39.4642 36.5879 39.0117 37.1308 38.3333 37.4783C37.7167 37.7934 37.0529 37.9366 36.3757 38.0416C35.582 38.1663 34.7697 38.0629 34.0311 37.743C33.8681 37.6776 33.7119 37.5959 33.5649 37.499C33.0927 37.1729 32.541 37.1468 32.0063 37.0493C31.8334 37.0178 31.7018 37.0997 31.6286 37.2612C31.5801 37.3686 31.5447 37.4815 31.502 37.5915C31.4452 37.7398 31.3928 37.888 31.3285 38.0306C31.2808 38.1371 31.2232 38.2975 31.11 38.2812C30.9187 38.2515 31.0126 38.0612 31.0026 37.9402C30.9719 37.5669 30.9582 37.1919 30.9292 36.8183C30.9254 36.7697 30.8798 36.6997 30.8376 36.6837C30.7353 36.6451 30.7133 36.743 30.6914 36.8121C30.6051 37.0742 30.5238 37.338 30.4416 37.6016C30.3128 38.0149 30.2151 38.4404 29.9785 38.8116C29.9484 38.8625 29.925 38.9171 29.9089 38.9741C29.8308 39.2207 29.8823 39.3969 30.0873 39.5442C30.1834 39.6101 30.2848 39.6678 30.3904 39.7165C32.2918 40.6433 34.283 41.3211 36.3231 41.8583C36.7449 41.9695 37.1562 42.0199 37.5906 41.931C38.0478 41.837 38.5117 41.7697 38.9815 41.7753C39.1372 41.7771 39.2931 41.7783 39.4496 41.7872C39.4671 41.7899 39.4837 41.7967 39.4983 41.807C39.5128 41.8173 39.5249 41.8308 39.5335 41.8465C39.5452 41.8737 39.5379 41.9327 39.5177 41.9473C38.7358 42.5147 37.9088 42.9257 36.909 42.6467C35.7643 42.3265 34.6188 42.0074 33.4803 41.6656C31.9682 41.2117 30.4623 40.7364 28.9541 40.2694C28.8038 40.2276 28.6557 40.1781 28.5103 40.1212C28.2851 40.0257 28.2353 39.8795 28.345 39.6426C28.4111 39.5 28.4963 39.3666 28.5723 39.2276C29.0696 38.3256 29.4569 37.3831 29.609 36.3516C29.6512 36.0387 29.6692 35.723 29.6629 35.4073C29.6614 35.2493 29.6488 35.0915 29.6456 34.9329C29.6377 34.5208 29.7152 34.4585 30.1341 34.5498C30.2292 34.5703 30.3219 34.6026 30.417 34.6231C31.2194 34.7965 32.0259 34.9196 32.8505 34.8368C32.9263 34.8294 33.0012 34.8119 33.0717 34.7998C33.1225 34.6444 32.9985 34.6302 32.9295 34.5869C32.7192 34.4547 32.4322 34.4722 32.2628 34.259C32.2799 34.2215 32.3048 34.1881 32.3358 34.1612C32.3668 34.1344 32.4032 34.1146 32.4424 34.1033C32.7222 34.0172 33.0111 33.9649 33.303 33.9477C34.3545 33.8908 35.4089 33.9562 36.4456 34.1425C36.6173 34.1721 36.7917 34.1941 36.9655 34.2124C36.9988 34.216 37.0354 34.1858 37.0886 34.1638C37.0778 33.7896 36.8748 33.5489 36.5501 33.406C36.2254 33.2631 35.8974 33.146 35.5739 33.0099C35.3399 32.9114 35.1103 32.8023 34.8806 32.6956C34.6335 32.5755 34.4171 32.399 34.2485 32.18C34.0642 31.9487 34.073 31.7175 34.2517 31.4773C34.3661 31.3249 34.5202 31.3024 34.6443 31.4518C34.9696 31.8435 35.3782 32.0916 35.8574 32.2349C36.025 32.2873 36.2001 32.3113 36.3754 32.306C36.5278 32.3001 36.5916 32.2005 36.5155 32.0759C36.4333 31.9422 36.3339 31.818 36.2608 31.6795C35.8299 30.8639 36.08 29.7746 36.8166 29.2385C37.2682 28.91 37.9814 29.0606 38.3064 29.5697C38.4105 29.7328 38.4664 29.9276 38.5463 30.1069C38.5755 30.1754 38.5931 30.2671 38.699 30.2496C38.7835 30.2356 38.8291 30.1668 38.8604 30.0963C38.8918 30.0242 38.9145 29.9485 38.928 29.8709C39.1184 28.7902 39.1494 27.7116 38.8604 26.6425C38.6402 25.8283 38.233 25.1155 37.6813 24.4858C37.6166 24.412 37.5441 24.3453 37.4812 24.27C37.2846 24.0354 37.2235 23.787 37.4168 23.5172C37.8682 23.4754 38.0706 23.8157 38.273 24.1211C39.0871 25.3483 39.4686 26.7204 39.535 28.1857C39.5902 29.3683 39.4951 30.5532 39.2521 31.7113C39.2088 31.9188 39.0728 32.137 39.4823 32.1764C39.75 32.2022 39.8544 32.5242 39.8576 32.7837C39.8655 33.3923 40.1862 33.8101 40.5954 34.1997C41.9322 35.4722 42.1241 37.1002 41.9735 38.83C41.9665 38.9288 41.9325 39.0237 41.8752 39.1039C41.8293 39.1671 41.8916 39.1016 41.829 39.1315C41.7441 39.1709 41.767 39.0971 41.7863 39.0494Z" fill="#5D01EE"/>
<path d="M30.7189 6.46479C30.5092 6.48317 30.3579 6.33759 30.1821 6.26347C28.271 5.45939 26.3179 5.2388 24.3152 5.85521C22.4355 6.43366 21.0272 7.59501 20.1614 9.40092C20.1383 9.53286 20.1754 9.59927 20.319 9.54917C20.8163 9.2005 21.3253 8.87347 21.8729 8.61285C21.9853 8.7107 21.894 8.78897 21.8501 8.86398C21.0208 10.2768 20.6721 11.8161 20.6493 13.4468C20.625 15.2258 20.9737 16.9386 21.5368 18.6137C21.6246 18.8726 21.7123 19.1305 21.8086 19.408C21.6568 19.4258 21.5915 19.3312 21.5187 19.2622C19.7013 17.5413 18.6058 15.4343 18.2322 12.941C18.2205 12.863 18.2225 12.7824 18.2056 12.7056C18.1576 12.4877 18.2559 12.2413 18.083 12.0474C17.8931 12.1684 17.8229 12.383 17.7004 12.5562C17.5418 12.78 17.397 13.0139 17.2481 13.2402C17.091 13.2129 17.1337 13.0961 17.1355 13.0101C17.1589 11.9175 17.3593 10.8511 17.6237 9.79674C17.9809 8.37359 18.5133 7.0216 19.2551 5.75588C19.8015 4.81825 20.4929 3.97559 21.3028 3.26003C22.7731 1.95904 24.4419 0.908465 26.2441 0.149264C26.2787 0.131524 26.3117 0.111 26.343 0.0878906C26.3772 0.44101 26.0856 0.54656 25.875 0.701624C25.0536 1.30617 24.2784 1.95993 23.6459 2.7729C23.3449 3.16012 23.0755 3.56186 22.9866 4.04484C23.1598 4.17915 23.2841 4.08309 23.4034 4.0398C24.3688 3.69083 25.3575 3.50612 26.3834 3.5749C26.8655 3.60663 27.2978 3.49515 27.7196 3.24877C28.2082 2.96325 28.7271 2.7308 29.2844 2.60983C29.4142 2.58018 29.5839 2.54104 29.6509 2.69314C29.715 2.83872 29.5857 2.9505 29.478 3.03262C28.8874 3.4821 28.2447 3.85568 27.5473 4.38017C28.1324 4.45192 28.5981 4.61262 29.0544 4.80504C29.6324 5.04714 30.1466 5.4228 30.556 5.90205C30.6885 6.0586 30.8845 6.21248 30.7189 6.46479Z" fill="white"/>
<path d="M35.0915 24.8724C34.9798 25.0817 34.9566 25.2726 34.9411 25.4615C34.7899 27.3362 34.1139 29.0229 33.1512 30.6068C32.6606 31.4153 32.1159 32.1862 31.5879 32.9662C31.3925 33.2544 31.1436 33.4 30.8274 33.4587C30.481 33.523 30.13 33.542 29.7822 33.4735C29.7458 33.4627 29.7119 33.4447 29.6825 33.4204C29.6531 33.3961 29.6288 33.3661 29.611 33.3321C29.5751 33.2586 29.6312 33.1839 29.693 33.1299C30.1174 32.7525 30.5512 32.3848 30.9625 31.9929C31.4165 31.5603 31.8626 31.1179 32.2441 30.6148C32.4942 30.2845 32.7153 29.937 32.8786 29.5536C32.9169 29.4647 32.9622 29.374 32.8935 29.2572C32.646 29.3796 32.4784 29.6017 32.2762 29.776C31.9945 30.0188 31.7307 30.283 31.4651 30.5442C31.2205 30.7847 30.942 30.9593 30.6021 31.0076C29.8141 31.1158 29.1816 31.522 28.6112 32.0525C28.4962 32.1592 28.3903 32.276 28.2727 32.3786C27.9855 32.6306 27.6655 32.7092 27.2963 32.5755C26.9663 32.4569 26.6299 32.3555 26.2964 32.2458C26.2218 32.2209 26.1484 32.198 26.0727 32.2496C26.0981 32.453 26.2798 32.5194 26.405 32.6351C26.5302 32.7507 26.7136 32.794 26.8031 32.9612C26.6586 33.0667 26.5252 33.0125 26.3997 32.9888C24.9976 32.7219 23.7266 32.1459 22.5729 31.3032C22.1756 31.0133 21.8515 30.6424 21.5698 30.2359C21.2706 29.797 21.0065 29.3346 20.78 28.853C20.6879 28.6615 20.7233 28.5367 20.8947 28.4608C21.3042 28.2787 21.7138 28.0899 22.1344 27.9381C22.7423 27.7193 23.0061 27.8091 23.4119 28.309C23.5973 28.5373 23.7775 28.7706 23.9756 28.9871C24.0797 29.1009 24.2134 29.1893 24.3418 29.2767C24.3662 29.2907 24.3932 29.2994 24.4211 29.3024C24.4489 29.3053 24.4771 29.3024 24.5039 29.2939C24.5787 29.2643 24.5436 29.1901 24.5199 29.1421C24.4322 28.966 24.3403 28.7926 24.2458 28.6203C24.113 28.3787 23.9723 28.1409 23.901 27.8711C23.8869 27.8186 23.848 27.7474 23.9246 27.7175C23.9777 27.6979 24.0356 27.6958 24.0899 27.7116C24.2801 27.7709 24.4459 27.8767 24.56 28.0457C25.1062 28.8554 25.8205 29.4935 26.5799 30.0855C26.6442 30.1302 26.7031 30.1823 26.7554 30.2409C26.7873 30.2809 26.8157 30.3521 26.8016 30.3945C26.7894 30.4203 26.7718 30.4432 26.75 30.4615C26.7282 30.4798 26.7028 30.4931 26.6756 30.5006C26.4641 30.5504 26.2499 30.527 26.0364 30.5033C25.9223 30.4906 25.8179 30.4078 25.6944 30.4538C25.6909 30.5724 25.7863 30.6068 25.8638 30.6542C26.13 30.8185 26.3965 30.9821 26.6633 31.1452C27.3095 31.5383 27.9828 31.5861 28.6799 31.3032C29.265 31.066 29.7822 30.7144 30.2686 30.3162C31.12 29.6187 31.8269 28.7573 32.3485 27.7818C33.007 26.5603 33.4677 25.2643 33.7029 23.8901C33.7392 23.6787 33.7778 23.4658 33.7321 23.2512C33.6014 23.2215 33.5566 23.3164 33.5046 23.3967C33.3875 23.5746 33.3419 23.7964 33.1699 23.939C33.0196 23.8916 33.0693 23.7712 33.0839 23.6983C33.2328 22.957 33.1219 22.2455 32.8897 21.5422C32.8471 21.4109 32.821 21.2746 32.8122 21.1366C32.7624 20.4102 32.7206 19.6838 32.6776 18.9805C32.8157 18.8931 32.9025 18.9405 32.9874 18.9873C33.1755 19.0908 33.3677 19.1896 33.549 19.3034C33.9243 19.5379 34.2025 19.8558 34.3646 20.2792C34.5544 20.7761 34.7589 21.2674 34.9575 21.7616C35.0687 22.0373 35.2027 22.2997 35.4104 22.5153C35.4237 22.5292 35.4397 22.5403 35.4574 22.5476C35.4751 22.555 35.4942 22.5585 35.5133 22.558C35.5418 22.5536 35.568 22.5396 35.5878 22.5184C35.6077 22.4972 35.6199 22.4699 35.6227 22.4409C35.6733 22.067 35.6584 21.6916 35.6385 21.3172C35.6219 21.002 35.5911 20.6874 35.5712 20.3723C35.5645 20.267 35.6672 20.2012 35.771 20.232C36.1358 20.3411 36.3239 20.5985 36.3304 20.9732C36.3383 21.4269 36.347 21.8841 36.3011 22.3344C36.2028 23.2984 35.9639 24.2422 35.592 25.1351C35.5599 25.207 35.5224 25.2764 35.48 25.3426C35.4393 25.4096 35.3182 25.409 35.2854 25.3382C35.2226 25.1961 35.1667 25.0526 35.0915 24.8724Z" fill="#5D01EE"/>
<path d="M30.7198 6.46583C30.7426 6.35435 30.6709 6.28171 30.613 6.20521C30.1766 5.62943 29.6213 5.2093 28.964 4.92823C28.4803 4.72045 27.9713 4.57954 27.4505 4.50929C27.4227 4.50471 27.3961 4.49446 27.3722 4.47918C27.3484 4.46389 27.3279 4.44388 27.3119 4.42035C27.2826 4.36698 27.3317 4.31539 27.3791 4.28218C27.5067 4.19264 27.6352 4.10369 27.7647 4.01534C28.2983 3.65501 28.8321 3.29497 29.3663 2.93523C29.4587 2.87267 29.571 2.82879 29.6178 2.67432C29.0656 2.78046 28.5621 2.97555 28.0771 3.22045C27.7653 3.37789 27.4798 3.62605 27.1524 3.70432C26.8251 3.7826 26.4586 3.69395 26.1093 3.69098C25.0831 3.68209 24.1102 3.94092 23.1586 4.30471C23.055 4.34415 22.9442 4.45474 22.8368 4.36401C22.7104 4.25787 22.783 4.11348 22.8219 3.98095C22.9866 3.42266 23.2861 2.94323 23.655 2.50443C24.2766 1.76321 25.0006 1.14058 25.7773 0.577247C25.9794 0.430485 26.1929 0.296768 26.3424 0.08715C26.4349 0.0483099 26.5261 -0.00179702 26.6291 0.054536L26.6212 0.0465311C26.6747 0.202485 26.5645 0.309814 26.5016 0.425445C26.2199 0.944005 25.9303 1.45841 25.6442 1.9746C25.6164 2.02501 25.5857 2.09112 25.6424 2.12641C25.6673 2.13815 25.6943 2.1447 25.7217 2.14567C25.7492 2.14663 25.7765 2.142 25.8021 2.13204C26.6697 1.77823 27.5653 1.49982 28.4793 1.29979C30.386 0.882603 32.3453 0.770259 34.2862 0.966835C34.5179 0.989961 34.7511 1.00686 34.9798 1.04778C35.0325 1.05697 35.0044 1.14147 34.9585 1.18238C33.5014 1.38311 32.5718 2.50651 32.5209 4.11378C32.4916 5.00028 32.6115 5.89271 32.4003 6.77121C32.3459 6.99625 32.3363 7.24975 32.0832 7.36834C31.8621 7.2963 31.8232 7.08994 31.7732 6.90671C31.6178 6.33626 31.5485 5.75425 31.5947 5.16157C31.6096 4.96737 31.6269 4.77317 31.643 4.5843C31.4997 4.52086 31.4566 4.62374 31.409 4.69608C31.1498 5.09694 31.0103 5.54078 30.9482 6.01427C30.9289 6.16252 30.9813 6.33508 30.8342 6.45071C30.8261 6.45965 30.8164 6.46684 30.8055 6.47184C30.7946 6.47683 30.7828 6.47952 30.7709 6.47974C30.7589 6.47996 30.7471 6.47771 30.736 6.47313C30.725 6.46854 30.715 6.46172 30.7066 6.45308L30.7198 6.46583Z" fill="#5D01EE"/>
<path d="M41.7855 39.0503C41.7952 38.401 41.8303 37.7505 41.808 37.1024C41.7753 36.1364 41.3956 35.3071 40.7351 34.6119C40.5326 34.3987 40.3156 34.2004 40.1114 33.9893C39.8712 33.7402 39.7311 33.4467 39.7387 33.0879C39.7443 32.8297 39.7141 32.5753 39.5901 32.3423C39.5316 32.2323 39.3962 32.2041 39.2894 32.2714C39.1826 32.3387 39.1361 32.5086 38.9404 32.481C38.9872 32.2299 39.0282 31.9794 39.0808 31.7309C39.3416 30.5144 39.4367 29.2674 39.3634 28.0248C39.292 26.8498 39.0007 25.7296 38.4469 24.6884C38.1956 24.2161 37.899 23.7802 37.4152 23.5164C37.3886 23.1964 37.4737 22.8884 37.5252 22.5783C37.562 22.3618 37.7159 22.2818 37.9154 22.3633C38.4829 22.5984 38.9787 22.9373 39.3663 23.4271C39.832 24.015 40.0555 24.7053 40.1731 25.4332C40.4039 26.8563 40.3448 28.2649 39.8806 29.6433C39.7855 29.9244 39.725 30.2141 39.7329 30.5147C39.7361 30.636 39.7566 30.7477 39.8326 30.8471C39.9028 30.9384 40.074 30.9615 40.1395 30.8693C40.2148 30.7552 40.2836 30.6369 40.3457 30.515C40.4405 30.343 40.523 30.1634 40.6277 29.9979C40.7895 29.7426 40.9202 29.7441 41.125 29.9875C41.1502 30.0172 41.1724 30.0504 41.1958 30.0818C41.9113 31.0374 42.2524 32.1377 42.4001 33.31C42.4323 33.5635 42.2936 33.669 42.0362 33.5884C41.8127 33.5184 41.5939 33.4292 41.3567 33.4342C41.2397 33.4363 41.1227 33.4571 41.0235 33.5389C41.0782 33.7464 41.2622 33.8404 41.4017 33.9694C41.7334 34.276 42.0497 34.5956 42.3162 34.9641C42.872 35.7326 43.1844 36.5904 43.2438 37.5412C43.2944 38.3494 43.3315 39.158 43.2598 39.9674C43.2423 40.1642 43.2306 40.359 43.1428 40.5429C42.9465 40.9517 42.6347 41.1815 42.1839 41.2055C41.9891 41.2135 41.7942 41.192 41.6056 41.1418C41.2089 41.0424 40.8111 40.9467 40.4112 40.8619C39.8189 40.7365 39.2204 40.6632 38.6131 40.6775C38.5625 40.6775 38.4835 40.6686 38.4668 40.6365C38.4156 40.5435 38.5043 40.5022 38.5645 40.4587C38.9448 40.1788 39.3356 39.9143 39.8224 39.8743C40.0163 39.8601 40.2112 39.865 40.4042 39.8888C41.1785 39.9766 41.4939 39.7898 41.7855 39.0503Z" fill="white"/>
<path d="M28.1428 37.8789C28.0407 37.9343 27.938 37.988 27.8374 38.0458C27.572 38.1991 27.3094 38.2133 27.0025 38.1437C26.3423 37.9936 25.67 37.8958 25.0013 37.7864C24.8484 37.7599 24.6924 37.7566 24.5386 37.7766C24.2715 37.8146 24.1782 38.0435 24.2879 38.3426C24.3016 38.5677 24.1799 38.5347 24.0442 38.4737C23.1081 38.2824 22.2013 37.9919 21.2003 37.6921C21.7625 37.5658 22.1814 37.3298 22.5602 37.0173C22.5899 36.9916 22.6254 36.9735 22.6635 36.9645C22.7173 36.9542 22.789 36.9349 22.8261 36.9616C22.8981 37.0114 22.8899 37.1033 22.8595 37.1768C22.8144 37.2856 22.7536 37.3873 22.7024 37.4938C22.6512 37.6002 22.605 37.7063 22.5599 37.8054C22.6699 37.9275 22.7893 37.8943 22.8954 37.8599C23.1587 37.7763 23.3837 37.6171 23.5928 37.438C23.6692 37.3725 23.7315 37.2809 23.6557 37.1836C23.4524 36.9233 23.4621 36.6369 23.5311 36.3383C23.5385 36.2993 23.5423 36.2596 23.5425 36.2197C23.5498 36.0386 23.443 35.963 23.2874 36.0303C23.104 36.1092 22.9604 36.2423 22.8094 36.3671C22.4792 36.6458 22.0943 36.8501 21.6803 36.9666C21.4112 37.041 21.1447 37.0481 20.8808 37.0452C20.8369 36.9284 20.908 36.8854 20.9662 36.8376C21.8698 36.1181 22.3253 35.1832 22.2899 34.0118C22.2899 33.9919 22.2876 33.9721 22.2885 33.9525C22.2958 33.7583 22.3379 33.7203 22.5415 33.745C24.0115 33.9228 25.4814 34.1007 26.951 34.2786C27.5507 34.3504 28.1504 34.4109 28.7515 34.4808C28.8849 34.4963 29.0148 34.5292 29.1429 34.5529C29.245 35.4622 28.8548 37.2806 28.3616 38.2213C28.3311 38.266 28.3013 38.3112 28.272 38.3568V38.3589C28.1624 38.3779 28.0997 38.35 28.1387 38.2211C28.1382 38.184 28.1477 38.1475 28.1662 38.1155C28.1907 38.0357 28.2516 37.9495 28.1428 37.8789Z" fill="white"/>
<path d="M29.1824 13.4702L29.7505 13.4435C29.5539 13.8711 29.1262 13.9965 28.8729 14.3072C28.9355 14.4371 29.0423 14.3825 29.1166 14.3712C29.8909 14.2526 30.6105 13.9894 31.2631 13.5425C31.3862 13.4583 31.4831 13.3163 31.6574 13.3243C31.7139 13.6662 31.4462 13.8085 31.245 13.973C30.7208 14.4018 30.1041 14.6301 29.453 14.7774C29.2687 14.8189 29.0756 14.8314 28.8585 14.9408C29.2973 15.3891 29.4348 15.9068 29.3105 16.4736C29.2608 16.7002 29.2318 17.0797 28.8132 16.8333C28.8 16.8256 28.819 16.793 28.7877 16.7983C28.867 17.2155 28.6149 17.6878 29.0779 18.0436C29.5752 18.4269 29.8022 19.0036 29.9368 19.6108C29.978 19.797 30.0643 19.9939 29.8906 20.1643C29.5667 20.3648 29.2268 20.3422 28.8784 20.2462C28.3651 20.1053 27.9099 19.8462 27.4758 19.545C26.8465 19.1082 26.3057 18.5728 25.8054 17.9926C25.4097 17.5327 25.0288 17.0586 24.5807 16.6486C24.3364 16.425 24.0743 16.2213 23.8239 16.0043C23.8121 15.9895 23.8038 15.972 23.7997 15.9534C23.7957 15.9348 23.7959 15.9155 23.8005 15.897C23.8078 15.8721 23.852 15.8457 23.8821 15.8421C24.2501 15.7982 24.5722 15.9388 24.8703 16.1282C25.1683 16.3177 25.4395 16.5383 25.7303 16.734C25.8154 16.7912 25.8628 16.7174 25.8783 16.6317C25.8245 15.8433 25.6393 15.1288 24.9498 14.6304C24.6181 14.3908 24.3706 14.0492 24.184 13.6751C24.0962 13.4972 24.0126 13.3042 24.1521 13.1203C24.2867 12.9424 24.4669 13.0376 24.6356 13.0717C26.0617 13.3602 27.5001 13.5248 28.9562 13.5093C29.0336 13.5138 29.1109 13.5004 29.1824 13.4702Z" fill="white"/>
<path d="M17.6006 34.0618C17.6085 32.8089 17.2279 31.6603 16.6701 30.5609C16.5636 30.3512 16.4625 30.1387 16.3667 29.9234C16.3509 29.8872 16.3448 29.8474 16.3489 29.808C16.353 29.7687 16.3672 29.7311 16.3901 29.699C16.4446 29.6195 16.5226 29.6326 16.5984 29.6593C17.882 30.1126 18.9913 30.7933 19.6462 32.0656C19.691 32.153 19.7378 32.2396 19.7902 32.3226C20.2181 33.0022 20.7631 33.4967 21.6126 33.5252C21.7983 33.5314 21.8551 33.6094 21.8355 33.7888C21.7881 34.2273 21.6524 34.6344 21.3879 34.9898C21.1235 35.3453 20.7827 35.5416 20.3372 35.5152C20.0663 35.4992 19.7922 35.4879 19.5266 35.4375C19.0495 35.3486 18.5756 35.2368 18.1037 35.1212C17.6515 35.0103 17.5997 34.9338 17.6006 34.4757V34.0618Z" fill="#5D01EE"/>
<path d="M29.8882 20.1652C29.8636 20.0303 29.8338 19.8963 29.8153 19.7605C29.7249 19.0872 29.4093 18.5395 28.917 18.0892C28.8603 18.0355 28.8009 17.9849 28.7391 17.9374C28.5411 17.7891 28.4797 17.6189 28.5885 17.374C28.7087 17.1042 28.7239 16.8042 28.7573 16.497C28.7866 16.5297 28.8132 16.5648 28.8368 16.602C28.8825 16.6966 28.833 16.8774 28.9995 16.8596C29.1235 16.8463 29.1457 16.6886 29.1694 16.583C29.282 16.1015 29.2294 15.6449 28.9252 15.2399C28.8114 15.0887 28.6876 14.9434 28.5449 14.7655C28.8436 14.7196 29.0919 14.6846 29.3394 14.6428C30.2082 14.4945 30.9483 14.0922 31.5737 13.4696C31.6123 13.4313 31.6301 13.3714 31.6573 13.3213L31.643 13.3323C31.7069 13.2865 31.7536 13.2202 31.7755 13.144C31.9838 12.8603 32.2942 12.6696 32.4712 12.3574C32.4778 12.3444 32.4871 12.333 32.4984 12.3238C32.5097 12.3147 32.5228 12.308 32.5368 12.3043C32.5508 12.3005 32.5654 12.2998 32.5797 12.3021C32.594 12.3044 32.6076 12.3097 32.6198 12.3177C32.6348 12.3272 32.6478 12.3398 32.6579 12.3547C32.668 12.3695 32.6749 12.3863 32.6783 12.404C32.7182 12.796 32.7173 13.1913 32.6753 13.5831C32.6119 14.115 32.3893 14.5541 31.9481 14.8752C31.6003 15.1305 31.2659 15.4012 30.9322 15.6707C30.5741 15.961 30.4279 16.3375 30.5045 16.8688C30.7093 16.6385 30.8664 16.446 31.0392 16.2678C31.2011 16.0981 31.3729 15.9383 31.5535 15.7893C31.7431 15.6357 31.9338 15.4733 32.164 15.3982C32.243 15.5148 32.1778 15.5761 32.1348 15.6337C31.5263 16.4594 31.1987 17.3933 31.0741 18.4097C31.0224 18.8627 30.8486 19.2925 30.5718 19.652C30.3936 19.8847 30.2044 20.1163 29.8882 20.1652Z" fill="#5D01EE"/>
<path d="M32.082 7.3697C32.2575 6.9045 32.331 6.41915 32.343 5.92549C32.3579 5.31591 32.3561 4.70544 32.357 4.09556C32.3579 3.66155 32.4382 3.23148 32.594 2.82718C32.9637 1.85736 33.6909 1.33287 34.6747 1.14252C34.7624 1.12562 34.8625 1.16891 34.957 1.18374C34.7308 1.29759 34.4992 1.40195 34.2792 1.52737C33.306 2.08358 32.9573 3.06911 33.1217 4.03211C33.1587 4.22542 33.2054 4.4167 33.2615 4.60523C33.2805 4.67372 33.279 4.76859 33.3747 4.78608C33.4704 4.80358 33.5052 4.72293 33.54 4.65296C33.6277 4.47685 33.7129 4.29955 33.8032 4.12462C33.8369 4.05398 33.8795 3.9881 33.9299 3.92864C33.939 3.91739 33.9507 3.90857 33.9639 3.90297C33.9772 3.89736 33.9916 3.89513 34.0059 3.89648C34.0202 3.89783 34.0339 3.90271 34.0459 3.91069C34.0579 3.91867 34.0678 3.92952 34.0747 3.94228C34.1179 4.00813 34.1554 4.07755 34.187 4.14982C34.7136 5.40012 35.0137 6.69548 34.9339 8.06348C34.9025 8.61573 34.7911 9.16029 34.6033 9.67965C34.5951 9.7025 34.5812 9.72282 34.563 9.73863C34.5448 9.75444 34.5228 9.76521 34.4993 9.7699C34.4757 9.77458 34.4514 9.77302 34.4286 9.76536C34.4058 9.7577 34.3854 9.74421 34.3693 9.72619C34.278 9.62391 34.1911 9.51687 34.1075 9.40806C33.638 8.79729 33.0939 8.26302 32.505 7.77262C32.3564 7.64869 32.2227 7.5046 32.082 7.3697Z" fill="#FEFEFF"/>
<path d="M28.604 11.0497C28.1565 11.109 27.7458 10.9699 27.3394 10.8072C26.6131 10.5133 25.9499 10.1252 25.4 9.54648C25.118 9.24999 24.7389 9.15452 24.3469 9.10174C24.119 9.0721 23.816 9.05816 23.8204 8.75693C23.8239 8.41685 24.1275 8.34184 24.411 8.32049C25.0103 8.27395 25.5407 8.52359 26.0784 8.73558C26.1129 8.75218 26.1474 8.78302 26.1819 8.78272C26.2568 8.78272 26.2752 8.72076 26.2404 8.67065C25.9973 8.31279 25.6867 8.01837 25.3664 7.73433C25.2224 7.60655 25.0738 7.4841 24.9325 7.36343C24.996 7.21815 25.1081 7.19591 25.2186 7.16537C26.0301 6.93974 26.8588 6.87926 27.6934 6.94034C28.6587 7.0112 29.6126 7.16804 30.5326 7.49151C30.1342 7.70617 29.6902 7.73226 29.2581 7.80668C28.5806 7.9229 27.9292 8.0919 27.3634 8.77561C28.2758 8.72669 28.9243 9.34694 29.7601 9.30276C30.0781 9.28616 30.0035 9.56279 29.9564 9.73653C29.7656 10.4425 29.3231 10.8964 28.604 11.0497Z" fill="#FEFEFE"/>
<path d="M18.9118 23.9021C18.9118 23.5421 18.9205 23.3061 18.9103 23.0719C18.8831 22.4611 19.118 21.9123 19.3046 21.3546C19.3871 21.1085 19.7112 21.0694 19.8794 21.2701C19.9539 21.3605 20.0106 21.4645 20.0468 21.5764C20.1073 21.7632 20.1445 21.958 20.1913 22.1492C20.4677 23.302 20.9376 24.3981 21.5805 25.3895C21.6667 25.5203 21.744 25.6569 21.8119 25.7984C21.873 25.928 21.7955 26.0418 21.658 26.0329C21.5026 26.0242 21.3479 26.0064 21.1946 25.9796C20.1216 25.78 19.0718 25.4862 18.0269 25.1734C17.952 25.1518 17.8784 25.126 17.8063 25.0963C17.5278 24.9792 17.3702 24.7702 17.3675 24.4612C17.3653 24.3034 17.3744 24.1457 17.395 23.9892C17.5279 23.0501 17.8188 22.141 18.255 21.3015C18.2915 21.2325 18.3368 21.1687 18.3899 21.1118C18.4043 21.1006 18.4211 21.0931 18.439 21.0898C18.4568 21.0865 18.4752 21.0875 18.4926 21.0928C18.5074 21.1019 18.5199 21.1145 18.5288 21.1295C18.5378 21.1445 18.543 21.1616 18.5441 21.1791C18.5369 21.3365 18.5214 21.4933 18.4975 21.649C18.4376 22.0019 18.4347 22.3567 18.4505 22.7114C18.4701 23.1549 18.5757 23.4345 18.9118 23.9021Z" fill="#5D01EE"/>
<path d="M27.4209 24.0954C26.9821 24.3548 26.6747 24.7477 26.3643 25.1402C26.2231 25.3181 26.1303 25.5387 25.9308 25.6677C25.705 25.424 25.8665 25.1806 25.9554 24.9576C26.1267 24.519 26.3355 24.0964 26.5793 23.6946C26.7426 23.4298 26.7133 23.2397 26.479 23.0328C25.4324 22.108 24.6361 20.9677 23.8498 19.8236C23.7351 19.6573 23.5362 19.4998 23.6971 19.252C23.906 19.2997 23.9896 19.4924 24.1154 19.6323C24.9002 20.5141 25.7299 21.3467 26.6642 22.0665C26.9275 22.2693 27.2027 22.4567 27.4745 22.6479C27.7064 22.8113 27.9451 22.808 28.1876 22.6684C28.4755 22.503 28.7613 22.3334 29.0538 22.1765C29.9021 21.7223 30.7897 21.3784 31.7398 21.2156C31.8547 21.1957 31.9706 21.1809 32.0867 21.172C32.1566 21.1664 32.2277 21.1768 32.3427 21.1821C32.2535 21.3784 32.0999 21.4335 31.9785 21.5168C31.0085 22.1822 30.0873 22.908 29.2492 23.7405C28.2846 24.6924 27.458 25.7781 26.7941 26.9651C26.7464 27.0508 26.694 27.1338 26.6419 27.2169C26.6275 27.233 26.611 27.247 26.5928 27.2587C26.4375 27.1994 26.5097 27.0609 26.5197 26.9708C26.6109 26.1566 26.8505 25.3908 27.2802 24.6916C27.3727 24.541 27.4718 24.3952 27.5678 24.2469C27.6175 24.0972 27.547 24.0684 27.4209 24.0954Z" fill="#FEFEFE"/>
<path d="M16.6314 13.4199C16.4468 13.3651 16.2649 13.304 16.0797 13.2568C15.6968 13.1599 15.3887 13.2746 15.1664 13.6094C15.112 13.6912 15.062 13.776 15.0117 13.8605C14.4617 14.7796 13.7705 15.5801 12.9859 16.2982C12.3117 16.9167 11.5573 17.3911 10.6367 17.5393C10.2712 17.6013 9.89814 17.6013 9.53268 17.5393C8.3977 17.3408 7.30802 16.9338 6.31725 16.3385C6.25026 16.2985 6.18766 16.2496 6.11804 16.2158C5.96154 16.1381 5.7986 16.2309 5.77988 16.4139C5.75063 16.6917 5.78719 16.9659 5.84863 17.2363C6.06012 18.167 6.55069 18.9402 7.17289 19.6379C7.28697 19.7657 7.44026 19.8641 7.51163 20.0773C7.09069 20.0986 6.73936 20.0536 6.46614 19.6998C5.91941 18.9921 5.47624 18.2367 5.28259 17.3475C5.21928 17.0381 5.19364 16.7219 5.20624 16.4061C5.20624 16.3863 5.20799 16.3667 5.21004 16.3468C5.28317 15.5997 5.74594 15.3423 6.38891 15.7183C6.91341 16.0246 7.44522 16.3113 8.01097 16.5286C8.43075 16.6882 8.86103 16.8179 9.29866 16.9167C10.2909 17.1462 11.1931 16.9446 12.0124 16.3507C12.6501 15.8888 13.198 15.3272 13.6988 14.72C14.024 14.3261 14.3191 13.9078 14.5817 13.4685C14.6583 13.331 14.7442 13.1991 14.8388 13.0736C15.0728 12.7805 15.3788 12.6362 15.7567 12.6407C15.956 12.6428 16.1426 12.6959 16.3278 12.7525C16.7235 12.8732 16.7417 12.9194 16.6314 13.4199Z" fill="#5D01EE"/>
<path d="M13.6197 29.9811C13.6853 29.8675 13.7979 29.8435 13.9123 29.8127C14.1191 29.7564 14.2264 29.5942 14.2955 29.4032C14.2996 29.385 14.2997 29.3661 14.2957 29.3478C14.2917 29.3296 14.2837 29.3124 14.2724 29.2977C14.2522 29.2743 14.1981 29.2526 14.1752 29.2639C14.0714 29.3152 13.9719 29.3763 13.8734 29.4376C13.7748 29.499 13.6823 29.5734 13.5565 29.5645C13.2602 29.2446 13.2874 28.8678 13.5858 28.6368C13.9108 28.3845 14.3317 28.1873 14.7439 28.5517L15.0493 28.7569L15.0432 28.7501C15.1909 29.0006 15.3357 29.2526 15.4866 29.5014C16.0266 30.3929 16.4625 31.3283 16.6295 32.3705C16.6725 32.661 16.6934 32.9544 16.6921 33.2481C16.6942 33.5132 16.6164 33.6155 16.3578 33.6336C16.0772 33.6528 15.8827 33.7521 15.7549 34.0098C15.6531 34.2144 15.4688 34.2553 15.259 34.2079C14.7717 33.7133 14.406 33.1559 14.3657 32.4289L14.3472 32.4402C14.3752 32.4076 14.4103 32.382 14.4496 32.3655C14.6684 32.3106 14.8197 32.1636 14.9507 31.9889C15.0914 31.8018 15.2377 31.6236 15.4369 31.4923C15.5586 31.412 15.5323 31.3144 15.393 31.2299C15.1081 31.0588 14.9659 31.0817 14.7822 31.2937C14.6298 31.4683 14.4619 31.6328 14.2141 31.6643C13.62 31.3381 13.3913 30.6891 13.6197 29.9811Z" fill="#FEFEFE"/>
<path d="M28.6039 11.0487C28.8698 10.8545 29.1465 10.6733 29.3986 10.4622C29.7321 10.1832 29.8857 9.81471 29.857 9.37027C29.6394 9.37947 29.647 9.66054 29.4112 9.67862C28.964 9.14198 28.2996 9.07141 27.6473 8.96705C27.5136 8.9457 27.3761 8.95222 27.2407 8.93948C27.186 8.93414 27.1152 8.92317 27.1172 8.84786C27.1183 8.79195 27.1368 8.73782 27.1699 8.69309C27.4253 8.3883 27.74 8.16089 28.0937 7.98834C28.4966 7.79148 28.9305 7.66756 29.3755 7.62217C29.7611 7.58185 30.1457 7.53323 30.5313 7.49023C30.5872 7.50002 30.6433 7.50743 30.698 7.51988C30.715 7.52403 30.7425 7.54301 30.7419 7.55368C30.7399 7.58333 30.7317 7.63729 30.7159 7.64263C30.5468 7.68532 30.376 7.7209 30.2051 7.75707C29.7478 7.8499 29.3062 8.00971 28.8943 8.23146C28.8437 8.25903 28.7852 8.29076 28.7998 8.35984C28.8156 8.43396 28.8809 8.42151 28.9341 8.41321C29.532 8.32426 30.1335 8.31922 30.7358 8.33464C31.0078 8.34146 31.279 8.36429 31.5379 8.46124C31.6301 8.49157 31.7199 8.52873 31.8067 8.57242C32.2212 8.80042 32.3625 9.17311 32.1905 9.61992C32.0442 9.99854 31.7886 10.29 31.4536 10.5094C31.0435 10.776 30.5856 10.9582 30.106 11.0454C29.6104 11.1397 29.1049 11.1744 28.6039 11.0487Z" fill="#5D01EE"/>
<path d="M15.9968 14.3567C16.1645 14.3483 16.3315 14.383 16.4824 14.4575C17.009 14.7196 17.4949 15.0505 17.9667 15.3977C18.1975 15.5679 18.2186 15.7034 18.1159 15.964C18.0729 16.0737 18.0191 16.1795 17.967 16.2854C17.8327 16.5587 17.623 16.6966 17.3126 16.6856C17.0791 16.6778 16.8453 16.6849 16.6126 16.707C15.9819 16.7663 15.3972 16.9762 14.8498 17.2931C14.4269 17.5377 14.0083 17.7915 13.6505 18.1304C13.451 18.319 13.2886 18.3003 13.1181 18.0631C12.9239 17.793 12.9262 17.5781 13.183 17.3246C13.9816 16.5371 14.6694 15.6547 15.3603 14.7747C15.5306 14.5565 15.721 14.3525 15.9968 14.3567Z" fill="#5D01EE"/>
<path d="M8.68362 30.7869C8.71141 30.8587 8.72779 30.9381 8.76904 31.0007C9.52287 32.152 10.3314 33.2591 11.314 34.2241C11.481 34.3881 11.663 34.5363 11.8356 34.695C11.9345 34.7857 11.9526 34.89 11.8765 35.0092C11.7595 35.1907 11.6378 35.3695 11.5352 35.5589C11.2546 36.0775 10.9911 36.6038 10.9168 37.2027C10.8998 37.2688 10.846 37.3079 10.7959 37.272C10.6608 37.1748 10.6359 37.0052 10.5777 36.8632C9.7762 34.8966 9.01592 32.9139 8.36944 30.8886C8.31094 30.703 8.26092 30.5145 8.1875 30.2598C8.41918 30.3487 8.54117 30.4762 8.65116 30.6206C8.65379 30.6834 8.62014 30.7552 8.69591 30.7985L8.68362 30.7869Z" fill="#5D01EE"/>
<path d="M12.4617 21.8761C12.7916 21.8478 13.1238 21.875 13.4449 21.9567C13.5199 21.974 13.5911 22.0052 13.6549 22.0486C13.6978 22.0863 13.727 22.1375 13.738 22.1939C13.7567 22.2802 13.7032 22.3422 13.6339 22.3854C13.4584 22.494 13.2483 22.4151 13.0298 22.5109C13.2141 22.5808 13.3753 22.6321 13.5271 22.7024C13.7366 22.7985 13.7629 23.0454 13.5757 23.1753C13.4707 23.2482 13.3466 23.2939 13.198 23.3665C13.2984 23.4152 13.3642 23.4555 13.4356 23.4801C13.5871 23.5308 13.75 23.5756 13.7351 23.7807C13.7202 23.9859 13.5411 24.001 13.3975 24.052C13.3071 24.084 13.2159 24.1131 13.0757 24.1599C13.2513 24.3194 13.4417 24.3082 13.6096 24.3577C13.7851 24.4093 13.8457 24.6557 13.7175 24.7909C13.661 24.844 13.5979 24.8894 13.5297 24.9261C13.4657 24.9646 13.38 24.9679 13.3402 25.0619C13.3694 25.2169 13.5195 25.1458 13.6108 25.1861C13.7459 25.2454 13.8483 25.3257 13.8512 25.4846C13.8539 25.6163 13.772 25.6981 13.6655 25.7613C13.5701 25.8179 13.4233 25.7909 13.3788 25.954C13.4976 26.0005 13.6251 26.0335 13.7345 26.0978C13.8849 26.1867 13.8898 26.3768 13.7509 26.4918C13.6769 26.5532 13.5874 26.5956 13.4847 26.659C13.6868 26.839 13.9144 27.0062 13.8047 27.3258C13.4943 27.5037 13.1594 27.3712 12.8394 27.3801C12.505 27.3893 12.3907 27.0474 12.6191 26.7293C12.7604 26.5327 12.8988 26.3993 12.6133 26.2253C12.5305 26.1746 12.4737 26.0536 12.508 25.9659C12.6264 25.6631 12.7578 25.3729 12.3342 25.2027C12.6267 24.7912 12.1195 24.3494 12.211 24.1697C12.4006 23.7967 12.3014 23.658 12.0613 23.4581C12.0358 23.4374 12.0259 23.3692 12.0452 23.347C12.2853 23.0528 12.2438 22.8133 11.9712 22.5479C11.8682 22.4483 11.9943 22.2879 12.1391 22.2378C12.3187 22.1761 12.4588 22.0913 12.4617 21.8761Z" fill="#5D01EE"/>
<path d="M15.2685 34.9625C15.6394 34.9189 15.9928 34.819 16.3192 34.6292C16.3873 34.5913 16.4591 34.5605 16.5333 34.5373C16.6653 34.4934 16.7747 34.5566 16.7925 34.6856C16.8031 34.7635 16.8013 34.843 16.8042 34.9227C16.8197 35.3037 17.0274 35.5454 17.36 35.6829C17.5234 35.7467 17.6898 35.802 17.8588 35.8484C18.4189 36.0154 18.9794 36.1806 19.5405 36.3438C19.6353 36.3714 19.7268 36.401 19.7888 36.4849C19.7733 36.5739 19.6973 36.6035 19.6353 36.6332C18.7559 37.0883 17.8482 37.1458 16.9204 36.8093C16.758 36.75 16.6088 36.6507 16.4593 36.56C16.3675 36.5045 16.3537 36.4162 16.3695 36.3053C16.4043 36.0568 16.3961 36.0536 16.1724 36.0847C16.0179 36.106 15.8646 36.1342 15.7108 36.1594C15.7236 36.2374 15.6707 36.0957 15.7459 36.1164C15.7478 36.1121 15.7495 36.1076 15.7508 36.1031C15.7105 36.2217 15.5888 36.0455 15.5478 36.1624L15.2685 36.0912C15.0239 35.7153 14.8124 35.339 15.2685 34.9625Z" fill="#FDFDFD"/>
<path d="M29.1818 13.4702C29.063 13.5591 28.922 13.5443 28.7883 13.5481C27.3427 13.5899 25.9084 13.4909 24.4926 13.1775C24.4548 13.1677 24.4176 13.1559 24.3811 13.142C24.3045 13.1156 24.2208 13.1031 24.1796 13.1852C24.158 13.2288 24.1673 13.3038 24.1904 13.3525C24.4274 13.8348 24.7097 14.3012 25.1522 14.6007C25.7665 15.0158 25.9359 15.5963 25.9111 16.2853C25.9067 16.4039 25.8894 16.5196 25.8777 16.6346C25.7472 15.9945 25.3161 15.5714 24.8501 15.1818C24.6108 14.9808 24.3446 14.813 24.0942 14.6253C23.5305 14.2025 23.2128 13.6368 23.1505 12.9273C23.1425 12.8286 23.1425 12.7295 23.1505 12.6308C23.1651 12.4313 23.2818 12.3595 23.4723 12.4577C24.2469 12.8558 25.0829 13.0438 25.9295 13.1855C26.8518 13.3403 27.7853 13.3981 28.7193 13.4325C28.8735 13.4376 29.0276 13.4571 29.1818 13.4702Z" fill="#5D01EE"/>
<path d="M19.033 26.7607C18.4096 26.7409 17.793 26.6484 17.1734 26.6054C16.7688 26.5775 16.4851 26.4047 16.3031 26.0249C16.1168 25.6362 15.8834 25.2709 15.6856 24.8875C15.4604 24.4496 15.4808 24.3693 15.8447 24.0224C15.9433 23.9278 16.0495 23.8412 16.1469 23.7454C16.237 23.6565 16.3333 23.6043 16.4582 23.6592C16.5699 23.7081 16.5626 23.8163 16.5617 23.9109C16.56 24.1273 16.5418 24.3438 16.541 24.5602C16.5383 25.3406 16.8025 25.7263 17.5464 25.9401C18.2736 26.1494 19.0125 26.3175 19.7456 26.5061C19.8772 26.5399 20.0059 26.584 20.1349 26.627C20.1428 26.6297 20.1428 26.6629 20.1428 26.6822C20.1428 26.7014 20.1405 26.7278 20.134 26.7293C20.0789 26.7455 20.0222 26.7555 19.965 26.759C19.6543 26.7625 19.3436 26.7607 19.033 26.7607Z" fill="#FAFAFA"/>
<path d="M14.3634 32.4313C14.5132 32.8366 14.7118 33.217 14.9295 33.5877C15.0465 33.789 15.1486 34.001 15.2571 34.2079C14.8116 34.4937 14.3146 34.5637 13.8041 34.5358C13.2264 34.5062 12.8239 34.065 12.8204 33.4951C12.8172 33.0208 12.9505 32.8165 13.4089 32.6724C13.7216 32.5748 14.0209 32.4115 14.3634 32.4313Z" fill="#5D01EE"/>
<path d="M26.0769 8.73491C25.7598 8.74914 25.476 8.6006 25.1744 8.53804C24.8908 8.47647 24.6012 8.44773 24.3112 8.45235C24.1927 8.45502 24.0745 8.47399 23.9909 8.56413C23.9414 8.61779 23.8864 8.69577 23.8885 8.761C23.8905 8.82622 23.9558 8.90183 24.0435 8.91102C24.1395 8.9211 24.2363 8.92258 24.3325 8.9294C24.8357 8.9638 25.2803 9.15444 25.629 9.51556C26.0923 9.99017 26.6265 10.3879 27.2119 10.6941C27.2604 10.7199 27.2973 10.7682 27.3394 10.8062C26.707 10.7211 26.1743 10.3964 25.6392 10.0783C25.5897 10.0471 25.5421 10.0129 25.4968 9.97571C24.8415 9.46338 24.0962 9.32907 23.2938 9.43788C23.1978 9.45093 23.1042 9.48058 23.0083 9.49422C22.829 9.51942 22.7383 9.43314 22.7669 9.26859C22.9132 8.43842 23.6036 7.98271 24.2512 8.04231C24.9074 8.1022 25.5386 8.31389 26.0769 8.73491Z" fill="#5D01EE"/>
<path d="M11.964 20.0415C11.7361 20.1105 11.5586 20.126 11.398 20.0429C11.1537 19.9166 10.9425 20.0074 10.7372 20.1227C10.4964 20.2582 10.3165 20.4672 10.1363 20.6748C9.91839 20.9256 9.7066 21.1838 9.46965 21.416C9.08059 21.7958 8.60964 21.9292 8.07666 21.8177C8.05794 21.8145 8.04032 21.8065 8.02542 21.7946C8.01052 21.7827 7.99881 21.7672 7.99136 21.7495C7.98391 21.7318 7.98095 21.7125 7.98277 21.6933C7.98459 21.6742 7.99113 21.6558 8.00177 21.6398C8.11468 21.4836 8.29136 21.3792 8.37385 21.1723C7.94706 21 7.46293 20.9413 7.10547 20.485C7.26226 20.5117 7.35734 20.5301 7.4527 20.5443C8.16687 20.6533 8.89683 20.5637 9.56472 20.2852C9.68027 20.2374 9.77885 20.1844 9.77183 20.3946C9.7692 20.4687 9.86281 20.4494 9.90288 20.4153C10.0515 20.289 10.189 20.1485 10.3393 20.0251C10.4807 19.9042 10.6456 19.8146 10.8232 19.7623C11.0009 19.7099 11.1874 19.6959 11.3708 19.7212C11.5896 19.7467 11.778 19.825 11.964 20.0415Z" fill="#F5F6F6"/>
<path d="M14.7442 28.5522C14.4136 28.4588 14.0968 28.5543 13.7815 28.6332C13.6121 28.6756 13.5302 28.806 13.5334 28.9818C13.5369 29.1763 13.5492 29.3705 13.5577 29.565C13.0873 29.8079 12.5716 29.9104 12.0682 30.048C11.8417 30.1097 11.7078 30.0092 11.6162 29.7812C11.369 29.1651 11.7736 28.5238 12.4373 28.4814C12.59 28.4716 12.7518 28.5036 12.8782 28.3782C13.2807 28.0817 13.7718 28.2282 14.2089 28.1016C14.4812 28.1312 14.7705 28.1182 14.9402 28.4019C14.9233 28.4421 14.8963 28.4771 14.8619 28.5035C14.8275 28.5298 14.7869 28.5466 14.7442 28.5522Z" fill="#5D01EE"/>
<path d="M11.7698 18.7085C11.7698 19.1076 11.4884 19.4334 11.0993 19.4595C10.9639 19.467 10.8281 19.4519 10.6974 19.415C10.2294 19.2857 9.75342 19.1962 9.2769 19.1049C8.87439 19.0278 8.49059 18.8852 8.17876 18.597C8.12174 18.5448 8.0701 18.4869 8.02461 18.4241C8.00712 18.3905 8.00046 18.3521 8.00559 18.3144C8.00998 18.2329 8.07989 18.2276 8.13167 18.2347C8.4005 18.2718 8.66875 18.3162 8.937 18.3586C9.74671 18.4864 10.5555 18.5273 11.365 18.3563C11.6253 18.3014 11.7689 18.4348 11.7698 18.7085Z" fill="#F9F9FA"/>
<path d="M24.6608 10.645C24.9019 10.8094 25.1427 10.9739 25.3834 11.1383C25.9634 11.5349 26.5832 11.8682 27.2324 12.1328C27.3553 12.1829 27.4957 12.2033 27.5738 12.3335C26.9302 12.5894 26.0965 12.5559 25.1458 12.2371C25.0739 12.2342 25.0288 12.1838 24.9782 12.1423L24.9926 12.1541C24.1735 11.7566 23.995 11.2832 24.4569 10.7339C24.4817 10.704 24.5131 10.6804 24.5485 10.6649C24.5839 10.6495 24.6224 10.6426 24.6608 10.645Z" fill="#5D01EE"/>
<path d="M12.4628 21.877C12.5161 22.0173 12.7156 21.9811 12.7633 22.1341C12.713 22.2782 12.5746 22.2325 12.4748 22.2666C12.3827 22.298 12.2862 22.3149 12.1925 22.3419C12.1147 22.3644 12.0437 22.4051 12.0431 22.497C12.0432 22.5368 12.0542 22.5758 12.0749 22.6097C12.0955 22.6436 12.125 22.6711 12.1601 22.6891C12.3113 22.773 12.4666 22.8498 12.6234 22.931C12.6161 23.0911 12.4868 23.0407 12.4187 23.0793C12.3505 23.1178 12.2759 23.1424 12.2089 23.1822C12.0732 23.2628 12.0826 23.4336 12.2268 23.5101C12.2955 23.5468 12.3687 23.5756 12.4403 23.6064C12.5254 23.6432 12.6618 23.6272 12.6817 23.7325C12.7109 23.8923 12.5374 23.884 12.4526 23.9492C12.4064 23.9851 12.3537 24.0126 12.3096 24.0506C12.2837 24.0728 12.2635 24.1009 12.2504 24.1326C12.2373 24.1642 12.2318 24.1986 12.2344 24.2328C12.2369 24.2671 12.2474 24.3002 12.265 24.3295C12.2826 24.3589 12.3068 24.3836 12.3356 24.4016C12.4819 24.4995 12.6787 24.4864 12.8109 24.6323C12.7565 24.8262 12.5439 24.8434 12.4406 24.9798C12.3637 25.0806 12.3821 25.2365 12.4991 25.2727C12.6103 25.3071 12.727 25.3231 12.8405 25.3501C12.9171 25.3685 12.9868 25.3987 13.028 25.4749C12.4043 25.9629 12.4046 25.9683 13.0757 26.3593C13.1057 26.3825 13.1327 26.4094 13.1561 26.4394C13.0728 26.6206 12.8636 26.6194 12.7337 26.7359C12.5992 26.8575 12.5529 26.9909 12.6129 27.156C12.6539 27.2684 12.8057 27.3671 12.8908 27.3016C13.1579 27.0941 13.3931 27.1655 13.6391 27.3312C13.6774 27.3573 13.7517 27.3289 13.809 27.3256C13.809 27.3796 13.8073 27.4332 13.8067 27.4872L13.8146 27.4902C13.5291 27.7955 13.1634 27.7988 12.7922 27.7594C12.7333 27.7536 12.6768 27.7327 12.6279 27.6988C12.5791 27.6649 12.5395 27.619 12.5129 27.5655C12.4193 27.3689 12.3903 27.1519 12.3842 26.9354C12.3786 26.7412 12.4909 26.6057 12.6369 26.4945C12.6515 26.4836 12.658 26.4619 12.6773 26.4302C12.5951 26.3656 12.4974 26.3116 12.4298 26.2316C12.2707 26.0436 12.2613 25.8648 12.4111 25.6475C12.4813 25.5461 12.5769 25.5176 12.3915 25.4124C12.12 25.2582 12.1092 25.0797 12.2976 24.8398C12.3423 24.7829 12.4359 24.7648 12.4266 24.6655C11.8848 24.3987 11.8442 24.1784 12.2777 23.8033C12.1808 23.7357 12.0788 23.6779 11.993 23.6017C11.8638 23.4867 11.855 23.3349 11.876 23.1685C11.8924 23.0416 12.1136 23.06 12.0557 22.9221C12.0138 22.8225 11.8933 22.7603 11.8237 22.6686C11.7386 22.5566 11.7149 22.4214 11.7192 22.2788C11.7245 22.1178 11.7833 22.0662 11.9811 22.0712C12.0396 22.0712 12.0957 22.0774 12.182 22.0825C12.1586 21.9467 12.0466 21.9123 11.9773 21.8438C11.9132 21.7807 11.831 21.7279 11.8213 21.5918C12.0834 21.6185 12.2636 21.7709 12.4628 21.877Z" fill="#D2C8E2"/>
<path d="M13.6185 29.9824C13.6366 30.1541 13.6554 30.3255 13.6726 30.4971C13.7188 30.9508 13.8619 31.3569 14.2123 31.6671C13.8104 31.7993 13.4126 31.9467 13.0054 32.0584C12.6967 32.1432 12.5373 32.0481 12.4186 31.7436C12.0675 30.8473 12.1804 30.7328 12.9018 30.3563C13.1405 30.2324 13.3794 30.1077 13.6185 29.9824Z" fill="#5D01EE"/>
<path d="M13.0149 21.7673C12.5316 21.7456 12.135 21.611 11.8389 21.2632C11.5572 20.9324 11.6579 20.5659 12.0729 20.4384C12.6337 20.2658 13.1489 20.3844 13.5862 20.78C13.6593 20.8441 13.7139 20.9273 13.744 21.0205C13.7741 21.1137 13.7786 21.2134 13.757 21.309C13.7355 21.4046 13.6887 21.4925 13.6216 21.5632C13.5546 21.6338 13.4698 21.6847 13.3764 21.7103C13.2489 21.7489 13.1108 21.753 13.0149 21.7673Z" fill="#5D01EE"/>
<path d="M15.2673 34.9637C15.1523 35.179 15.1544 35.4055 15.1988 35.6382C15.2281 35.7888 15.245 35.9415 15.2673 36.093C14.9101 36.2614 14.5471 36.2413 14.1867 36.1132C13.8263 35.9851 13.6154 35.7147 13.5355 35.3402C13.4987 35.1686 13.589 35.0245 13.7543 34.9765C13.8095 34.9572 13.8672 34.9465 13.9255 34.9447C14.3733 34.9551 14.8218 34.8982 15.2673 34.9637Z" fill="#5D01EE"/>
<path d="M14.2059 28.2394C13.9427 28.2438 13.6794 28.2506 13.4161 28.2518C13.2266 28.2518 13.0373 28.2471 12.8787 28.3784C12.5453 28.3612 12.2059 28.4689 11.8765 28.3408C11.7417 28.3316 11.6574 28.2581 11.615 28.1309C11.5255 27.9805 11.422 27.8367 11.3497 27.6784C11.2517 27.4635 11.3158 27.3025 11.5217 27.1904C11.59 27.1543 11.6614 27.1245 11.735 27.1014C11.9198 27.0422 12.0105 27.0926 12.086 27.2915C12.0919 27.3101 12.0965 27.3291 12.0997 27.3484C12.2706 28.1445 13.0943 28.3393 13.7086 28.0636C13.7791 28.0318 13.8508 28.0025 13.9216 27.9722C14.1354 27.8806 14.2726 27.7365 14.2615 27.4821C14.2592 27.4261 14.2834 27.3686 14.2957 27.312C14.7249 27.6799 14.7012 27.9224 14.2059 28.2394Z" fill="#EAEAED"/>
<path d="M6.60156 28.7177C6.6273 28.594 6.73261 28.5736 6.81686 28.5416C7.73948 28.1897 8.66327 27.841 9.58823 27.4952C9.65928 27.4668 9.73507 27.4525 9.81144 27.4531C9.82584 27.4535 9.83998 27.4571 9.85286 27.4636C9.86574 27.4702 9.87704 27.4795 9.88597 27.491C9.8949 27.5024 9.90124 27.5157 9.90454 27.5299C9.90783 27.5442 9.908 27.5589 9.90504 27.5732C9.84653 27.9109 9.6877 28.069 9.35744 28.1478C8.62379 28.3233 7.89129 28.5036 7.15852 28.6839C6.9751 28.7295 6.79404 28.8146 6.60156 28.7177Z" fill="#EFF0F0"/>
<path d="M31.4359 12.3769C30.9705 12.5189 30.5267 12.4294 30.0391 12.2613C30.221 12.0431 30.4521 11.9944 30.6402 11.8826C30.84 11.7641 31.0451 11.652 31.244 11.531C31.4429 11.41 31.6363 11.2814 31.8322 11.1562C32.1476 11.6446 32.0499 11.9455 31.4359 12.3769Z" fill="#5D01EE"/>
<path d="M14.207 28.239C14.2544 28.1817 14.3044 28.1263 14.3492 28.067C14.5502 27.8002 14.5189 27.5481 14.2971 27.3104C14.3003 27.2463 14.3334 27.1932 14.3922 27.187C14.7067 27.1529 14.9594 27.2822 15.132 27.5381C15.3046 27.7939 15.2783 28.0483 15.0647 28.2769C15.0099 28.3043 14.9648 28.3482 14.9357 28.4026H14.9424L14.207 28.239Z" fill="#5D01EE"/>
<path d="M24.6605 10.6453C24.5874 10.76 24.5034 10.8694 24.4429 10.9907C24.2738 11.3308 24.3259 11.5599 24.6026 11.8292C24.7252 11.9478 24.9115 11.9863 24.9925 12.1553C24.6123 12.1669 24.3297 11.9451 24.0664 11.7212C23.7619 11.4618 23.8061 10.8199 24.1153 10.5504C24.2776 10.4066 24.4011 10.4282 24.6605 10.6453Z" fill="#E9E5EF"/>
<path d="M10.3494 31.2422C10.6258 31.2902 10.9099 31.3486 11.1767 31.4702C11.3071 31.5295 11.399 31.6211 11.4054 31.7806C11.4107 31.9084 11.3089 32.0237 11.193 31.9944C10.833 31.9031 10.491 31.7699 10.223 31.4951C10.184 31.4542 10.1616 31.3999 10.1602 31.343C10.1657 31.2268 10.2725 31.2701 10.3494 31.2422Z" fill="#5D01EE"/>
<path d="M31.4375 12.3774C31.4448 12.3599 31.4472 12.3356 31.46 12.3258C31.859 12.0252 31.936 11.6199 31.8342 11.1562C31.8861 11.1009 31.9416 11.0492 32.0003 11.0014C32.0758 10.9478 32.16 10.9718 32.189 11.0518C32.3473 11.4877 31.9842 12.2437 31.5507 12.386C31.5174 12.3982 31.4755 12.3816 31.4375 12.3774Z" fill="#C9C3D2"/>
<path d="M24.0469 38.4748C24.1264 38.4282 24.2502 38.4656 24.2906 38.3438C24.9005 38.4392 25.4709 38.6699 26.0676 38.8641C26.0153 38.953 25.9436 38.9234 25.8871 38.9234C25.8297 38.9199 25.7728 38.9106 25.7172 38.8955C25.2471 38.7941 24.7767 38.6951 24.3081 38.5878C24.2171 38.5667 24.1338 38.5133 24.0469 38.4748Z" fill="#B6BABB"/>
<path d="M11.6143 28.1309L11.8761 28.3411C11.8279 28.4208 11.7969 28.5427 11.7281 28.5714C11.6032 28.6233 11.5424 28.4778 11.459 28.4087C11.4308 28.3821 11.4052 28.3529 11.3824 28.3215C11.318 28.242 11.3531 28.1916 11.5008 28.151C11.538 28.1409 11.5766 28.1374 11.6143 28.1309Z" fill="#5D01EE"/>
<path d="M28.1362 38.2227L28.2696 38.3605C28.1792 38.59 28.078 38.8076 27.7852 38.8156L27.7966 38.826C27.8749 38.6067 27.9898 38.4026 28.1362 38.2227Z" fill="#ADABAD"/>
<path d="M27.4219 24.0942C27.469 23.9756 27.5845 23.9531 27.6851 23.914C27.708 23.9048 27.7475 23.9318 27.7755 23.9484C27.7829 23.9525 27.7805 23.9831 27.7755 23.9985C27.7343 24.1034 27.6849 24.2025 27.5708 24.2449C27.561 24.2088 27.5421 24.176 27.516 24.1496C27.4899 24.1232 27.4574 24.1041 27.4219 24.0942Z" fill="#736D6F"/>
<path d="M20.3194 9.55118C20.2937 9.65495 20.2024 9.69261 20.1237 9.7356C20.1077 9.74134 20.0905 9.74305 20.0736 9.74057C20.0567 9.73809 20.0407 9.7315 20.0269 9.72137C20.0091 9.70476 20.0082 9.65466 20.0178 9.62619C20.0471 9.5408 20.057 9.43881 20.1618 9.40234C20.1713 9.4398 20.1912 9.4737 20.2192 9.50007C20.2471 9.52644 20.2819 9.54417 20.3194 9.55118Z" fill="#808484"/>
<path d="M15.0486 28.7572C15.0734 28.6921 15.1036 28.6292 15.139 28.5692C15.1624 28.5354 15.2063 28.5509 15.2268 28.5927C15.2297 28.6007 15.2306 28.6094 15.2295 28.6179C15.2284 28.6265 15.2252 28.6346 15.2203 28.6416C15.1618 28.6801 15.1033 28.7145 15.0431 28.7504C15.0422 28.7504 15.0483 28.7572 15.0486 28.7572Z" fill="#5D01EE"/>
<path d="M15.5469 36.1634C15.6016 36.1109 15.6569 36.1141 15.7113 36.1616C15.6311 36.2025 15.6311 36.2025 15.5469 36.1634Z" fill="#5D01EE"/>
<path d="M28.1445 37.8777C28.1814 37.8036 28.2343 37.8051 28.2615 37.8742C28.2999 37.9744 28.2703 38.0636 28.1679 38.1161C28.1599 38.0375 28.1521 37.958 28.1445 37.8777Z" fill="#ADABAD"/>
<path d="M14.45 32.3673C14.4571 32.45 14.407 32.4524 14.3477 32.4417C14.3608 32.3877 14.3787 32.34 14.45 32.3673Z" fill="#5D01EE"/>
<path d="M30.707 6.45354L30.8346 6.45117C30.8325 6.5078 30.8112 6.55287 30.7483 6.53567C30.7287 6.53033 30.7205 6.48201 30.707 6.45354Z" fill="white"/>
<path d="M14.9336 28.4031C14.942 28.3723 14.9584 28.3444 14.9811 28.3223C15.0038 28.3002 15.032 28.2846 15.0626 28.2773C15.0585 28.3101 15.0435 28.3404 15.02 28.3633C14.9965 28.3862 14.966 28.4002 14.9336 28.4031Z" fill="#5D01EE"/>
<path d="M23.7099 19.2638C23.599 19.2291 23.6014 19.1654 23.6654 19.0859C23.68 19.1449 23.695 19.2045 23.7099 19.2638Z" fill="#FEFEFE"/>
<path d="M31.7773 13.1484C31.7501 13.2234 31.746 13.3154 31.6448 13.3367C31.6392 13.238 31.72 13.2015 31.7773 13.1484Z" fill="white"/>
<path d="M24.9766 12.1426L25.1439 12.2375C25.0713 12.2333 24.9924 12.2437 24.9766 12.1426Z" fill="#E9E5EF"/>
<path d="M26.6298 0.0557025C26.6638 -0.015455 26.5652 0.0441389 26.6351 0.00885663C26.674 -0.0110082 26.688 0.00352025 26.6684 0.0426569C26.633 0.113221 26.6924 0.0130074 26.6219 0.0476967L26.6298 0.0557025Z" fill="#5D01EE"/>
<path d="M28.2732 38.3601C28.2577 38.2842 28.2919 38.2415 28.3627 38.2246C28.3744 38.2981 28.344 38.3429 28.2732 38.3601Z" fill="#ADABAD"/>
<path d="M27.7883 38.8164C27.7812 38.8437 27.7745 38.8713 27.7675 38.8985L27.7148 38.8635L27.7997 38.8268L27.7883 38.8164Z" fill="#ADABAD"/>
</g>
<path d="M67.0859 24.7578H62.2422L58.8828 20.1094V32.5508H54V13.0195H58.8633L67.0859 24.7578ZM70.4258 13.0391H75.2891V32.5508H70.4062V20.5977H65.1523L70.4258 13.0391Z" fill="#5D01EE"/>
<path d="M89.5469 24.7578H84.7031L81.3438 20.1094V32.5508H76.4609V13.0195H81.3242L89.5469 24.7578ZM92.8867 13.0391H97.75V32.5508H92.8672V20.5977H87.6133L92.8867 13.0391Z" fill="#5D01EE"/>
<path d="M118.473 22.7656C118.473 25.6823 117.613 28.0391 115.895 29.8359C114.189 31.6328 111.78 32.5312 108.668 32.5312C105.582 32.5312 103.173 31.6003 101.441 29.7383C99.7227 27.8633 98.8633 25.5391 98.8633 22.7656C98.8633 19.849 99.7812 17.4922 101.617 15.6953C103.466 13.8984 105.816 13 108.668 13C111.65 13 114.026 13.8984 115.797 15.6953C117.581 17.4922 118.473 19.849 118.473 22.7656ZM113.355 22.7656C113.355 21.2031 113.01 19.8815 112.32 18.8008C111.63 17.707 110.497 17.1602 108.922 17.1602C107.242 17.1602 106.012 17.7135 105.23 18.8203C104.462 19.9141 104.078 21.2292 104.078 22.7656C104.078 24.0417 104.462 25.2982 105.23 26.5352C105.999 27.7721 107.229 28.3906 108.922 28.3906C110.497 28.3906 111.63 27.8372 112.32 26.7305C113.01 25.6237 113.355 24.3021 113.355 22.7656Z" fill="#5D01EE"/>
<path d="M138.82 13.0586L136.672 17.2188H123V13.0586H138.82ZM127.863 24.6992V32.5508L123 32.5312V20.5391H136.672V24.6992H127.863Z" fill="white"/>
<path d="M158.156 32.5703H152.98L151.398 29.0547H146.145L143.762 25.793L140.695 32.5703H135.324L143.996 13.0586H149.465L158.156 32.5703ZM149.465 24.7383L146.809 18.918L144.211 24.7383H149.465Z" fill="white"/>
<path d="M163.488 21.5156H169.367C170.37 21.2682 170.884 20.5846 170.91 19.4648C170.884 18.2148 170.318 17.4987 169.211 17.3164H163.488V21.5156ZM158.605 32.5508V13.0586H169.777C171.6 13.1367 173.085 13.7487 174.23 14.8945C175.389 16.0273 175.969 17.5443 175.969 19.4453C175.904 22.6615 174.419 24.6536 171.516 25.4219L176.438 32.5508H170.5L163.469 22.5703V32.5508H158.605Z" fill="white"/>
<path d="M189.641 24.7578H184.797L181.438 20.1094V32.5508H176.555V13.0195H181.418L189.641 24.7578ZM192.98 13.0391H197.844V32.5508H192.961V20.5977H187.707L192.98 13.0391Z" fill="white"/>
<path d="M203.898 13.0195V32.5508H199.016V13.0195H203.898Z" fill="white"/>
<path d="M209.738 21.0664V32.5508H204.875V13.0781L204.855 13.0391H204.875V13.0195H209.738V13.0391L217.57 24.3867V13.0391H222.473V32.4336L222.551 32.5508H217.57V32.3945L209.738 21.0664Z" fill="white"/>
<path d="M228.43 21.2617L228.332 22.7266C228.358 26.4505 229.582 28.3125 232.004 28.3125H235.91V24.6992H230.051L228.43 21.2617ZM240.793 32.5508H231.223C225.884 31.8997 223.215 28.6445 223.215 22.7852C223.215 16.9258 226.145 13.6706 232.004 13.0195H240.812L238.84 17.2383H232.492C230.383 17.2513 229.074 18.3516 228.566 20.5391H240.793V32.5508Z" fill="white"/>
<defs>
<clipPath id="clip0_1179_3377">
<rect width="47" height="45" fill="white"/>
</clipPath>
</defs>
</svg>
